Neuton-Cursive.ufo
<glyph name="exclam" format="1">
  <advance width="198"/>
  <unicode hex="0021"/>
  <outline>
    <contour>
      <point x="107" y="132"/>
      <point x="117" y="126"/>
      <point x="130" y="110" type="curve"/>
      <point x="136" y="102"/>
      <point x="140" y="92"/>
      <point x="142" y="81" type="curve"/>
      <point x="143" y="79"/>
      <point x="143" y="76"/>
      <point x="143" y="71" type="curve" smooth="yes"/>
      <point x="143" y="70"/>
      <point x="142" y="63"/>
      <point x="140" y="49" type="curve"/>
      <point x="132" y="12"/>
      <point x="101" y="-22"/>
      <point x="62" y="-22" type="curve"/>
      <point x="26" y="-19"/>
      <point x="10" y="8"/>
      <point x="6" y="28" type="curve"/>
      <point x="5" y="35"/>
      <point x="4" y="40"/>
      <point x="4" y="44" type="curve" smooth="yes"/>
      <point x="4" y="48"/>
      <point x="5" y="53"/>
      <point x="6" y="60" type="curve"/>
      <point x="14" y="95"/>
      <point x="44" y="129"/>
      <point x="80" y="132" type="curve"/>
    </contour>
    <contour>
      <point x="49" y="790"/>
      <point x="72" y="797"/>
      <point x="99" y="797" type="curve" smooth="yes"/>
      <point x="146" y="797"/>
      <point x="181" y="768"/>
      <point x="190" y="712" type="curve"/>
      <point x="193" y="699"/>
      <point x="194" y="686"/>
      <point x="194" y="671" type="curve" smooth="yes"/>
      <point x="194" y="654"/>
      <point x="192" y="630"/>
      <point x="188" y="598" type="curve" smooth="yes"/>
      <point x="181" y="541"/>
      <point x="171" y="486"/>
      <point x="160" y="432" type="curve" smooth="yes"/>
      <point x="114" y="209" type="line"/>
      <point x="70" y="201" type="line"/>
      <point x="77" y="306" type="line" smooth="yes"/>
      <point x="80" y="354"/>
      <point x="82" y="417"/>
      <point x="82" y="501" type="curve" smooth="yes"/>
      <point x="82" y="540" type="line"/>
      <point x="79" y="612"/>
      <point x="69" y="693"/>
      <point x="30" y="777" type="curve"/>
    </contour>
  </outline>
</glyph>
<glyph name="quotedbl" format="1">
  <advance width="251"/>
  <unicode hex="0022"/>
  <outline>
    <contour>
      <point x="134" y="808" type="line"/>
      <point x="139" y="809"/>
      <point x="147" y="809"/>
      <point x="158" y="809" type="curve" smooth="yes"/>
      <point x="188" y="809"/>
      <point x="218" y="805"/>
      <point x="247" y="798" type="curve"/>
      <point x="195" y="560" type="line"/>
      <point x="180" y="555"/>
      <point x="165" y="553"/>
      <point x="148" y="553" type="curve" smooth="yes"/>
      <point x="136" y="553" type="line"/>
    </contour>
    <contour>
      <point x="5" y="808" type="line"/>
      <point x="10" y="809"/>
      <point x="18" y="809"/>
      <point x="28" y="809" type="curve" smooth="yes"/>
      <point x="59" y="809"/>
      <point x="89" y="805"/>
      <point x="118" y="798" type="curve"/>
      <point x="66" y="560" type="line"/>
      <point x="51" y="555"/>
      <point x="36" y="553"/>
      <point x="19" y="553" type="curve" smooth="yes"/>
      <point x="6" y="553" type="line"/>
    </contour>
  </outline>
</glyph>
<glyph name="numbersign" format="1">
  <advance width="569"/>
  <unicode hex="0023"/>
  <outline>
    <contour>
      <point x="257" y="281" type="line"/>
      <point x="380" y="281" type="line"/>
      <point x="420" y="409" type="line"/>
      <point x="296" y="409" type="line"/>
    </contour>
    <contour>
      <point x="237" y="220" type="line"/>
      <point x="205" y="108" type="line"/>
      <point x="140" y="103" type="line"/>
      <point x="174" y="220" type="line"/>
      <point x="72" y="220" type="line"/>
      <point x="97" y="281" type="line"/>
      <point x="195" y="281" type="line"/>
      <point x="234" y="409" type="line"/>
      <point x="136" y="409" type="line"/>
      <point x="160" y="470" type="line"/>
      <point x="254" y="470" type="line"/>
      <point x="289" y="576" type="line"/>
      <point x="352" y="582" type="line"/>
      <point x="316" y="470" type="line"/>
      <point x="440" y="470" type="line"/>
      <point x="474" y="576" type="line"/>
      <point x="537" y="581" type="line"/>
      <point x="502" y="470" type="line"/>
      <point x="604" y="470" type="line"/>
      <point x="580" y="409" type="line"/>
      <point x="482" y="409" type="line"/>
      <point x="443" y="281" type="line"/>
      <point x="540" y="281" type="line"/>
      <point x="516" y="220" type="line"/>
      <point x="422" y="220" type="line"/>
      <point x="391" y="108" type="line"/>
      <point x="326" y="103" type="line"/>
      <point x="360" y="220" type="line"/>
    </contour>
  </outline>
</glyph>
<glyph name="dollar" format="1">
  <advance width="531"/>
  <unicode hex="0024"/>
  <outline>
    <contour>
      <point x="488" y="514" type="line"/>
      <point x="434" y="526" type="line"/>
      <point x="429" y="680" type="line"/>
      <point x="415" y="700"/>
      <point x="396" y="715"/>
      <point x="372" y="724" type="curve"/>
      <point x="327" y="458" type="line"/>
      <point x="430" y="371"/>
      <point x="440" y="363"/>
      <point x="469" y="320" type="curve" smooth="yes"/>
      <point x="487" y="294"/>
      <point x="498" y="265"/>
      <point x="502" y="232" type="curve"/>
      <point x="503" y="228"/>
      <point x="503" y="222"/>
      <point x="503" y="214" type="curve" smooth="yes"/>
      <point x="503" y="169"/>
      <point x="487" y="118"/>
      <point x="444" y="74" type="curve" smooth="yes"/>
      <point x="413" y="41"/>
      <point x="373" y="16"/>
      <point x="324" y="0" type="curve" smooth="yes"/>
      <point x="306" y="-6"/>
      <point x="287" y="-10"/>
      <point x="268" y="-12" type="curve"/>
      <point x="254" y="-97" type="line"/>
      <point x="174" y="-103" type="line"/>
      <point x="189" y="-12" type="line"/>
      <point x="150" y="-8"/>
      <point x="105" y="6"/>
      <point x="70" y="30" type="curve" smooth="yes"/>
      <point x="31" y="57"/>
      <point x="10" y="97"/>
      <point x="6" y="128" type="curve"/>
      <point x="5" y="131"/>
      <point x="5" y="137"/>
      <point x="5" y="144" type="curve" smooth="yes"/>
      <point x="5" y="153"/>
      <point x="7" y="164"/>
      <point x="10" y="176" type="curve"/>
      <point x="21" y="209"/>
      <point x="42" y="231"/>
      <point x="74" y="244" type="curve"/>
      <point x="89" y="251"/>
      <point x="106" y="254"/>
      <point x="124" y="254" type="curve" smooth="yes"/>
      <point x="137" y="254"/>
      <point x="151" y="252"/>
      <point x="164" y="248" type="curve"/>
      <point x="156" y="225"/>
      <point x="151" y="205"/>
      <point x="148" y="188" type="curve"/>
      <point x="147" y="175"/>
      <point x="146" y="165"/>
      <point x="146" y="158" type="curve" smooth="yes"/>
      <point x="146" y="119"/>
      <point x="161" y="89"/>
      <point x="186" y="70" type="curve"/>
      <point x="195" y="64"/>
      <point x="206" y="59"/>
      <point x="220" y="54" type="curve"/>
      <point x="265" y="325" type="line"/>
      <point x="212" y="368"/>
      <point x="174" y="405"/>
      <point x="150" y="434" type="curve" smooth="yes"/>
      <point x="113" y="481"/>
      <point x="98" y="519"/>
      <point x="98" y="560" type="curve" smooth="yes"/>
      <point x="98" y="574" type="line"/>
      <point x="100" y="597"/>
      <point x="107" y="621"/>
      <point x="119" y="645" type="curve" smooth="yes"/>
      <point x="163" y="728"/>
      <point x="243" y="775"/>
      <point x="322" y="787" type="curve"/>
      <point x="337" y="876" type="line"/>
      <point x="419" y="881" type="line"/>
      <point x="403" y="786" type="line"/>
      <point x="452" y="777"/>
      <point x="494" y="758"/>
      <point x="528" y="728" type="curve"/>
    </contour>
    <contour>
      <point x="258" y="49" type="line"/>
      <point x="307" y="52"/>
      <point x="355" y="79"/>
      <point x="372" y="127" type="curve" smooth="yes"/>
      <point x="376" y="138"/>
      <point x="378" y="151"/>
      <point x="378" y="167" type="curve" smooth="yes"/>
      <point x="378" y="194"/>
      <point x="370" y="228"/>
      <point x="338" y="261" type="curve"/>
      <point x="327" y="274"/>
      <point x="314" y="285"/>
      <point x="300" y="296" type="curve"/>
    </contour>
    <contour>
      <point x="333" y="732" type="line"/>
      <point x="330" y="732" type="line" smooth="yes"/>
      <point x="281" y="732"/>
      <point x="220" y="696"/>
      <point x="216" y="628" type="curve"/>
      <point x="216" y="620" type="line" smooth="yes"/>
      <point x="216" y="560"/>
      <point x="251" y="524"/>
      <point x="292" y="487" type="curve"/>
    </contour>
  </outline>
</glyph>
<glyph name="percent" format="1">
  <advance width="678"/>
  <unicode hex="0025"/>
  <outline>
    <contour>
      <point x="504" y="238"/>
      <point x="476" y="208"/>
      <point x="469" y="148" type="curve"/>
      <point x="468" y="143"/>
      <point x="468" y="135"/>
      <point x="468" y="125" type="curve" smooth="yes"/>
      <point x="468" y="74"/>
      <point x="490" y="42"/>
      <point x="537" y="42" type="curve" smooth="yes"/>
      <point x="587" y="42"/>
      <point x="616" y="73"/>
      <point x="623" y="136" type="curve"/>
      <point x="624" y="141"/>
      <point x="624" y="148"/>
      <point x="624" y="157" type="curve" smooth="yes"/>
      <point x="624" y="208"/>
      <point x="598" y="238"/>
      <point x="553" y="238" type="curve" smooth="yes"/>
    </contour>
    <contour>
      <point x="657" y="294"/>
      <point x="696" y="241"/>
      <point x="696" y="169" type="curve" smooth="yes"/>
      <point x="696" y="163"/>
      <point x="695" y="155"/>
      <point x="694" y="144" type="curve" smooth="yes"/>
      <point x="683" y="49"/>
      <point x="617" y="-15"/>
      <point x="521" y="-15" type="curve" smooth="yes"/>
      <point x="438" y="-15"/>
      <point x="395" y="43"/>
      <point x="395" y="118" type="curve" smooth="yes"/>
      <point x="395" y="128"/>
      <point x="395" y="135"/>
      <point x="396" y="140" type="curve"/>
      <point x="405" y="217"/>
      <point x="478" y="294"/>
      <point x="574" y="294" type="curve" smooth="yes"/>
    </contour>
    <contour>
      <point x="164" y="546"/>
      <point x="142" y="512"/>
      <point x="135" y="455" type="curve"/>
      <point x="134" y="450"/>
      <point x="134" y="442"/>
      <point x="134" y="432" type="curve" smooth="yes"/>
      <point x="134" y="381"/>
      <point x="156" y="348"/>
      <point x="203" y="348" type="curve" smooth="yes"/>
      <point x="252" y="348"/>
      <point x="281" y="380"/>
      <point x="288" y="444" type="curve" smooth="yes"/>
      <point x="289" y="455"/>
      <point x="290" y="462"/>
      <point x="290" y="466" type="curve" smooth="yes"/>
      <point x="290" y="515"/>
      <point x="264" y="546"/>
      <point x="220" y="546" type="curve" smooth="yes"/>
    </contour>
    <contour>
      <point x="323" y="603"/>
      <point x="362" y="549"/>
      <point x="362" y="476" type="curve" smooth="yes"/>
      <point x="362" y="471"/>
      <point x="361" y="462"/>
      <point x="360" y="450" type="curve"/>
      <point x="348" y="355"/>
      <point x="284" y="291"/>
      <point x="188" y="291" type="curve" smooth="yes"/>
      <point x="103" y="291"/>
      <point x="61" y="348"/>
      <point x="61" y="424" type="curve" smooth="yes"/>
      <point x="61" y="434"/>
      <point x="61" y="442"/>
      <point x="62" y="447" type="curve"/>
      <point x="73" y="528"/>
      <point x="136" y="603"/>
      <point x="236" y="603" type="curve" smooth="yes"/>
    </contour>
    <contour>
      <point x="581" y="595" type="line"/>
      <point x="665" y="600" type="line"/>
      <point x="165" y="-14" type="line"/>
      <point x="78" y="-19" type="line"/>
    </contour>
  </outline>
</glyph>
<glyph name="ampersand" format="1">
  <advance width="857"/>
  <unicode hex="0026"/>
  <outline>
    <contour>
      <point x="427" y="-195" type="line"/>
      <point x="471" y="-186"/>
      <point x="503" y="-167"/>
      <point x="511" y="-152" type="curve"/>
      <point x="516" y="-145"/>
      <point x="520" y="-135"/>
      <point x="521" y="-123" type="curve"/>
      <point x="521" y="-122"/>
      <point x="521" y="-121"/>
      <point x="522" y="-119" type="curve"/>
      <point x="522" y="-117"/>
      <point x="522" y="-115"/>
      <point x="522" y="-114" type="curve" smooth="yes"/>
      <point x="522" y="-93"/>
      <point x="509" y="-54"/>
      <point x="493" y="-18" type="curve"/>
      <point x="418" y="-49"/>
      <point x="353" y="-55"/>
      <point x="312" y="-55" type="curve"/>
      <point x="270" y="-53" type="line"/>
      <point x="213" y="-48"/>
      <point x="166" y="-32"/>
      <point x="127" y="-5" type="curve" smooth="yes"/>
      <point x="83" y="27"/>
      <point x="55" y="70"/>
      <point x="51" y="123" type="curve"/>
      <point x="51" y="124"/>
      <point x="51" y="127"/>
      <point x="51" y="130" type="curve"/>
      <point x="50" y="133"/>
      <point x="50" y="135"/>
      <point x="50" y="136" type="curve" smooth="yes"/>
      <point x="50" y="215"/>
      <point x="109" y="292"/>
      <point x="190" y="345" type="curve"/>
      <point x="204" y="355"/>
      <point x="223" y="367"/>
      <point x="247" y="380" type="curve"/>
      <point x="230" y="414" type="line" smooth="yes"/>
      <point x="206" y="466"/>
      <point x="193" y="503"/>
      <point x="193" y="539" type="curve" smooth="yes"/>
      <point x="193" y="540"/>
      <point x="193" y="543"/>
      <point x="194" y="546" type="curve"/>
      <point x="194" y="549"/>
      <point x="194" y="551"/>
      <point x="194" y="552" type="curve"/>
      <point x="198" y="597"/>
      <point x="217" y="629"/>
      <point x="252" y="664" type="curve" smooth="yes"/>
      <point x="297" y="709"/>
      <point x="349" y="738"/>
      <point x="406" y="750" type="curve" smooth="yes"/>
      <point x="423" y="753"/>
      <point x="436" y="754"/>
      <point x="445" y="754" type="curve" smooth="yes"/>
      <point x="450" y="754"/>
      <point x="458" y="753"/>
      <point x="470" y="752" type="curve" smooth="yes"/>
      <point x="513" y="747"/>
      <point x="551" y="718"/>
      <point x="568" y="686" type="curve" smooth="yes"/>
      <point x="578" y="667"/>
      <point x="583" y="649"/>
      <point x="584" y="631" type="curve"/>
      <point x="584" y="621" type="line" smooth="yes"/>
      <point x="584" y="576"/>
      <point x="561" y="523"/>
      <point x="528" y="486" type="curve" smooth="yes"/>
      <point x="492" y="443"/>
      <point x="445" y="409"/>
      <point x="386" y="383" type="curve"/>
      <point x="471" y="238" type="line" smooth="yes"/>
      <point x="483" y="217"/>
      <point x="501" y="189"/>
      <point x="525" y="152" type="curve" smooth="yes"/>
      <point x="549" y="115"/>
      <point x="563" y="93"/>
      <point x="568" y="85" type="curve"/>
      <point x="603" y="108"/>
      <point x="638" y="147"/>
      <point x="643" y="200" type="curve"/>
      <point x="643" y="201"/>
      <point x="643" y="204"/>
      <point x="644" y="207" type="curve"/>
      <point x="644" y="210"/>
      <point x="644" y="213"/>
      <point x="644" y="214" type="curve" smooth="yes"/>
      <point x="644" y="248"/>
      <point x="632" y="283"/>
      <point x="608" y="320" type="curve"/>
      <point x="586" y="351"/>
      <point x="562" y="375"/>
      <point x="536" y="394" type="curve"/>
      <point x="555" y="421"/>
      <point x="581" y="437"/>
      <point x="616" y="440" type="curve"/>
      <point x="626" y="440" type="line" smooth="yes"/>
      <point x="683" y="440"/>
      <point x="744" y="394"/>
      <point x="752" y="318" type="curve"/>
      <point x="753" y="313"/>
      <point x="753" y="305"/>
      <point x="753" y="294" type="curve" smooth="yes"/>
      <point x="753" y="215"/>
      <point x="706" y="118"/>
      <point x="595" y="39" type="curve"/>
      <point x="598" y="33" type="line" smooth="yes"/>
      <point x="623" y="-15"/>
      <point x="635" y="-57"/>
      <point x="635" y="-92" type="curve" smooth="yes"/>
      <point x="635" y="-99"/>
      <point x="635" y="-105"/>
      <point x="634" y="-109" type="curve"/>
      <point x="630" y="-153"/>
      <point x="603" y="-193"/>
      <point x="564" y="-209" type="curve" smooth="yes"/>
      <point x="541" y="-218"/>
      <point x="516" y="-222"/>
      <point x="491" y="-222" type="curve"/>
      <point x="440" y="-217" type="line"/>
    </contour>
    <contour>
      <point x="417" y="454"/>
      <point x="460" y="508"/>
      <point x="469" y="568" type="curve"/>
      <point x="470" y="579"/>
      <point x="471" y="587"/>
      <point x="471" y="593" type="curve" smooth="yes"/>
      <point x="471" y="606"/>
      <point x="470" y="616"/>
      <point x="467" y="625" type="curve"/>
      <point x="456" y="665"/>
      <point x="423" y="696"/>
      <point x="382" y="696" type="curve" smooth="yes"/>
      <point x="342" y="696"/>
      <point x="307" y="661"/>
      <point x="300" y="612" type="curve"/>
      <point x="299" y="608"/>
      <point x="299" y="602"/>
      <point x="299" y="594" type="curve" smooth="yes"/>
      <point x="299" y="581"/>
      <point x="301" y="565"/>
      <point x="306" y="546" type="curve" smooth="yes"/>
      <point x="314" y="513"/>
      <point x="333" y="472"/>
      <point x="362" y="423" type="curve"/>
    </contour>
    <contour>
      <point x="253" y="321"/>
      <point x="240" y="309"/>
      <point x="232" y="300" type="curve" smooth="yes"/>
      <point x="207" y="271"/>
      <point x="191" y="239"/>
      <point x="184" y="204" type="curve" smooth="yes"/>
      <point x="182" y="194"/>
      <point x="181" y="183"/>
      <point x="181" y="172" type="curve" smooth="yes"/>
      <point x="181" y="116"/>
      <point x="208" y="55"/>
      <point x="293" y="28" type="curve" smooth="yes"/>
      <point x="313" y="21"/>
      <point x="336" y="17"/>
      <point x="363" y="17" type="curve" smooth="yes"/>
      <point x="398" y="17"/>
      <point x="439" y="24"/>
      <point x="468" y="35" type="curve"/>
      <point x="448" y="74"/>
      <point x="425" y="111"/>
      <point x="400" y="148" type="curve" smooth="yes"/>
      <point x="325" y="253" type="line" smooth="yes"/>
      <point x="312" y="271"/>
      <point x="295" y="299"/>
      <point x="272" y="336" type="curve"/>
    </contour>
  </outline>
</glyph>
<glyph name="quotesingle" format="1">
  <advance width="122"/>
  <unicode hex="0027"/>
  <outline>
    <contour>
      <point x="5" y="808" type="line"/>
      <point x="10" y="809"/>
      <point x="18" y="809"/>
      <point x="28" y="809" type="curve" smooth="yes"/>
      <point x="59" y="809"/>
      <point x="89" y="805"/>
      <point x="118" y="798" type="curve"/>
      <point x="66" y="560" type="line"/>
      <point x="51" y="555"/>
      <point x="36" y="553"/>
      <point x="19" y="553" type="curve" smooth="yes"/>
      <point x="6" y="553" type="line"/>
    </contour>
  </outline>
</glyph>
<glyph name="parenleft" format="1">
  <advance width="313"/>
  <unicode hex="0028"/>
  <outline>
    <contour>
      <point x="155" y="-234" type="line"/>
      <point x="55" y="-121"/>
      <point x="5" y="16"/>
      <point x="5" y="177" type="curve" smooth="yes"/>
      <point x="5" y="208"/>
      <point x="7" y="242"/>
      <point x="11" y="278" type="curve" smooth="yes"/>
      <point x="26" y="401"/>
      <point x="70" y="518"/>
      <point x="110" y="586" type="curve" smooth="yes"/>
      <point x="150" y="654"/>
      <point x="215" y="725"/>
      <point x="241" y="748" type="curve" smooth="yes"/>
      <point x="254" y="759"/>
      <point x="268" y="771"/>
      <point x="283" y="782" type="curve"/>
      <point x="309" y="741" type="line"/>
      <point x="210" y="631"/>
      <point x="148" y="479"/>
      <point x="124" y="284" type="curve" smooth="yes"/>
      <point x="120" y="251"/>
      <point x="117" y="215"/>
      <point x="116" y="174" type="curve" smooth="yes"/>
      <point x="117" y="44"/>
      <point x="146" y="-80"/>
      <point x="203" y="-198" type="curve"/>
    </contour>
  </outline>
</glyph>
<glyph name="parenright" format="1">
  <advance width="325"/>
  <unicode hex="0029"/>
  <outline>
    <contour>
      <point x="5" y="-198" type="line"/>
      <point x="116" y="-47"/>
      <point x="182" y="114"/>
      <point x="203" y="284" type="curve" smooth="yes"/>
      <point x="209" y="335"/>
      <point x="212" y="381"/>
      <point x="212" y="423" type="curve" smooth="yes"/>
      <point x="212" y="546"/>
      <point x="185" y="652"/>
      <point x="130" y="741" type="curve"/>
      <point x="166" y="782" type="line"/>
      <point x="269" y="686"/>
      <point x="320" y="553"/>
      <point x="320" y="384" type="curve" smooth="yes"/>
      <point x="320" y="313"/>
      <point x="311" y="216"/>
      <point x="272" y="105" type="curve" smooth="yes"/>
      <point x="232" y="-7"/>
      <point x="195" y="-67"/>
      <point x="141" y="-133" type="curve" smooth="yes"/>
      <point x="87" y="-199"/>
      <point x="71" y="-211"/>
      <point x="43" y="-234" type="curve"/>
    </contour>
  </outline>
</glyph>
<glyph name="asterisk" format="1">
  <advance width="454"/>
  <unicode hex="002A"/>
  <outline>
    <contour>
      <point x="431" y="699" type="line"/>
      <point x="450" y="616" type="line"/>
      <point x="274" y="576" type="line"/>
      <point x="253" y="616" type="line"/>
    </contour>
    <contour>
      <point x="182" y="805" type="line"/>
      <point x="268" y="796" type="line"/>
      <point x="251" y="618" type="line"/>
      <point x="207" y="611" type="line"/>
    </contour>
    <contour>
      <point x="5" y="600" type="line"/>
      <point x="40" y="680" type="line"/>
      <point x="205" y="609" type="line"/>
      <point x="198" y="564" type="line"/>
    </contour>
    <contour>
      <point x="143" y="369" type="line"/>
      <point x="80" y="426" type="line"/>
      <point x="198" y="562" type="line"/>
      <point x="238" y="542" type="line"/>
    </contour>
    <contour>
      <point x="408" y="430" type="line"/>
      <point x="334" y="388" type="line"/>
      <point x="242" y="542" type="line"/>
      <point x="274" y="574" type="line"/>
    </contour>
  </outline>
</glyph>
<glyph name="plus" format="1">
  <advance width="359"/>
  <unicode hex="002B"/>
  <outline>
    <contour>
      <point x="211" y="255" type="line"/>
      <point x="194" y="108" type="line"/>
      <point x="126" y="115" type="line"/>
      <point x="143" y="255" type="line"/>
      <point x="5" y="255" type="line"/>
      <point x="20" y="318" type="line"/>
      <point x="150" y="318" type="line"/>
      <point x="168" y="462" type="line"/>
      <point x="234" y="454" type="line"/>
      <point x="218" y="318" type="line"/>
      <point x="356" y="318" type="line"/>
      <point x="340" y="255" type="line"/>
    </contour>
  </outline>
</glyph>
<glyph name="comma" format="1">
  <advance width="214"/>
  <unicode hex="002C"/>
  <outline>
    <contour>
      <point x="52" y="120"/>
      <point x="93" y="140"/>
      <point x="122" y="140" type="curve" smooth="yes"/>
      <point x="131" y="140" type="line"/>
      <point x="166" y="136"/>
      <point x="188" y="111"/>
      <point x="200" y="79" type="curve" smooth="yes"/>
      <point x="206" y="64"/>
      <point x="209" y="48"/>
      <point x="209" y="29" type="curve" smooth="yes"/>
      <point x="209" y="19"/>
      <point x="208" y="9"/>
      <point x="206" y="0" type="curve" smooth="yes"/>
      <point x="195" y="-53"/>
      <point x="164" y="-93"/>
      <point x="117" y="-129" type="curve" smooth="yes"/>
      <point x="90" y="-151"/>
      <point x="60" y="-170"/>
      <point x="25" y="-187" type="curve"/>
      <point x="5" y="-155" type="line"/>
      <point x="26" y="-144"/>
      <point x="65" y="-118"/>
      <point x="84" y="-89" type="curve" smooth="yes"/>
      <point x="101" y="-64"/>
      <point x="106" y="-37"/>
      <point x="106" y="-24" type="curve" smooth="yes"/>
      <point x="106" y="-21"/>
      <point x="105" y="-15"/>
      <point x="104" y="-7" type="curve"/>
      <point x="96" y="29"/>
      <point x="66" y="57"/>
      <point x="39" y="72" type="curve"/>
    </contour>
  </outline>
</glyph>
<glyph name="hyphen" format="1">
  <advance width="345"/>
  <unicode hex="002D"/>
  <outline>
    <contour>
      <point x="55" y="302" type="line"/>
      <point x="302" y="313" type="line"/>
      <point x="295" y="252" type="line"/>
      <point x="48" y="241" type="line"/>
    </contour>
  </outline>
</glyph>
<glyph name="period" format="1">
  <advance width="147"/>
  <unicode hex="002E"/>
  <outline>
    <contour>
      <point x="107" y="132"/>
      <point x="117" y="126"/>
      <point x="130" y="110" type="curve"/>
      <point x="136" y="102"/>
      <point x="140" y="92"/>
      <point x="142" y="81" type="curve"/>
      <point x="143" y="79"/>
      <point x="143" y="76"/>
      <point x="143" y="71" type="curve" smooth="yes"/>
      <point x="143" y="70"/>
      <point x="142" y="63"/>
      <point x="140" y="49" type="curve"/>
      <point x="132" y="12"/>
      <point x="101" y="-22"/>
      <point x="62" y="-22" type="curve"/>
      <point x="26" y="-19"/>
      <point x="10" y="8"/>
      <point x="6" y="28" type="curve"/>
      <point x="5" y="35"/>
      <point x="4" y="40"/>
      <point x="4" y="44" type="curve" smooth="yes"/>
      <point x="4" y="48"/>
      <point x="5" y="53"/>
      <point x="6" y="60" type="curve"/>
      <point x="14" y="95"/>
      <point x="44" y="129"/>
      <point x="80" y="132" type="curve"/>
    </contour>
  </outline>
</glyph>
<glyph name="slash" format="1">
  <advance width="380"/>
  <unicode hex="002F"/>
  <outline>
    <contour>
      <point x="293" y="769" type="line"/>
      <point x="376" y="774" type="line"/>
      <point x="86" y="-221" type="line"/>
      <point x="5" y="-227" type="line"/>
    </contour>
  </outline>
</glyph>
<glyph name="zero" format="1">
  <advance width="526"/>
  <unicode hex="0030"/>
  <outline>
    <contour>
      <point x="168" y="627"/>
      <point x="137" y="586"/>
      <point x="122" y="534" type="curve" smooth="yes"/>
      <point x="110" y="495"/>
      <point x="104" y="452"/>
      <point x="104" y="403" type="curve" smooth="yes"/>
      <point x="104" y="319"/>
      <point x="119" y="240"/>
      <point x="162" y="155" type="curve" smooth="yes"/>
      <point x="185" y="110"/>
      <point x="215" y="78"/>
      <point x="254" y="66" type="curve" smooth="yes"/>
      <point x="263" y="63"/>
      <point x="273" y="62"/>
      <point x="286" y="62" type="curve" smooth="yes"/>
      <point x="299" y="62"/>
      <point x="309" y="63"/>
      <point x="318" y="66" type="curve" smooth="yes"/>
      <point x="369" y="83"/>
      <point x="391" y="125"/>
      <point x="406" y="184" type="curve" smooth="yes"/>
      <point x="418" y="232"/>
      <point x="424" y="277"/>
      <point x="424" y="320" type="curve" smooth="yes"/>
      <point x="424" y="364"/>
      <point x="417" y="435"/>
      <point x="385" y="508" type="curve" smooth="yes"/>
      <point x="352" y="583"/>
      <point x="316" y="617"/>
      <point x="280" y="632" type="curve"/>
      <point x="266" y="637"/>
      <point x="253" y="640"/>
      <point x="240" y="640" type="curve" smooth="yes"/>
      <point x="236" y="640"/>
      <point x="229" y="639"/>
      <point x="220" y="638" type="curve"/>
    </contour>
    <contour>
      <point x="301" y="716" type="line"/>
      <point x="384" y="712"/>
      <point x="446" y="652"/>
      <point x="482" y="576" type="curve" smooth="yes"/>
      <point x="509" y="519"/>
      <point x="522" y="454"/>
      <point x="522" y="382" type="curve" smooth="yes"/>
      <point x="522" y="371"/>
      <point x="521" y="356"/>
      <point x="520" y="336" type="curve" smooth="yes"/>
      <point x="513" y="251"/>
      <point x="489" y="176"/>
      <point x="446" y="112" type="curve" smooth="yes"/>
      <point x="401" y="45"/>
      <point x="338" y="-3"/>
      <point x="270" y="-12" type="curve"/>
      <point x="258" y="-13"/>
      <point x="249" y="-14"/>
      <point x="243" y="-14" type="curve" smooth="yes"/>
      <point x="175" y="-14"/>
      <point x="95" y="19"/>
      <point x="46" y="122" type="curve" smooth="yes"/>
      <point x="26" y="163"/>
      <point x="13" y="213"/>
      <point x="8" y="270" type="curve" smooth="yes"/>
      <point x="6" y="288"/>
      <point x="5" y="306"/>
      <point x="5" y="325" type="curve" smooth="yes"/>
      <point x="5" y="362"/>
      <point x="9" y="398"/>
      <point x="17" y="434" type="curve" smooth="yes"/>
      <point x="34" y="507"/>
      <point x="66" y="570"/>
      <point x="113" y="625" type="curve" smooth="yes"/>
      <point x="169" y="689"/>
      <point x="223" y="716"/>
      <point x="291" y="716" type="curve" smooth="yes"/>
    </contour>
  </outline>
</glyph>
<glyph name="one" format="1">
  <advance width="329"/>
  <unicode hex="0031"/>
  <outline>
    <contour>
      <point x="127" y="-9" type="line"/>
      <point x="170" y="244"/>
      <point x="176" y="271"/>
      <point x="225" y="640" type="curve"/>
      <point x="220" y="638" type="line"/>
      <point x="207" y="601"/>
      <point x="189" y="563"/>
      <point x="164" y="539" type="curve" smooth="yes"/>
      <point x="148" y="524"/>
      <point x="130" y="514"/>
      <point x="111" y="508" type="curve"/>
      <point x="99" y="505"/>
      <point x="90" y="504"/>
      <point x="83" y="504" type="curve" smooth="yes"/>
      <point x="62" y="504"/>
      <point x="29" y="513"/>
      <point x="14" y="542" type="curve" smooth="yes"/>
      <point x="8" y="553"/>
      <point x="5" y="565"/>
      <point x="5" y="578" type="curve" smooth="yes"/>
      <point x="5" y="581"/>
      <point x="6" y="586"/>
      <point x="7" y="593" type="curve"/>
      <point x="71" y="597"/>
      <point x="129" y="616"/>
      <point x="182" y="651" type="curve" smooth="yes"/>
      <point x="204" y="666"/>
      <point x="225" y="683"/>
      <point x="246" y="704" type="curve"/>
      <point x="324" y="713" type="line"/>
      <point x="296" y="381" type="line"/>
      <point x="263" y="-5" type="line"/>
    </contour>
  </outline>
</glyph>
<glyph name="two" format="1">
  <advance width="527"/>
  <unicode hex="0032"/>
  <outline>
    <contour>
      <point x="5" y="3" type="line"/>
      <point x="12" y="62" type="line"/>
      <point x="124" y="130" type="line" smooth="yes"/>
      <point x="263" y="215"/>
      <point x="340" y="273"/>
      <point x="381" y="380" type="curve" smooth="yes"/>
      <point x="394" y="411"/>
      <point x="401" y="447"/>
      <point x="402" y="486" type="curve" smooth="yes"/>
      <point x="402" y="493" type="line" smooth="yes"/>
      <point x="402" y="533"/>
      <point x="394" y="569"/>
      <point x="378" y="600" type="curve" smooth="yes"/>
      <point x="363" y="628"/>
      <point x="338" y="655"/>
      <point x="305" y="666" type="curve"/>
      <point x="294" y="669"/>
      <point x="283" y="671"/>
      <point x="273" y="671" type="curve" smooth="yes"/>
      <point x="234" y="671"/>
      <point x="192" y="647"/>
      <point x="172" y="594" type="curve" smooth="yes"/>
      <point x="167" y="580"/>
      <point x="164" y="564"/>
      <point x="164" y="547" type="curve" smooth="yes"/>
      <point x="164" y="538"/>
      <point x="164" y="531"/>
      <point x="165" y="526" type="curve"/>
      <point x="170" y="482"/>
      <point x="193" y="443"/>
      <point x="236" y="410" type="curve"/>
      <point x="221" y="391"/>
      <point x="201" y="379"/>
      <point x="178" y="376" type="curve"/>
      <point x="175" y="375"/>
      <point x="171" y="375"/>
      <point x="165" y="375" type="curve" smooth="yes"/>
      <point x="125" y="375"/>
      <point x="95" y="399"/>
      <point x="80" y="434" type="curve" smooth="yes"/>
      <point x="73" y="449"/>
      <point x="70" y="467"/>
      <point x="70" y="488" type="curve" smooth="yes"/>
      <point x="70" y="551"/>
      <point x="121" y="640"/>
      <point x="188" y="684" type="curve" smooth="yes"/>
      <point x="230" y="712"/>
      <point x="275" y="727"/>
      <point x="323" y="728" type="curve" smooth="yes"/>
      <point x="331" y="728" type="line" smooth="yes"/>
      <point x="376" y="728"/>
      <point x="425" y="716"/>
      <point x="464" y="676" type="curve" smooth="yes"/>
      <point x="513" y="627"/>
      <point x="522" y="563"/>
      <point x="522" y="522" type="curve" smooth="yes"/>
      <point x="522" y="431"/>
      <point x="478" y="345"/>
      <point x="389" y="262" type="curve" smooth="yes"/>
      <point x="351" y="227"/>
      <point x="291" y="181"/>
      <point x="208" y="124" type="curve" smooth="yes"/>
      <point x="138" y="76" type="line"/>
      <point x="138" y="70" type="line"/>
      <point x="262" y="75" type="line"/>
      <point x="271" y="75"/>
      <point x="292" y="76"/>
      <point x="307" y="77" type="curve"/>
      <point x="314" y="77"/>
      <point x="321" y="77"/>
      <point x="328" y="78" type="curve"/>
      <point x="377" y="82"/>
      <point x="405" y="103"/>
      <point x="424" y="131" type="curve" smooth="yes"/>
      <point x="433" y="144"/>
      <point x="442" y="161"/>
      <point x="451" y="183" type="curve" smooth="yes"/>
      <point x="471" y="232" type="line"/>
      <point x="517" y="216" type="line"/>
      <point x="515" y="199"/>
      <point x="511" y="173"/>
      <point x="506" y="138" type="curve" smooth="yes"/>
      <point x="497" y="83"/>
      <point x="487" y="34"/>
      <point x="474" y="-10" type="curve"/>
      <point x="378" y="-10" type="line" smooth="yes"/>
      <point x="296" y="-9"/>
      <point x="205" y="-7"/>
      <point x="106" y="-2" type="curve" smooth="yes"/>
    </contour>
  </outline>
</glyph>
<glyph name="three" format="1">
  <advance width="486"/>
  <unicode hex="0033"/>
  <outline>
    <contour>
      <point x="194" y="364" type="line"/>
      <point x="256" y="395" type="line" smooth="yes"/>
      <point x="296" y="414"/>
      <point x="312" y="433"/>
      <point x="340" y="470" type="curve" smooth="yes"/>
      <point x="359" y="497"/>
      <point x="373" y="532"/>
      <point x="373" y="565" type="curve" smooth="yes"/>
      <point x="373" y="566"/>
      <point x="373" y="569"/>
      <point x="373" y="572" type="curve"/>
      <point x="372" y="575"/>
      <point x="372" y="577"/>
      <point x="372" y="578" type="curve"/>
      <point x="368" y="625"/>
      <point x="349" y="659"/>
      <point x="314" y="672" type="curve"/>
      <point x="302" y="677"/>
      <point x="289" y="679"/>
      <point x="275" y="679" type="curve" smooth="yes"/>
      <point x="267" y="679"/>
      <point x="261" y="679"/>
      <point x="258" y="678" type="curve"/>
      <point x="214" y="671"/>
      <point x="184" y="636"/>
      <point x="184" y="597" type="curve" smooth="yes"/>
      <point x="184" y="562"/>
      <point x="198" y="541"/>
      <point x="230" y="504" type="curve"/>
      <point x="219" y="483"/>
      <point x="201" y="471"/>
      <point x="176" y="468" type="curve"/>
      <point x="175" y="468"/>
      <point x="173" y="468"/>
      <point x="172" y="468" type="curve"/>
      <point x="171" y="467"/>
      <point x="169" y="467"/>
      <point x="168" y="467" type="curve" smooth="yes"/>
      <point x="129" y="467"/>
      <point x="97" y="499"/>
      <point x="94" y="544" type="curve"/>
      <point x="94" y="549" type="line" smooth="yes"/>
      <point x="94" y="584"/>
      <point x="112" y="626"/>
      <point x="152" y="662" type="curve" smooth="yes"/>
      <point x="195" y="701"/>
      <point x="253" y="729"/>
      <point x="330" y="729" type="curve" smooth="yes"/>
      <point x="370" y="729"/>
      <point x="414" y="718"/>
      <point x="443" y="689" type="curve"/>
      <point x="470" y="664"/>
      <point x="482" y="622"/>
      <point x="482" y="590" type="curve" smooth="yes"/>
      <point x="482" y="529"/>
      <point x="448" y="472"/>
      <point x="400" y="436" type="curve"/>
      <point x="340" y="400" type="line"/>
      <point x="316" y="386" type="line"/>
      <point x="316" y="384" type="line"/>
      <point x="322" y="384" type="line" smooth="yes"/>
      <point x="373" y="384"/>
      <point x="417" y="359"/>
      <point x="445" y="319" type="curve" smooth="yes"/>
      <point x="463" y="294"/>
      <point x="472" y="264"/>
      <point x="472" y="230" type="curve" smooth="yes"/>
      <point x="472" y="220" type="line"/>
      <point x="470" y="186"/>
      <point x="460" y="153"/>
      <point x="441" y="122" type="curve" smooth="yes"/>
      <point x="376" y="15"/>
      <point x="249" y="-17"/>
      <point x="172" y="-17" type="curve" smooth="yes"/>
      <point x="140" y="-17"/>
      <point x="98" y="-13"/>
      <point x="57" y="14" type="curve" smooth="yes"/>
      <point x="16" y="41"/>
      <point x="5" y="79"/>
      <point x="5" y="103" type="curve" smooth="yes"/>
      <point x="5" y="122"/>
      <point x="9" y="139"/>
      <point x="18" y="154" type="curve" smooth="yes"/>
      <point x="35" y="183"/>
      <point x="61" y="200"/>
      <point x="96" y="205" type="curve"/>
      <point x="100" y="206"/>
      <point x="107" y="206"/>
      <point x="116" y="206" type="curve"/>
      <point x="113" y="190"/>
      <point x="112" y="177"/>
      <point x="112" y="168" type="curve" smooth="yes"/>
      <point x="112" y="158"/>
      <point x="113" y="148"/>
      <point x="115" y="138" type="curve"/>
      <point x="122" y="91"/>
      <point x="142" y="65"/>
      <point x="170" y="52" type="curve" smooth="yes"/>
      <point x="186" y="44"/>
      <point x="200" y="40"/>
      <point x="212" y="39" type="curve"/>
      <point x="221" y="39" type="line" smooth="yes"/>
      <point x="290" y="39"/>
      <point x="351" y="97"/>
      <point x="358" y="172" type="curve"/>
      <point x="358" y="173"/>
      <point x="358" y="175"/>
      <point x="359" y="178" type="curve"/>
      <point x="359" y="181"/>
      <point x="359" y="183"/>
      <point x="359" y="184" type="curve" smooth="yes"/>
      <point x="359" y="249"/>
      <point x="319" y="303"/>
      <point x="254" y="323" type="curve"/>
      <point x="239" y="327"/>
      <point x="224" y="329"/>
      <point x="209" y="329" type="curve" smooth="yes"/>
      <point x="200" y="329"/>
      <point x="194" y="329"/>
      <point x="189" y="328" type="curve"/>
    </contour>
  </outline>
</glyph>
<glyph name="four" format="1">
  <advance width="525"/>
  <unicode hex="0034"/>
  <outline>
    <contour>
      <point x="365" y="480"/>
      <point x="301" y="412"/>
      <point x="212" y="329" type="curve" smooth="yes"/>
      <point x="95" y="218" type="line"/>
      <point x="308" y="223" type="line"/>
      <point x="322" y="362" type="line"/>
      <point x="426" y="434" type="line"/>
      <point x="399" y="226" type="line"/>
      <point x="520" y="228" type="line"/>
      <point x="499" y="144" type="line"/>
      <point x="394" y="149" type="line"/>
      <point x="382" y="9" type="line"/>
      <point x="284" y="-7" type="line"/>
      <point x="303" y="152" type="line"/>
      <point x="14" y="165" type="line"/>
      <point x="5" y="200" type="line"/>
      <point x="122" y="315" type="line" smooth="yes"/>
      <point x="215" y="408"/>
      <point x="300" y="507"/>
      <point x="332" y="615" type="curve" smooth="yes"/>
      <point x="343" y="649"/>
      <point x="348" y="688"/>
      <point x="348" y="732" type="curve"/>
      <point x="353" y="733"/>
      <point x="360" y="734"/>
      <point x="369" y="734" type="curve" smooth="yes"/>
      <point x="413" y="734"/>
      <point x="439" y="708"/>
      <point x="450" y="677" type="curve"/>
      <point x="453" y="666"/>
      <point x="455" y="656"/>
      <point x="455" y="647" type="curve" smooth="yes"/>
      <point x="455" y="640"/>
      <point x="455" y="635"/>
      <point x="454" y="632" type="curve"/>
      <point x="450" y="592"/>
      <point x="426" y="556"/>
      <point x="406" y="531" type="curve" smooth="yes"/>
    </contour>
  </outline>
</glyph>
<glyph name="five" format="1">
  <advance width="505"/>
  <unicode hex="0035"/>
  <outline>
    <contour>
      <point x="109" y="383" type="line"/>
      <point x="193" y="689" type="line"/>
      <point x="208" y="688"/>
      <point x="229" y="688"/>
      <point x="258" y="688" type="curve" smooth="yes"/>
      <point x="330" y="688"/>
      <point x="389" y="693"/>
      <point x="434" y="702" type="curve" smooth="yes"/>
      <point x="454" y="706"/>
      <point x="474" y="711"/>
      <point x="494" y="717" type="curve"/>
      <point x="498" y="705"/>
      <point x="500" y="693"/>
      <point x="500" y="682" type="curve" smooth="yes"/>
      <point x="500" y="675" type="line"/>
      <point x="497" y="640"/>
      <point x="480" y="609"/>
      <point x="437" y="596" type="curve" smooth="yes"/>
      <point x="419" y="591"/>
      <point x="399" y="588"/>
      <point x="376" y="588" type="curve" smooth="yes"/>
      <point x="341" y="588"/>
      <point x="305" y="590"/>
      <point x="269" y="594" type="curve" smooth="yes"/>
      <point x="244" y="597"/>
      <point x="225" y="599"/>
      <point x="212" y="601" type="curve"/>
      <point x="179" y="464" type="line"/>
      <point x="184" y="462" type="line"/>
      <point x="186" y="462"/>
      <point x="189" y="462"/>
      <point x="193" y="463" type="curve"/>
      <point x="197" y="463"/>
      <point x="200" y="463"/>
      <point x="202" y="463" type="curve" smooth="yes"/>
      <point x="253" y="463"/>
      <point x="322" y="452"/>
      <point x="382" y="396" type="curve" smooth="yes"/>
      <point x="438" y="341"/>
      <point x="453" y="278"/>
      <point x="453" y="235" type="curve" smooth="yes"/>
      <point x="453" y="225"/>
      <point x="452" y="211"/>
      <point x="449" y="192" type="curve" smooth="yes"/>
      <point x="434" y="103"/>
      <point x="376" y="26"/>
      <point x="284" y="-3" type="curve"/>
      <point x="254" y="-14"/>
      <point x="222" y="-19"/>
      <point x="188" y="-19" type="curve" smooth="yes"/>
      <point x="177" y="-19"/>
      <point x="168" y="-19"/>
      <point x="163" y="-18" type="curve"/>
      <point x="92" y="-14"/>
      <point x="25" y="19"/>
      <point x="9" y="84" type="curve" smooth="yes"/>
      <point x="6" y="97"/>
      <point x="5" y="107"/>
      <point x="5" y="114" type="curve" smooth="yes"/>
      <point x="5" y="119"/>
      <point x="6" y="125"/>
      <point x="7" y="133" type="curve"/>
      <point x="14" y="165"/>
      <point x="41" y="210"/>
      <point x="96" y="214" type="curve"/>
      <point x="97" y="203"/>
      <point x="101" y="187"/>
      <point x="106" y="166" type="curve"/>
      <point x="125" y="102"/>
      <point x="160" y="61"/>
      <point x="216" y="50" type="curve"/>
      <point x="227" y="49"/>
      <point x="234" y="48"/>
      <point x="239" y="48" type="curve" smooth="yes"/>
      <point x="283" y="48"/>
      <point x="337" y="72"/>
      <point x="353" y="128" type="curve"/>
      <point x="356" y="141"/>
      <point x="358" y="154"/>
      <point x="358" y="166" type="curve" smooth="yes"/>
      <point x="358" y="174"/>
      <point x="358" y="180"/>
      <point x="357" y="184" type="curve"/>
      <point x="356" y="197"/>
      <point x="351" y="215"/>
      <point x="342" y="237" type="curve" smooth="yes"/>
      <point x="313" y="310"/>
      <point x="253" y="354"/>
      <point x="184" y="366" type="curve" smooth="yes"/>
      <point x="164" y="370"/>
      <point x="144" y="372"/>
      <point x="123" y="372" type="curve"/>
    </contour>
  </outline>
</glyph>
<glyph name="six" format="1">
  <advance width="481"/>
  <unicode hex="0036"/>
  <outline>
    <contour>
      <point x="14" y="377"/>
      <point x="61" y="486"/>
      <point x="106" y="550" type="curve" smooth="yes"/>
      <point x="145" y="605"/>
      <point x="191" y="649"/>
      <point x="244" y="682" type="curve" smooth="yes"/>
      <point x="288" y="709"/>
      <point x="325" y="720"/>
      <point x="358" y="720" type="curve" smooth="yes"/>
      <point x="363" y="720"/>
      <point x="371" y="719"/>
      <point x="380" y="718" type="curve" smooth="yes"/>
      <point x="424" y="713"/>
      <point x="463" y="680"/>
      <point x="474" y="636" type="curve"/>
      <point x="475" y="631"/>
      <point x="476" y="624"/>
      <point x="476" y="615" type="curve" smooth="yes"/>
      <point x="476" y="583"/>
      <point x="461" y="544"/>
      <point x="418" y="527" type="curve"/>
      <point x="397" y="580"/>
      <point x="371" y="605"/>
      <point x="347" y="620" type="curve" smooth="yes"/>
      <point x="332" y="629"/>
      <point x="318" y="634"/>
      <point x="305" y="636" type="curve"/>
      <point x="295" y="636" type="line" smooth="yes"/>
      <point x="259" y="636"/>
      <point x="228" y="619"/>
      <point x="200" y="582" type="curve" smooth="yes"/>
      <point x="175" y="548"/>
      <point x="155" y="504"/>
      <point x="139" y="451" type="curve" smooth="yes"/>
      <point x="130" y="420"/>
      <point x="123" y="394"/>
      <point x="120" y="373" type="curve"/>
      <point x="157" y="422"/>
      <point x="223" y="444"/>
      <point x="278" y="444" type="curve"/>
      <point x="345" y="441"/>
      <point x="392" y="409"/>
      <point x="417" y="366" type="curve" smooth="yes"/>
      <point x="429" y="346"/>
      <point x="437" y="322"/>
      <point x="440" y="294" type="curve" smooth="yes"/>
      <point x="441" y="281"/>
      <point x="442" y="271"/>
      <point x="442" y="264" type="curve" smooth="yes"/>
      <point x="442" y="200"/>
      <point x="412" y="112"/>
      <point x="352" y="56" type="curve" smooth="yes"/>
      <point x="300" y="9"/>
      <point x="248" y="-10"/>
      <point x="196" y="-10" type="curve" smooth="yes"/>
      <point x="187" y="-10"/>
      <point x="181" y="-10"/>
      <point x="176" y="-9" type="curve"/>
      <point x="113" y="-4"/>
      <point x="61" y="31"/>
      <point x="28" y="98" type="curve" smooth="yes"/>
      <point x="13" y="131"/>
      <point x="5" y="169"/>
      <point x="5" y="213" type="curve" smooth="yes"/>
      <point x="5" y="228"/>
      <point x="5" y="239"/>
      <point x="6" y="246" type="curve"/>
    </contour>
    <contour>
      <point x="112" y="307"/>
      <point x="111" y="284"/>
      <point x="111" y="261" type="curve" smooth="yes"/>
      <point x="111" y="240" type="line"/>
      <point x="114" y="172"/>
      <point x="125" y="115"/>
      <point x="156" y="80" type="curve" smooth="yes"/>
      <point x="180" y="52"/>
      <point x="205" y="43"/>
      <point x="226" y="43" type="curve" smooth="yes"/>
      <point x="227" y="43"/>
      <point x="228" y="43"/>
      <point x="231" y="44" type="curve"/>
      <point x="233" y="44"/>
      <point x="235" y="44"/>
      <point x="236" y="44" type="curve"/>
      <point x="272" y="48"/>
      <point x="299" y="78"/>
      <point x="312" y="109" type="curve" smooth="yes"/>
      <point x="321" y="130"/>
      <point x="328" y="157"/>
      <point x="332" y="192" type="curve" smooth="yes"/>
      <point x="334" y="207"/>
      <point x="335" y="222"/>
      <point x="335" y="237" type="curve" smooth="yes"/>
      <point x="335" y="264"/>
      <point x="334" y="285"/>
      <point x="318" y="318" type="curve"/>
      <point x="313" y="330"/>
      <point x="304" y="341"/>
      <point x="291" y="350" type="curve"/>
      <point x="272" y="365"/>
      <point x="249" y="372"/>
      <point x="220" y="372" type="curve" smooth="yes"/>
      <point x="199" y="372"/>
      <point x="180" y="369"/>
      <point x="162" y="363" type="curve" smooth="yes"/>
      <point x="141" y="356"/>
      <point x="121" y="342"/>
      <point x="114" y="330" type="curve"/>
    </contour>
  </outline>
</glyph>
<glyph name="seven" format="1">
  <advance width="519"/>
  <unicode hex="0037"/>
  <outline>
    <contour>
      <point x="51" y="513" type="line"/>
      <point x="5" y="526" type="line"/>
      <point x="26" y="706" type="line"/>
      <point x="49" y="708"/>
      <point x="82" y="710"/>
      <point x="124" y="713" type="curve" smooth="yes"/>
      <point x="187" y="716"/>
      <point x="244" y="718"/>
      <point x="295" y="718" type="curve"/>
      <point x="514" y="710" type="line"/>
      <point x="512" y="674" type="line"/>
      <point x="368" y="502" type="line" smooth="yes"/>
      <point x="263" y="378"/>
      <point x="218" y="279"/>
      <point x="218" y="184" type="curve" smooth="yes"/>
      <point x="218" y="177"/>
      <point x="219" y="167"/>
      <point x="220" y="154" type="curve"/>
      <point x="226" y="107"/>
      <point x="244" y="65"/>
      <point x="275" y="30" type="curve"/>
      <point x="264" y="15"/>
      <point x="249" y="5"/>
      <point x="228" y="-2" type="curve"/>
      <point x="221" y="-5"/>
      <point x="212" y="-6"/>
      <point x="201" y="-6" type="curve" smooth="yes"/>
      <point x="192" y="-6"/>
      <point x="181" y="-4"/>
      <point x="170" y="-1" type="curve"/>
      <point x="133" y="11"/>
      <point x="101" y="50"/>
      <point x="94" y="101" type="curve"/>
      <point x="93" y="113"/>
      <point x="92" y="122"/>
      <point x="92" y="127" type="curve" smooth="yes"/>
      <point x="92" y="164"/>
      <point x="96" y="187"/>
      <point x="132" y="264" type="curve"/>
      <point x="159" y="316"/>
      <point x="201" y="380"/>
      <point x="260" y="456" type="curve" smooth="yes"/>
      <point x="396" y="632" type="line"/>
      <point x="324" y="630"/>
      <point x="252" y="626"/>
      <point x="180" y="620" type="curve" smooth="yes"/>
      <point x="143" y="617"/>
      <point x="113" y="615"/>
      <point x="92" y="612" type="curve"/>
    </contour>
  </outline>
</glyph>
<glyph name="eight" format="1">
  <advance width="452"/>
  <unicode hex="0038"/>
  <outline>
    <contour>
      <point x="142" y="291"/>
      <point x="113" y="229"/>
      <point x="112" y="176" type="curve" smooth="yes"/>
      <point x="112" y="166" type="line" smooth="yes"/>
      <point x="112" y="109"/>
      <point x="134" y="75"/>
      <point x="166" y="55" type="curve" smooth="yes"/>
      <point x="183" y="44"/>
      <point x="200" y="39"/>
      <point x="217" y="38" type="curve"/>
      <point x="220" y="38" type="line" smooth="yes"/>
      <point x="277" y="38"/>
      <point x="320" y="82"/>
      <point x="320" y="147" type="curve" smooth="yes"/>
      <point x="320" y="190"/>
      <point x="298" y="230"/>
      <point x="263" y="270" type="curve" smooth="yes"/>
      <point x="252" y="283"/>
      <point x="227" y="308"/>
      <point x="189" y="344" type="curve"/>
    </contour>
    <contour>
      <point x="152" y="382" type="line" smooth="yes"/>
      <point x="103" y="438"/>
      <point x="84" y="485"/>
      <point x="84" y="534" type="curve" smooth="yes"/>
      <point x="84" y="541"/>
      <point x="84" y="547"/>
      <point x="85" y="550" type="curve"/>
      <point x="92" y="609"/>
      <point x="124" y="653"/>
      <point x="180" y="690" type="curve" smooth="yes"/>
      <point x="218" y="714"/>
      <point x="256" y="726"/>
      <point x="295" y="726" type="curve" smooth="yes"/>
      <point x="340" y="726"/>
      <point x="377" y="711"/>
      <point x="406" y="682" type="curve" smooth="yes"/>
      <point x="437" y="651"/>
      <point x="447" y="615"/>
      <point x="447" y="582" type="curve" smooth="yes"/>
      <point x="447" y="573"/>
      <point x="447" y="567"/>
      <point x="446" y="563" type="curve"/>
      <point x="439" y="484"/>
      <point x="375" y="412"/>
      <point x="320" y="376" type="curve"/>
      <point x="322" y="374" type="line" smooth="yes"/>
      <point x="397" y="299"/>
      <point x="423" y="242"/>
      <point x="423" y="183" type="curve" smooth="yes"/>
      <point x="423" y="174"/>
      <point x="423" y="168"/>
      <point x="422" y="164" type="curve"/>
      <point x="418" y="119"/>
      <point x="391" y="75"/>
      <point x="354" y="46" type="curve" smooth="yes"/>
      <point x="320" y="18"/>
      <point x="278" y="-1"/>
      <point x="228" y="-11" type="curve" smooth="yes"/>
      <point x="213" y="-14"/>
      <point x="195" y="-16"/>
      <point x="174" y="-16" type="curve" smooth="yes"/>
      <point x="111" y="-16"/>
      <point x="57" y="6"/>
      <point x="24" y="61" type="curve" smooth="yes"/>
      <point x="11" y="82"/>
      <point x="5" y="106"/>
      <point x="5" y="133" type="curve" smooth="yes"/>
      <point x="5" y="141"/>
      <point x="5" y="147"/>
      <point x="6" y="150" type="curve"/>
      <point x="11" y="209"/>
      <point x="41" y="249"/>
      <point x="90" y="304" type="curve"/>
      <point x="115" y="329"/>
      <point x="139" y="351"/>
      <point x="163" y="370" type="curve"/>
    </contour>
    <contour>
      <point x="319" y="429"/>
      <point x="347" y="476"/>
      <point x="347" y="545" type="curve" smooth="yes"/>
      <point x="347" y="556"/>
      <point x="347" y="565"/>
      <point x="346" y="570" type="curve"/>
      <point x="342" y="610"/>
      <point x="324" y="652"/>
      <point x="288" y="668" type="curve"/>
      <point x="278" y="672"/>
      <point x="268" y="674"/>
      <point x="259" y="674" type="curve"/>
      <point x="246" y="673" type="line"/>
      <point x="217" y="669"/>
      <point x="194" y="645"/>
      <point x="186" y="618" type="curve"/>
      <point x="182" y="602"/>
      <point x="180" y="590"/>
      <point x="180" y="582" type="curve" smooth="yes"/>
      <point x="180" y="576" type="line"/>
      <point x="184" y="508"/>
      <point x="248" y="445"/>
      <point x="291" y="404" type="curve"/>
    </contour>
  </outline>
</glyph>
<glyph name="nine" format="1">
  <advance width="446"/>
  <unicode hex="0039"/>
  <outline>
    <contour>
      <point x="441" y="457" type="line" smooth="yes"/>
      <point x="441" y="334"/>
      <point x="418" y="224"/>
      <point x="338" y="116" type="curve" smooth="yes"/>
      <point x="278" y="39"/>
      <point x="207" y="-9"/>
      <point x="130" y="-9" type="curve" smooth="yes"/>
      <point x="126" y="-9" type="line" smooth="yes"/>
      <point x="85" y="-9"/>
      <point x="45" y="8"/>
      <point x="24" y="37" type="curve" smooth="yes"/>
      <point x="11" y="55"/>
      <point x="5" y="74"/>
      <point x="5" y="95" type="curve" smooth="yes"/>
      <point x="5" y="100"/>
      <point x="6" y="106"/>
      <point x="7" y="114" type="curve"/>
      <point x="14" y="141"/>
      <point x="30" y="162"/>
      <point x="56" y="175" type="curve"/>
      <point x="68" y="153"/>
      <point x="84" y="134"/>
      <point x="104" y="118" type="curve"/>
      <point x="135" y="97"/>
      <point x="160" y="87"/>
      <point x="184" y="87" type="curve" smooth="yes"/>
      <point x="191" y="87"/>
      <point x="197" y="87"/>
      <point x="200" y="88" type="curve"/>
      <point x="243" y="92"/>
      <point x="271" y="117"/>
      <point x="292" y="150" type="curve" smooth="yes"/>
      <point x="309" y="178"/>
      <point x="322" y="220"/>
      <point x="330" y="277" type="curve" smooth="yes"/>
      <point x="332" y="293"/>
      <point x="334" y="315"/>
      <point x="337" y="344" type="curve"/>
      <point x="305" y="300"/>
      <point x="248" y="273"/>
      <point x="196" y="268" type="curve"/>
      <point x="192" y="267"/>
      <point x="186" y="267"/>
      <point x="177" y="267" type="curve" smooth="yes"/>
      <point x="129" y="267"/>
      <point x="77" y="291"/>
      <point x="50" y="330" type="curve" smooth="yes"/>
      <point x="23" y="367"/>
      <point x="17" y="409"/>
      <point x="17" y="449" type="curve" smooth="yes"/>
      <point x="17" y="468"/>
      <point x="19" y="489"/>
      <point x="24" y="514" type="curve" smooth="yes"/>
      <point x="41" y="595"/>
      <point x="86" y="661"/>
      <point x="142" y="698" type="curve" smooth="yes"/>
      <point x="173" y="718"/>
      <point x="206" y="729"/>
      <point x="242" y="730" type="curve" smooth="yes"/>
      <point x="248" y="730" type="line" smooth="yes"/>
      <point x="312" y="730"/>
      <point x="368" y="698"/>
      <point x="401" y="642" type="curve" smooth="yes"/>
      <point x="425" y="602"/>
      <point x="438" y="550"/>
      <point x="441" y="487" type="curve"/>
    </contour>
    <contour>
      <point x="340" y="421" type="line" smooth="yes"/>
      <point x="340" y="466"/>
      <point x="339" y="518"/>
      <point x="320" y="577" type="curve" smooth="yes"/>
      <point x="301" y="637"/>
      <point x="271" y="663"/>
      <point x="238" y="671" type="curve"/>
      <point x="231" y="673"/>
      <point x="223" y="674"/>
      <point x="216" y="674" type="curve" smooth="yes"/>
      <point x="199" y="674"/>
      <point x="172" y="669"/>
      <point x="151" y="642" type="curve" smooth="yes"/>
      <point x="141" y="630"/>
      <point x="133" y="617"/>
      <point x="128" y="602" type="curve"/>
      <point x="120" y="581"/>
      <point x="115" y="552"/>
      <point x="112" y="513" type="curve"/>
      <point x="112" y="510"/>
      <point x="112" y="507"/>
      <point x="112" y="502" type="curve"/>
      <point x="111" y="497"/>
      <point x="111" y="493"/>
      <point x="111" y="491" type="curve" smooth="yes"/>
      <point x="111" y="443"/>
      <point x="122" y="409"/>
      <point x="138" y="384" type="curve" smooth="yes"/>
      <point x="151" y="364"/>
      <point x="183" y="343"/>
      <point x="223" y="343" type="curve" smooth="yes"/>
      <point x="228" y="343"/>
      <point x="235" y="344"/>
      <point x="244" y="345" type="curve"/>
      <point x="263" y="348"/>
      <point x="282" y="353"/>
      <point x="301" y="362" type="curve"/>
      <point x="321" y="373"/>
      <point x="329" y="378"/>
      <point x="340" y="393" type="curve"/>
    </contour>
  </outline>
</glyph>
<glyph name="colon" format="1">
  <advance width="187"/>
  <unicode hex="003A"/>
  <outline>
    <contour>
      <point x="92" y="122"/>
      <point x="102" y="119"/>
      <point x="117" y="102" type="curve"/>
      <point x="122" y="95"/>
      <point x="125" y="87"/>
      <point x="128" y="76" type="curve"/>
      <point x="129" y="74"/>
      <point x="129" y="70"/>
      <point x="129" y="65" type="curve" smooth="yes"/>
      <point x="129" y="61"/>
      <point x="128" y="55"/>
      <point x="127" y="47" type="curve"/>
      <point x="123" y="30"/>
      <point x="115" y="16"/>
      <point x="102" y="3" type="curve" smooth="yes"/>
      <point x="86" y="-13"/>
      <point x="73" y="-17"/>
      <point x="56" y="-17" type="curve"/>
      <point x="24" y="-14"/>
      <point x="10" y="8"/>
      <point x="6" y="28" type="curve" smooth="yes"/>
      <point x="5" y="33"/>
      <point x="4" y="38"/>
      <point x="4" y="42" type="curve" smooth="yes"/>
      <point x="4" y="47"/>
      <point x="5" y="52"/>
      <point x="6" y="57" type="curve" smooth="yes"/>
      <point x="13" y="90"/>
      <point x="42" y="121"/>
      <point x="73" y="122" type="curve" smooth="yes"/>
    </contour>
    <contour>
      <point x="146" y="524"/>
      <point x="159" y="520"/>
      <point x="172" y="504" type="curve" smooth="yes"/>
      <point x="176" y="499"/>
      <point x="179" y="490"/>
      <point x="182" y="478" type="curve"/>
      <point x="183" y="476"/>
      <point x="183" y="472"/>
      <point x="183" y="467" type="curve" smooth="yes"/>
      <point x="183" y="463"/>
      <point x="182" y="457"/>
      <point x="181" y="449" type="curve"/>
      <point x="172" y="413"/>
      <point x="147" y="386"/>
      <point x="110" y="386" type="curve" smooth="yes"/>
      <point x="78" y="386"/>
      <point x="64" y="410"/>
      <point x="60" y="430" type="curve"/>
      <point x="59" y="432"/>
      <point x="59" y="436"/>
      <point x="59" y="441" type="curve" smooth="yes"/>
      <point x="59" y="445"/>
      <point x="60" y="451"/>
      <point x="61" y="459" type="curve"/>
      <point x="68" y="492"/>
      <point x="98" y="523"/>
      <point x="127" y="524" type="curve" smooth="yes"/>
    </contour>
  </outline>
</glyph>
<glyph name="semicolon" format="1">
  <advance width="239"/>
  <unicode hex="003B"/>
  <outline>
    <contour>
      <point x="198" y="524"/>
      <point x="208" y="521"/>
      <point x="223" y="504" type="curve"/>
      <point x="228" y="497"/>
      <point x="231" y="489"/>
      <point x="234" y="478" type="curve"/>
      <point x="235" y="476"/>
      <point x="235" y="472"/>
      <point x="235" y="467" type="curve" smooth="yes"/>
      <point x="235" y="463"/>
      <point x="234" y="457"/>
      <point x="233" y="449" type="curve"/>
      <point x="224" y="413"/>
      <point x="199" y="386"/>
      <point x="162" y="386" type="curve" smooth="yes"/>
      <point x="130" y="386"/>
      <point x="116" y="410"/>
      <point x="112" y="430" type="curve" smooth="yes"/>
      <point x="111" y="435"/>
      <point x="110" y="440"/>
      <point x="110" y="444" type="curve" smooth="yes"/>
      <point x="110" y="449"/>
      <point x="111" y="454"/>
      <point x="112" y="459" type="curve" smooth="yes"/>
      <point x="119" y="492"/>
      <point x="149" y="523"/>
      <point x="178" y="524" type="curve" smooth="yes"/>
    </contour>
    <contour>
      <point x="41" y="83"/>
      <point x="53" y="99"/>
      <point x="72" y="112" type="curve"/>
      <point x="86" y="120"/>
      <point x="99" y="124"/>
      <point x="112" y="124" type="curve" smooth="yes"/>
      <point x="118" y="124" type="line"/>
      <point x="149" y="120"/>
      <point x="168" y="101"/>
      <point x="180" y="68" type="curve"/>
      <point x="185" y="52"/>
      <point x="188" y="37"/>
      <point x="188" y="22" type="curve" smooth="yes"/>
      <point x="188" y="17"/>
      <point x="187" y="9"/>
      <point x="186" y="-2" type="curve"/>
      <point x="179" y="-45"/>
      <point x="146" y="-89"/>
      <point x="106" y="-121" type="curve" smooth="yes"/>
      <point x="80" y="-142"/>
      <point x="52" y="-159"/>
      <point x="23" y="-173" type="curve"/>
      <point x="5" y="-142" type="line"/>
      <point x="44" y="-119"/>
      <point x="49" y="-116"/>
      <point x="76" y="-83" type="curve" smooth="yes"/>
      <point x="92" y="-63"/>
      <point x="96" y="-40"/>
      <point x="96" y="-25" type="curve" smooth="yes"/>
      <point x="96" y="-21"/>
      <point x="95" y="-16"/>
      <point x="94" y="-9" type="curve"/>
      <point x="86" y="23"/>
      <point x="56" y="49"/>
      <point x="36" y="62" type="curve"/>
    </contour>
  </outline>
</glyph>
<glyph name="less" format="1">
  <advance width="414"/>
  <unicode hex="003C"/>
  <outline>
    <contour>
      <point x="66" y="259" type="line"/>
      <point x="70" y="276" type="line"/>
      <point x="446" y="589" type="line"/>
      <point x="473" y="546" type="line"/>
      <point x="211" y="275" type="line"/>
      <point x="398" y="-8" type="line"/>
      <point x="353" y="-50" type="line"/>
    </contour>
  </outline>
</glyph>
<glyph name="equal" format="1">
  <advance width="481"/>
  <unicode hex="003D"/>
  <outline>
    <contour>
      <point x="92" y="402" type="line"/>
      <point x="464" y="402" type="line"/>
      <point x="447" y="338" type="line"/>
      <point x="75" y="338" type="line"/>
    </contour>
    <contour>
      <point x="67" y="257" type="line"/>
      <point x="439" y="257" type="line"/>
      <point x="422" y="193" type="line"/>
      <point x="50" y="193" type="line"/>
    </contour>
  </outline>
</glyph>
<glyph name="greater" format="1">
  <advance width="414"/>
  <unicode hex="003E"/>
  <outline>
    <contour>
      <point x="443" y="259" type="line"/>
      <point x="58" y="-50" type="line"/>
      <point x="27" y="-8" type="line"/>
      <point x="302" y="275" type="line"/>
      <point x="126" y="546" type="line"/>
      <point x="167" y="589" type="line"/>
      <point x="445" y="276" type="line"/>
    </contour>
  </outline>
</glyph>
<glyph name="question" format="1">
  <advance width="348"/>
  <unicode hex="003F"/>
  <outline>
    <contour>
      <point x="38" y="743"/>
      <point x="57" y="767"/>
      <point x="92" y="784" type="curve" smooth="yes"/>
      <point x="111" y="793"/>
      <point x="132" y="798"/>
      <point x="155" y="798" type="curve" smooth="yes"/>
      <point x="168" y="798" type="line"/>
      <point x="240" y="794"/>
      <point x="297" y="751"/>
      <point x="328" y="672" type="curve" smooth="yes"/>
      <point x="339" y="644"/>
      <point x="344" y="613"/>
      <point x="344" y="580" type="curve" smooth="yes"/>
      <point x="344" y="563"/>
      <point x="343" y="547"/>
      <point x="340" y="534" type="curve" smooth="yes"/>
      <point x="332" y="495"/>
      <point x="311" y="461"/>
      <point x="278" y="432" type="curve" smooth="yes"/>
      <point x="265" y="421"/>
      <point x="249" y="411"/>
      <point x="232" y="402" type="curve"/>
      <point x="227" y="399"/>
      <point x="219" y="396"/>
      <point x="208" y="391" type="curve"/>
      <point x="186" y="382"/>
      <point x="165" y="375"/>
      <point x="146" y="355" type="curve" smooth="yes"/>
      <point x="136" y="344"/>
      <point x="129" y="331"/>
      <point x="126" y="316" type="curve" smooth="yes"/>
      <point x="125" y="311"/>
      <point x="124" y="303"/>
      <point x="124" y="292" type="curve" smooth="yes"/>
      <point x="124" y="289"/>
      <point x="124" y="285"/>
      <point x="125" y="279" type="curve"/>
      <point x="125" y="273"/>
      <point x="125" y="269"/>
      <point x="125" y="266" type="curve" smooth="yes"/>
      <point x="125" y="265"/>
      <point x="126" y="256"/>
      <point x="128" y="238" type="curve"/>
      <point x="80" y="228" type="line"/>
      <point x="63" y="271"/>
      <point x="56" y="295"/>
      <point x="53" y="311" type="curve"/>
      <point x="53" y="314"/>
      <point x="53" y="317"/>
      <point x="52" y="322" type="curve"/>
      <point x="51" y="330"/>
      <point x="50" y="336"/>
      <point x="50" y="343" type="curve" smooth="yes"/>
      <point x="50" y="346"/>
      <point x="51" y="353"/>
      <point x="52" y="362" type="curve" smooth="yes"/>
      <point x="57" y="398"/>
      <point x="87" y="434"/>
      <point x="116" y="453" type="curve" smooth="yes"/>
      <point x="127" y="460"/>
      <point x="145" y="469"/>
      <point x="168" y="478" type="curve" smooth="yes"/>
      <point x="214" y="497"/>
      <point x="233" y="506"/>
      <point x="257" y="534" type="curve" smooth="yes"/>
      <point x="269" y="548"/>
      <point x="276" y="564"/>
      <point x="278" y="582" type="curve"/>
      <point x="278" y="583"/>
      <point x="278" y="585"/>
      <point x="279" y="588" type="curve"/>
      <point x="279" y="590"/>
      <point x="279" y="592"/>
      <point x="279" y="593" type="curve" smooth="yes"/>
      <point x="279" y="621"/>
      <point x="266" y="652"/>
      <point x="234" y="675" type="curve"/>
      <point x="222" y="683"/>
      <point x="209" y="688"/>
      <point x="194" y="690" type="curve"/>
      <point x="193" y="690"/>
      <point x="191" y="690"/>
      <point x="189" y="691" type="curve"/>
      <point x="186" y="691"/>
      <point x="185" y="691"/>
      <point x="184" y="691" type="curve" smooth="yes"/>
      <point x="168" y="691"/>
      <point x="131" y="682"/>
      <point x="104" y="670" type="curve" smooth="yes"/>
      <point x="90" y="664"/>
      <point x="78" y="656"/>
      <point x="68" y="646" type="curve"/>
      <point x="55" y="651"/>
      <point x="41" y="667"/>
      <point x="36" y="684" type="curve"/>
      <point x="34" y="690"/>
      <point x="33" y="697"/>
      <point x="33" y="704" type="curve" smooth="yes"/>
      <point x="33" y="709"/>
      <point x="33" y="712"/>
      <point x="34" y="715" type="curve"/>
    </contour>
    <contour>
      <point x="107" y="132"/>
      <point x="117" y="126"/>
      <point x="130" y="110" type="curve"/>
      <point x="136" y="102"/>
      <point x="140" y="92"/>
      <point x="142" y="81" type="curve"/>
      <point x="143" y="79"/>
      <point x="143" y="76"/>
      <point x="143" y="71" type="curve" smooth="yes"/>
      <point x="143" y="70"/>
      <point x="142" y="63"/>
      <point x="140" y="49" type="curve"/>
      <point x="132" y="12"/>
      <point x="101" y="-22"/>
      <point x="62" y="-22" type="curve"/>
      <point x="26" y="-19"/>
      <point x="10" y="8"/>
      <point x="6" y="28" type="curve"/>
      <point x="5" y="35"/>
      <point x="4" y="40"/>
      <point x="4" y="44" type="curve" smooth="yes"/>
      <point x="4" y="48"/>
      <point x="5" y="53"/>
      <point x="6" y="60" type="curve"/>
      <point x="14" y="95"/>
      <point x="44" y="129"/>
      <point x="80" y="132" type="curve"/>
    </contour>
  </outline>
</glyph>
<glyph name="at" format="1">
  <advance width="790"/>
  <unicode hex="0040"/>
  <outline>
    <contour>
      <point x="676" y="191"/>
      <point x="702" y="246"/>
      <point x="702" y="342" type="curve" smooth="yes"/>
      <point x="702" y="445"/>
      <point x="657" y="520"/>
      <point x="573" y="564" type="curve" smooth="yes"/>
      <point x="532" y="584"/>
      <point x="488" y="594"/>
      <point x="440" y="594" type="curve" smooth="yes"/>
      <point x="308" y="594"/>
      <point x="197" y="518"/>
      <point x="144" y="402" type="curve" smooth="yes"/>
      <point x="116" y="344"/>
      <point x="102" y="283"/>
      <point x="102" y="218" type="curve" smooth="yes"/>
      <point x="102" y="91"/>
      <point x="159" y="-2"/>
      <point x="250" y="-47" type="curve" smooth="yes"/>
      <point x="298" y="-72"/>
      <point x="352" y="-85"/>
      <point x="411" y="-85" type="curve" smooth="yes"/>
      <point x="424" y="-85" type="line" smooth="yes"/>
      <point x="480" y="-84"/>
      <point x="550" y="-64"/>
      <point x="590" y="-44" type="curve" smooth="yes"/>
      <point x="611" y="-33"/>
      <point x="627" y="-25"/>
      <point x="638" y="-18" type="curve"/>
      <point x="644" y="-13" type="line"/>
      <point x="666" y="-46" type="line"/>
      <point x="661" y="-49" type="line"/>
      <point x="629" y="-80"/>
      <point x="579" y="-110"/>
      <point x="514" y="-127" type="curve" smooth="yes"/>
      <point x="473" y="-137"/>
      <point x="435" y="-142"/>
      <point x="402" y="-142" type="curve" smooth="yes"/>
      <point x="394" y="-142" type="line" smooth="yes"/>
      <point x="269" y="-142"/>
      <point x="138" y="-95"/>
      <point x="66" y="2" type="curve" smooth="yes"/>
      <point x="25" y="58"/>
      <point x="5" y="125"/>
      <point x="5" y="202" type="curve" smooth="yes"/>
      <point x="5" y="366"/>
      <point x="89" y="512"/>
      <point x="224" y="589" type="curve" smooth="yes"/>
      <point x="295" y="630"/>
      <point x="373" y="650"/>
      <point x="456" y="650" type="curve" smooth="yes"/>
      <point x="462" y="650" type="line" smooth="yes"/>
      <point x="581" y="647"/>
      <point x="687" y="599"/>
      <point x="740" y="516" type="curve" smooth="yes"/>
      <point x="769" y="471"/>
      <point x="785" y="422"/>
      <point x="786" y="367" type="curve" smooth="yes"/>
      <point x="786" y="361" type="line" smooth="yes"/>
      <point x="786" y="253"/>
      <point x="730" y="155"/>
      <point x="642" y="90" type="curve" smooth="yes"/>
      <point x="593" y="55"/>
      <point x="548" y="39"/>
      <point x="500" y="32" type="curve"/>
      <point x="497" y="31"/>
      <point x="491" y="31"/>
      <point x="484" y="31" type="curve"/>
      <point x="464" y="33" type="line"/>
      <point x="437" y="40"/>
      <point x="424" y="61"/>
      <point x="424" y="84" type="curve" smooth="yes"/>
      <point x="424" y="111"/>
      <point x="426" y="121"/>
      <point x="434" y="158" type="curve"/>
      <point x="435" y="165"/>
      <point x="438" y="175"/>
      <point x="442" y="188" type="curve"/>
      <point x="435" y="189" type="line"/>
      <point x="407" y="128"/>
      <point x="382" y="88"/>
      <point x="334" y="56" type="curve" smooth="yes"/>
      <point x="315" y="43"/>
      <point x="297" y="37"/>
      <point x="280" y="37" type="curve" smooth="yes"/>
      <point x="256" y="37"/>
      <point x="234" y="48"/>
      <point x="221" y="64" type="curve" smooth="yes"/>
      <point x="206" y="83"/>
      <point x="198" y="103"/>
      <point x="196" y="126" type="curve"/>
      <point x="195" y="131"/>
      <point x="195" y="138"/>
      <point x="195" y="148" type="curve" smooth="yes"/>
      <point x="195" y="167"/>
      <point x="198" y="192"/>
      <point x="204" y="222" type="curve" smooth="yes"/>
      <point x="233" y="350"/>
      <point x="277" y="405"/>
      <point x="336" y="456" type="curve"/>
      <point x="363" y="477"/>
      <point x="382" y="488"/>
      <point x="406" y="488" type="curve" smooth="yes"/>
      <point x="442" y="488"/>
      <point x="468" y="466"/>
      <point x="480" y="453" type="curve"/>
      <point x="488" y="452" type="line"/>
      <point x="492" y="496" type="line"/>
      <point x="504" y="500" type="line"/>
      <point x="568" y="481" type="line"/>
      <point x="531" y="286" type="line"/>
      <point x="522" y="221"/>
      <point x="517" y="186"/>
      <point x="516" y="183" type="curve"/>
      <point x="514" y="156" type="line" smooth="yes"/>
      <point x="513" y="140"/>
      <point x="512" y="129"/>
      <point x="512" y="123" type="curve" smooth="yes"/>
      <point x="512" y="116" type="line" smooth="yes"/>
      <point x="512" y="113"/>
      <point x="518" y="104"/>
      <point x="526" y="104" type="curve" smooth="yes"/>
      <point x="527" y="104"/>
      <point x="529" y="104"/>
      <point x="531" y="105" type="curve"/>
      <point x="533" y="105"/>
      <point x="535" y="105"/>
      <point x="536" y="105" type="curve"/>
      <point x="581" y="113"/>
      <point x="589" y="112"/>
      <point x="624" y="144" type="curve" smooth="yes"/>
    </contour>
    <contour>
      <point x="281" y="189" type="line" smooth="yes"/>
      <point x="281" y="174"/>
      <point x="282" y="159"/>
      <point x="284" y="143" type="curve"/>
      <point x="287" y="130"/>
      <point x="288" y="128"/>
      <point x="296" y="120" type="curve" smooth="yes"/>
      <point x="297" y="119"/>
      <point x="298" y="119"/>
      <point x="299" y="118" type="curve" smooth="yes"/>
      <point x="301" y="116"/>
      <point x="302" y="114"/>
      <point x="305" y="114" type="curve"/>
      <point x="310" y="113"/>
      <point x="314" y="112"/>
      <point x="317" y="112" type="curve" smooth="yes"/>
      <point x="334" y="112"/>
      <point x="357" y="132"/>
      <point x="368" y="145" type="curve" smooth="yes"/>
      <point x="401" y="185"/>
      <point x="456" y="287"/>
      <point x="472" y="372" type="curve"/>
      <point x="456" y="396"/>
      <point x="440" y="412"/>
      <point x="424" y="420" type="curve"/>
      <point x="413" y="425"/>
      <point x="404" y="428"/>
      <point x="396" y="428" type="curve" smooth="yes"/>
      <point x="392" y="428" type="line" smooth="yes"/>
      <point x="367" y="428"/>
      <point x="339" y="410"/>
      <point x="326" y="386" type="curve"/>
      <point x="305" y="354"/>
      <point x="281" y="250"/>
      <point x="281" y="198" type="curve" smooth="yes"/>
    </contour>
  </outline>
</glyph>
<glyph name="B" format="1">
  <advance width="706"/>
  <unicode hex="0042"/>
  <outline>
    <contour>
      <point x="5" y="0" type="line"/>
      <point x="18" y="46" type="line"/>
      <point x="148" y="80" type="line"/>
      <point x="228" y="656" type="line"/>
      <point x="90" y="666" type="line"/>
      <point x="102" y="714" type="line"/>
      <point x="201" y="741"/>
      <point x="347" y="779"/>
      <point x="448" y="779" type="curve" smooth="yes"/>
      <point x="522" y="779"/>
      <point x="581" y="763"/>
      <point x="624" y="732" type="curve" smooth="yes"/>
      <point x="661" y="704"/>
      <point x="690" y="662"/>
      <point x="690" y="609" type="curve" smooth="yes"/>
      <point x="690" y="582"/>
      <point x="681" y="553"/>
      <point x="664" y="522" type="curve"/>
      <point x="627" y="463"/>
      <point x="580" y="428"/>
      <point x="513" y="412" type="curve"/>
      <point x="513" y="408" type="line"/>
      <point x="532" y="405"/>
      <point x="593" y="389"/>
      <point x="628" y="361" type="curve" smooth="yes"/>
      <point x="676" y="325"/>
      <point x="701" y="273"/>
      <point x="701" y="222" type="curve" smooth="yes"/>
      <point x="701" y="213"/>
      <point x="701" y="207"/>
      <point x="700" y="203" type="curve"/>
      <point x="692" y="122"/>
      <point x="626" y="61"/>
      <point x="546" y="32" type="curve" smooth="yes"/>
      <point x="467" y="3"/>
      <point x="419" y="0"/>
      <point x="328" y="0" type="curve" smooth="yes"/>
      <point x="259" y="0" type="line"/>
    </contour>
    <contour>
      <point x="263" y="62" type="line"/>
      <point x="296" y="58"/>
      <point x="330" y="56"/>
      <point x="364" y="56" type="curve" smooth="yes"/>
      <point x="384" y="56" type="line" smooth="yes"/>
      <point x="442" y="57"/>
      <point x="487" y="68"/>
      <point x="519" y="89" type="curve" smooth="yes"/>
      <point x="563" y="120"/>
      <point x="581" y="157"/>
      <point x="581" y="197" type="curve" smooth="yes"/>
      <point x="581" y="204"/>
      <point x="581" y="210"/>
      <point x="580" y="214" type="curve"/>
      <point x="572" y="278"/>
      <point x="517" y="334"/>
      <point x="437" y="354" type="curve" smooth="yes"/>
      <point x="393" y="365"/>
      <point x="342" y="368"/>
      <point x="301" y="368" type="curve"/>
    </contour>
    <contour>
      <point x="308" y="419" type="line"/>
      <point x="313" y="419"/>
      <point x="319" y="419"/>
      <point x="327" y="418" type="curve"/>
      <point x="343" y="417"/>
      <point x="356" y="416"/>
      <point x="368" y="416" type="curve" smooth="yes"/>
      <point x="451" y="416"/>
      <point x="496" y="426"/>
      <point x="540" y="474" type="curve" smooth="yes"/>
      <point x="560" y="496"/>
      <point x="572" y="523"/>
      <point x="575" y="554" type="curve"/>
      <point x="575" y="555"/>
      <point x="575" y="558"/>
      <point x="576" y="561" type="curve"/>
      <point x="576" y="564"/>
      <point x="576" y="567"/>
      <point x="576" y="568" type="curve" smooth="yes"/>
      <point x="576" y="603"/>
      <point x="564" y="648"/>
      <point x="525" y="683" type="curve" smooth="yes"/>
      <point x="496" y="709"/>
      <point x="457" y="724"/>
      <point x="409" y="727" type="curve"/>
      <point x="404" y="728"/>
      <point x="396" y="728"/>
      <point x="385" y="728" type="curve" smooth="yes"/>
      <point x="375" y="728"/>
      <point x="362" y="727"/>
      <point x="346" y="726" type="curve"/>
    </contour>
  </outline>
</glyph>
<glyph name="C" format="1">
  <advance width="589"/>
  <unicode hex="0043"/>
  <outline>
    <contour>
      <point x="448" y="573" type="line" smooth="yes"/>
      <point x="448" y="606"/>
      <point x="445" y="641"/>
      <point x="418" y="668" type="curve"/>
      <point x="401" y="688"/>
      <point x="370" y="702"/>
      <point x="335" y="702" type="curve"/>
      <point x="272" y="699"/>
      <point x="222" y="663"/>
      <point x="189" y="600" type="curve" smooth="yes"/>
      <point x="162" y="551"/>
      <point x="147" y="483"/>
      <point x="142" y="396" type="curve"/>
      <point x="141" y="387"/>
      <point x="141" y="372"/>
      <point x="141" y="353" type="curve" smooth="yes"/>
      <point x="141" y="330"/>
      <point x="142" y="312"/>
      <point x="143" y="300" type="curve" smooth="yes"/>
      <point x="150" y="232"/>
      <point x="174" y="165"/>
      <point x="218" y="125" type="curve" smooth="yes"/>
      <point x="245" y="100"/>
      <point x="273" y="85"/>
      <point x="302" y="80" type="curve" smooth="yes"/>
      <point x="313" y="78"/>
      <point x="324" y="77"/>
      <point x="337" y="77" type="curve" smooth="yes"/>
      <point x="384" y="77"/>
      <point x="434" y="93"/>
      <point x="486" y="149" type="curve"/>
      <point x="501" y="164"/>
      <point x="512" y="179"/>
      <point x="520" y="192" type="curve"/>
      <point x="546" y="153" type="line"/>
      <point x="537" y="130"/>
      <point x="524" y="109"/>
      <point x="507" y="88" type="curve" smooth="yes"/>
      <point x="469" y="42"/>
      <point x="422" y="11"/>
      <point x="367" y="-6" type="curve" smooth="yes"/>
      <point x="341" y="-14"/>
      <point x="314" y="-18"/>
      <point x="287" y="-18" type="curve" smooth="yes"/>
      <point x="262" y="-18"/>
      <point x="236" y="-14"/>
      <point x="210" y="-7" type="curve" smooth="yes"/>
      <point x="102" y="26"/>
      <point x="13" y="122"/>
      <point x="6" y="281" type="curve"/>
      <point x="6" y="300" type="line" smooth="yes"/>
      <point x="6" y="501"/>
      <point x="114" y="658"/>
      <point x="210" y="723" type="curve" smooth="yes"/>
      <point x="249" y="749"/>
      <point x="289" y="765"/>
      <point x="331" y="772" type="curve" smooth="yes"/>
      <point x="351" y="775"/>
      <point x="366" y="776"/>
      <point x="376" y="776" type="curve" smooth="yes"/>
      <point x="432" y="776"/>
      <point x="524" y="758"/>
      <point x="569" y="670" type="curve" smooth="yes"/>
      <point x="579" y="652"/>
      <point x="584" y="631"/>
      <point x="584" y="607" type="curve" smooth="yes"/>
      <point x="584" y="600" type="line"/>
      <point x="581" y="551"/>
      <point x="549" y="508"/>
      <point x="506" y="496" type="curve" smooth="yes"/>
      <point x="494" y="493"/>
      <point x="483" y="491"/>
      <point x="472" y="491" type="curve"/>
      <point x="440" y="496" type="line"/>
      <point x="445" y="518"/>
      <point x="447" y="539"/>
      <point x="448" y="559" type="curve"/>
    </contour>
  </outline>
</glyph>
<glyph name="D" format="1">
  <advance width="859"/>
  <unicode hex="0044"/>
  <outline>
    <contour>
      <point x="5" y="0" type="line"/>
      <point x="17" y="47" type="line"/>
      <point x="146" y="80" type="line"/>
      <point x="225" y="660" type="line"/>
      <point x="91" y="670" type="line"/>
      <point x="104" y="715" type="line"/>
      <point x="209" y="754"/>
      <point x="333" y="773"/>
      <point x="461" y="773" type="curve" smooth="yes"/>
      <point x="480" y="773"/>
      <point x="495" y="773"/>
      <point x="505" y="772" type="curve"/>
      <point x="610" y="767"/>
      <point x="693" y="747"/>
      <point x="754" y="696" type="curve" smooth="yes"/>
      <point x="833" y="632"/>
      <point x="855" y="537"/>
      <point x="855" y="465" type="curve" smooth="yes"/>
      <point x="855" y="451"/>
      <point x="854" y="436"/>
      <point x="852" y="421" type="curve" smooth="yes"/>
      <point x="836" y="269"/>
      <point x="739" y="122"/>
      <point x="559" y="49" type="curve" smooth="yes"/>
      <point x="475" y="14"/>
      <point x="401" y="0"/>
      <point x="208" y="0" type="curve" smooth="yes"/>
    </contour>
    <contour>
      <point x="268" y="66" type="line"/>
      <point x="305" y="66"/>
      <point x="338" y="67"/>
      <point x="368" y="70" type="curve" smooth="yes"/>
      <point x="539" y="86"/>
      <point x="659" y="157"/>
      <point x="707" y="278" type="curve" smooth="yes"/>
      <point x="722" y="317"/>
      <point x="730" y="359"/>
      <point x="730" y="404" type="curve" smooth="yes"/>
      <point x="730" y="449"/>
      <point x="723" y="506"/>
      <point x="696" y="559" type="curve" smooth="yes"/>
      <point x="667" y="619"/>
      <point x="626" y="663"/>
      <point x="521" y="702" type="curve" smooth="yes"/>
      <point x="476" y="718"/>
      <point x="434" y="726"/>
      <point x="396" y="727" type="curve" smooth="yes"/>
      <point x="379" y="727"/>
      <point x="363" y="726"/>
      <point x="347" y="724" type="curve"/>
    </contour>
  </outline>
</glyph>
<glyph name="E" format="1">
  <advance width="745"/>
  <unicode hex="0045"/>
  <outline>
    <contour>
      <point x="5" y="-2" type="line"/>
      <point x="19" y="49" type="line"/>
      <point x="154" y="83" type="line"/>
      <point x="231" y="676" type="line"/>
      <point x="91" y="690" type="line"/>
      <point x="103" y="737" type="line"/>
      <point x="192" y="754"/>
      <point x="396" y="774"/>
      <point x="556" y="774" type="curve" smooth="yes"/>
      <point x="561" y="774"/>
      <point x="569" y="774"/>
      <point x="579" y="773" type="curve" smooth="yes"/>
      <point x="589" y="772"/>
      <point x="597" y="772"/>
      <point x="602" y="773" type="curve"/>
      <point x="740" y="770" type="line"/>
      <point x="690" y="516" type="line"/>
      <point x="637" y="524" type="line"/>
      <point x="618" y="686" type="line"/>
      <point x="600" y="690" type="line" smooth="yes"/>
      <point x="543" y="701"/>
      <point x="467" y="707"/>
      <point x="372" y="707" type="curve" smooth="yes"/>
      <point x="352" y="707" type="line"/>
      <point x="318" y="420" type="line"/>
      <point x="599" y="441" type="line"/>
      <point x="578" y="352" type="line"/>
      <point x="310" y="357" type="line"/>
      <point x="272" y="60" type="line"/>
      <point x="406" y="67" type="line" smooth="yes"/>
      <point x="483" y="71"/>
      <point x="534" y="76"/>
      <point x="561" y="82" type="curve"/>
      <point x="589" y="127"/>
      <point x="636" y="234"/>
      <point x="648" y="279" type="curve"/>
      <point x="702" y="272" type="line"/>
      <point x="702" y="268" type="line" smooth="yes"/>
      <point x="702" y="161"/>
      <point x="685" y="53"/>
      <point x="654" y="0" type="curve"/>
      <point x="445" y="1"/>
      <point x="317" y="2"/>
      <point x="272" y="2" type="curve" smooth="yes"/>
    </contour>
  </outline>
</glyph>
<glyph name="F" format="1">
  <advance width="745"/>
  <unicode hex="0046"/>
  <outline>
    <contour>
      <point x="418" y="-1" type="line"/>
      <point x="5" y="-1" type="line"/>
      <point x="19" y="49" type="line"/>
      <point x="154" y="83" type="line"/>
      <point x="231" y="676" type="line"/>
      <point x="91" y="690" type="line"/>
      <point x="103" y="737" type="line"/>
      <point x="192" y="754"/>
      <point x="396" y="774"/>
      <point x="556" y="774" type="curve" smooth="yes"/>
      <point x="561" y="774"/>
      <point x="569" y="774"/>
      <point x="579" y="773" type="curve" smooth="yes"/>
      <point x="589" y="772"/>
      <point x="597" y="772"/>
      <point x="602" y="773" type="curve"/>
      <point x="740" y="770" type="line"/>
      <point x="690" y="506" type="line"/>
      <point x="632" y="514" type="line"/>
      <point x="614" y="681" type="line"/>
      <point x="595" y="684" type="line" smooth="yes"/>
      <point x="532" y="695"/>
      <point x="441" y="703"/>
      <point x="390" y="706" type="curve" smooth="yes"/>
      <point x="352" y="707" type="line"/>
      <point x="317" y="394" type="line"/>
      <point x="599" y="414" type="line"/>
      <point x="578" y="321" type="line"/>
      <point x="309" y="332" type="line"/>
      <point x="276" y="68" type="line"/>
      <point x="430" y="49" type="line"/>
    </contour>
  </outline>
</glyph>
<glyph name="G" format="1">
  <advance width="766"/>
  <unicode hex="0047"/>
  <outline>
    <contour>
      <point x="684" y="521" type="line"/>
      <point x="630" y="530" type="line"/>
      <point x="623" y="649" type="line"/>
      <point x="598" y="688"/>
      <point x="532" y="720"/>
      <point x="429" y="720" type="curve" smooth="yes"/>
      <point x="356" y="720"/>
      <point x="291" y="695"/>
      <point x="236" y="643" type="curve" smooth="yes"/>
      <point x="180" y="590"/>
      <point x="146" y="495"/>
      <point x="146" y="372" type="curve" smooth="yes"/>
      <point x="146" y="334" type="line"/>
      <point x="154" y="170"/>
      <point x="247" y="47"/>
      <point x="407" y="47" type="curve" smooth="yes"/>
      <point x="462" y="47"/>
      <point x="501" y="57"/>
      <point x="524" y="76" type="curve"/>
      <point x="547" y="270" type="line"/>
      <point x="404" y="293" type="line"/>
      <point x="417" y="344" type="line"/>
      <point x="762" y="344" type="line"/>
      <point x="749" y="298" type="line"/>
      <point x="668" y="272" type="line"/>
      <point x="642" y="54" type="line"/>
      <point x="567" y="5"/>
      <point x="461" y="-20"/>
      <point x="324" y="-20" type="curve" smooth="yes"/>
      <point x="123" y="-20"/>
      <point x="14" y="110"/>
      <point x="6" y="289" type="curve"/>
      <point x="6" y="292"/>
      <point x="6" y="297"/>
      <point x="6" y="304" type="curve"/>
      <point x="5" y="310"/>
      <point x="5" y="315"/>
      <point x="5" y="318" type="curve" smooth="yes"/>
      <point x="5" y="431"/>
      <point x="43" y="535"/>
      <point x="104" y="608" type="curve" smooth="yes"/>
      <point x="164" y="681"/>
      <point x="245" y="735"/>
      <point x="334" y="762" type="curve" smooth="yes"/>
      <point x="378" y="775"/>
      <point x="423" y="782"/>
      <point x="468" y="782" type="curve" smooth="yes"/>
      <point x="582" y="782"/>
      <point x="668" y="762"/>
      <point x="725" y="721" type="curve"/>
    </contour>
  </outline>
</glyph>
<glyph name="H" format="1">
  <advance width="969"/>
  <unicode hex="0048"/>
  <outline>
    <contour>
      <point x="710" y="688" type="line"/>
      <point x="568" y="693" type="line"/>
      <point x="580" y="740" type="line"/>
      <point x="646" y="753"/>
      <point x="711" y="762"/>
      <point x="776" y="766" type="curve" smooth="yes"/>
      <point x="807" y="768"/>
      <point x="838" y="769"/>
      <point x="870" y="769" type="curve" smooth="yes"/>
      <point x="902" y="769"/>
      <point x="933" y="768"/>
      <point x="964" y="766" type="curve"/>
      <point x="952" y="719" type="line"/>
      <point x="826" y="685" type="line"/>
      <point x="754" y="80" type="line"/>
      <point x="884" y="50" type="line"/>
      <point x="872" y="0" type="line"/>
      <point x="484" y="0" type="line"/>
      <point x="496" y="48" type="line"/>
      <point x="633" y="70" type="line"/>
      <point x="670" y="371" type="line"/>
      <point x="307" y="351" type="line"/>
      <point x="272" y="66" type="line"/>
      <point x="402" y="50" type="line"/>
      <point x="387" y="0" type="line"/>
      <point x="5" y="0" type="line"/>
      <point x="16" y="48" type="line"/>
      <point x="154" y="80" type="line"/>
      <point x="230" y="674" type="line"/>
      <point x="90" y="694" type="line"/>
      <point x="102" y="741" type="line"/>
      <point x="165" y="754"/>
      <point x="224" y="763"/>
      <point x="278" y="766" type="curve" smooth="yes"/>
      <point x="310" y="768"/>
      <point x="343" y="769"/>
      <point x="376" y="769" type="curve" smooth="yes"/>
      <point x="413" y="769"/>
      <point x="450" y="768"/>
      <point x="486" y="766" type="curve"/>
      <point x="474" y="720" type="line"/>
      <point x="351" y="706" type="line"/>
      <point x="316" y="420" type="line"/>
      <point x="678" y="433" type="line"/>
    </contour>
  </outline>
</glyph>
<glyph name="I" format="1">
  <advance width="490"/>
  <unicode hex="0049"/>
  <outline>
    <contour>
      <point x="392" y="0" type="line"/>
      <point x="5" y="0" type="line"/>
      <point x="16" y="48" type="line"/>
      <point x="154" y="80" type="line"/>
      <point x="230" y="674" type="line"/>
      <point x="90" y="694" type="line"/>
      <point x="102" y="741" type="line"/>
      <point x="229" y="768"/>
      <point x="340" y="770"/>
      <point x="389" y="770" type="curve" smooth="yes"/>
      <point x="411" y="770"/>
      <point x="443" y="769"/>
      <point x="486" y="766" type="curve"/>
      <point x="474" y="720" type="line"/>
      <point x="351" y="706" type="line"/>
      <point x="272" y="66" type="line"/>
      <point x="407" y="50" type="line"/>
    </contour>
  </outline>
</glyph>
<glyph name="J" format="1">
  <advance width="595"/>
  <unicode hex="004A"/>
  <outline>
    <contour>
      <point x="152" y="-230"/>
      <point x="138" y="-232"/>
      <point x="123" y="-232" type="curve" smooth="yes"/>
      <point x="116" y="-232"/>
      <point x="111" y="-232"/>
      <point x="108" y="-231" type="curve"/>
      <point x="69" y="-227"/>
      <point x="31" y="-204"/>
      <point x="14" y="-160" type="curve"/>
      <point x="9" y="-149"/>
      <point x="6" y="-135"/>
      <point x="6" y="-118" type="curve" smooth="yes"/>
      <point x="6" y="-103"/>
      <point x="9" y="-87"/>
      <point x="16" y="-70" type="curve"/>
      <point x="55" y="-88"/>
      <point x="91" y="-98"/>
      <point x="124" y="-101" type="curve"/>
      <point x="125" y="-101"/>
      <point x="128" y="-101"/>
      <point x="131" y="-101" type="curve"/>
      <point x="134" y="-102"/>
      <point x="137" y="-102"/>
      <point x="138" y="-102" type="curve" smooth="yes"/>
      <point x="186" y="-102"/>
      <point x="218" y="-82"/>
      <point x="234" y="-55" type="curve" smooth="yes"/>
      <point x="255" y="-22"/>
      <point x="261" y="4"/>
      <point x="268" y="49" type="curve" smooth="yes"/>
      <point x="271" y="71"/>
      <point x="274" y="96"/>
      <point x="277" y="123" type="curve" smooth="yes"/>
      <point x="280" y="150"/>
      <point x="282" y="171"/>
      <point x="284" y="186" type="curve"/>
      <point x="287" y="239"/>
      <point x="293" y="298"/>
      <point x="301" y="364" type="curve" smooth="yes"/>
      <point x="337" y="672" type="line"/>
      <point x="198" y="690" type="line"/>
      <point x="208" y="738" type="line"/>
      <point x="275" y="754"/>
      <point x="345" y="764"/>
      <point x="417" y="768" type="curve" smooth="yes"/>
      <point x="446" y="770"/>
      <point x="475" y="771"/>
      <point x="504" y="771" type="curve" smooth="yes"/>
      <point x="533" y="771"/>
      <point x="563" y="770"/>
      <point x="592" y="768" type="curve"/>
      <point x="580" y="721" type="line"/>
      <point x="459" y="706" type="line"/>
      <point x="400" y="238" type="line" smooth="yes"/>
      <point x="384" y="123"/>
      <point x="365" y="36"/>
      <point x="343" y="-23" type="curve" smooth="yes"/>
      <point x="303" y="-126"/>
      <point x="252" y="-198"/>
      <point x="165" y="-226" type="curve" smooth="yes"/>
    </contour>
  </outline>
</glyph>
<glyph name="K" format="1">
  <advance width="819"/>
  <unicode hex="004B"/>
  <outline>
    <contour>
      <point x="248" y="77" type="line"/>
      <point x="362" y="50" type="line"/>
      <point x="348" y="0" type="line"/>
      <point x="5" y="0" type="line"/>
      <point x="17" y="46" type="line"/>
      <point x="128" y="80" type="line"/>
      <point x="203" y="693" type="line"/>
      <point x="90" y="724" type="line"/>
      <point x="104" y="771" type="line"/>
      <point x="444" y="771" type="line"/>
      <point x="432" y="724" type="line"/>
      <point x="322" y="696" type="line"/>
    </contour>
    <contour>
      <point x="346" y="316" type="line"/>
      <point x="327" y="345"/>
      <point x="313" y="364"/>
      <point x="302" y="375" type="curve"/>
      <point x="304" y="390" type="line"/>
      <point x="337" y="414"/>
      <point x="362" y="436"/>
      <point x="380" y="456" type="curve" smooth="yes"/>
      <point x="592" y="696" type="line"/>
      <point x="495" y="724" type="line"/>
      <point x="506" y="771" type="line"/>
      <point x="814" y="771" type="line"/>
      <point x="802" y="724" type="line"/>
      <point x="688" y="696" type="line"/>
      <point x="422" y="406" type="line"/>
      <point x="542" y="238" type="line" smooth="yes"/>
      <point x="634" y="110"/>
      <point x="666" y="74"/>
      <point x="737" y="51" type="curve" smooth="yes"/>
      <point x="758" y="44" type="line"/>
      <point x="746" y="1" type="line"/>
      <point x="717" y="-9"/>
      <point x="689" y="-14"/>
      <point x="664" y="-14" type="curve" smooth="yes"/>
      <point x="568" y="-14"/>
      <point x="503" y="50"/>
      <point x="436" y="162" type="curve" smooth="yes"/>
    </contour>
  </outline>
</glyph>
<glyph name="M" format="1">
  <advance width="1052"/>
  <unicode hex="004D"/>
  <outline>
    <contour>
      <point x="68" y="695" type="line"/>
      <point x="82" y="742" type="line"/>
      <point x="195" y="763"/>
      <point x="279" y="770"/>
      <point x="354" y="771" type="curve"/>
      <point x="388" y="652" type="line"/>
      <point x="502" y="212" type="line"/>
      <point x="745" y="660" type="line"/>
      <point x="802" y="761" type="line"/>
      <point x="815" y="764"/>
      <point x="883" y="770"/>
      <point x="942" y="770" type="curve" smooth="yes"/>
      <point x="977" y="770"/>
      <point x="1012" y="768"/>
      <point x="1048" y="764" type="curve"/>
      <point x="1034" y="716" type="line"/>
      <point x="900" y="680" type="line"/>
      <point x="856" y="177" type="line" smooth="yes"/>
      <point x="855" y="161"/>
      <point x="854" y="149"/>
      <point x="854" y="140" type="curve" smooth="yes"/>
      <point x="854" y="137"/>
      <point x="854" y="133"/>
      <point x="854" y="128" type="curve"/>
      <point x="853" y="123"/>
      <point x="853" y="118"/>
      <point x="853" y="115" type="curve" smooth="yes"/>
      <point x="853" y="103"/>
      <point x="853" y="101"/>
      <point x="857" y="93" type="curve"/>
      <point x="860" y="88"/>
      <point x="864" y="83"/>
      <point x="873" y="83" type="curve" smooth="yes"/>
      <point x="875" y="83"/>
      <point x="879" y="84"/>
      <point x="884" y="85" type="curve"/>
      <point x="905" y="92"/>
      <point x="928" y="119"/>
      <point x="968" y="172" type="curve"/>
      <point x="998" y="151" type="line"/>
      <point x="981" y="87"/>
      <point x="947" y="43"/>
      <point x="891" y="8" type="curve" smooth="yes"/>
      <point x="864" y="-8"/>
      <point x="835" y="-17"/>
      <point x="803" y="-18" type="curve" smooth="yes"/>
      <point x="775" y="-18"/>
      <point x="759" y="-14"/>
      <point x="746" y="-1" type="curve" smooth="yes"/>
      <point x="727" y="18"/>
      <point x="727" y="44"/>
      <point x="727" y="55" type="curve" smooth="yes"/>
      <point x="727" y="57"/>
      <point x="727" y="60"/>
      <point x="728" y="63" type="curve"/>
      <point x="728" y="66"/>
      <point x="728" y="69"/>
      <point x="728" y="71" type="curve" smooth="yes"/>
      <point x="729" y="102"/>
      <point x="734" y="149"/>
      <point x="742" y="212" type="curve" smooth="yes"/>
      <point x="793" y="618" type="line"/>
      <point x="697" y="387"/>
      <point x="599" y="185"/>
      <point x="539" y="90" type="curve" smooth="yes"/>
      <point x="532" y="79"/>
      <point x="519" y="60"/>
      <point x="500" y="32" type="curve"/>
      <point x="421" y="20" type="line"/>
      <point x="272" y="618" type="line"/>
      <point x="270" y="618" type="line"/>
      <point x="258" y="300" type="line" smooth="yes"/>
      <point x="253" y="173"/>
      <point x="247" y="115"/>
      <point x="204" y="48" type="curve" smooth="yes"/>
      <point x="176" y="5"/>
      <point x="143" y="-19"/>
      <point x="104" y="-19" type="curve" smooth="yes"/>
      <point x="71" y="-19"/>
      <point x="40" y="-2"/>
      <point x="23" y="26" type="curve" smooth="yes"/>
      <point x="15" y="39"/>
      <point x="10" y="50"/>
      <point x="8" y="58" type="curve"/>
      <point x="47" y="75"/>
      <point x="91" y="106"/>
      <point x="123" y="151" type="curve" smooth="yes"/>
      <point x="146" y="184"/>
      <point x="163" y="229"/>
      <point x="175" y="284" type="curve" smooth="yes"/>
      <point x="191" y="358"/>
      <point x="201" y="441"/>
      <point x="206" y="534" type="curve" smooth="yes"/>
      <point x="207" y="562"/>
      <point x="208" y="605"/>
      <point x="208" y="662" type="curve"/>
    </contour>
  </outline>
</glyph>
<glyph name="N" format="1">
  <advance width="932"/>
  <unicode hex="004E"/>
  <outline>
    <contour>
      <point x="625" y="-19" type="line"/>
      <point x="282" y="618" type="line"/>
      <point x="280" y="618" type="line"/>
      <point x="268" y="300" type="line" smooth="yes"/>
      <point x="263" y="180"/>
      <point x="254" y="115"/>
      <point x="202" y="43" type="curve"/>
      <point x="173" y="6"/>
      <point x="138" y="-19"/>
      <point x="98" y="-19" type="curve" smooth="yes"/>
      <point x="94" y="-19" type="line"/>
      <point x="61" y="-16"/>
      <point x="33" y="-1"/>
      <point x="16" y="30" type="curve"/>
      <point x="11" y="41"/>
      <point x="7" y="52"/>
      <point x="5" y="63" type="curve"/>
      <point x="49" y="83"/>
      <point x="87" y="106"/>
      <point x="122" y="150" type="curve" smooth="yes"/>
      <point x="175" y="215"/>
      <point x="211" y="341"/>
      <point x="216" y="534" type="curve" smooth="yes"/>
      <point x="217" y="590"/>
      <point x="218" y="633"/>
      <point x="218" y="662" type="curve"/>
      <point x="79" y="695" type="line"/>
      <point x="92" y="742" type="line"/>
      <point x="147" y="753"/>
      <point x="201" y="761"/>
      <point x="253" y="765" type="curve" smooth="yes"/>
      <point x="292" y="768"/>
      <point x="322" y="769"/>
      <point x="345" y="770" type="curve"/>
      <point x="399" y="666" type="line"/>
      <point x="668" y="169" type="line"/>
      <point x="712" y="683" type="line"/>
      <point x="572" y="693" type="line"/>
      <point x="584" y="740" type="line"/>
      <point x="647" y="754"/>
      <point x="702" y="763"/>
      <point x="750" y="766" type="curve" smooth="yes"/>
      <point x="780" y="768"/>
      <point x="810" y="769"/>
      <point x="839" y="769" type="curve" smooth="yes"/>
      <point x="868" y="769"/>
      <point x="898" y="768"/>
      <point x="928" y="766" type="curve"/>
      <point x="915" y="719" type="line"/>
      <point x="788" y="685" type="line"/>
      <point x="724" y="1" type="line"/>
    </contour>
  </outline>
</glyph>
<glyph name="P" format="1">
  <advance width="721"/>
  <unicode hex="0050"/>
  <outline>
    <contour>
      <point x="334" y="330" type="line"/>
      <point x="357" y="332"/>
      <point x="381" y="336"/>
      <point x="404" y="342" type="curve" smooth="yes"/>
      <point x="528" y="371"/>
      <point x="596" y="443"/>
      <point x="596" y="536" type="curve" smooth="yes"/>
      <point x="596" y="651"/>
      <point x="521" y="736"/>
      <point x="390" y="736" type="curve" smooth="yes"/>
      <point x="378" y="736"/>
      <point x="366" y="735"/>
      <point x="354" y="733" type="curve"/>
      <point x="271" y="72" type="line"/>
      <point x="412" y="52" type="line"/>
      <point x="397" y="0" type="line"/>
      <point x="5" y="0" type="line"/>
      <point x="16" y="48" type="line"/>
      <point x="150" y="82" type="line"/>
      <point x="226" y="659" type="line"/>
      <point x="92" y="673" type="line"/>
      <point x="102" y="716" type="line"/>
      <point x="225" y="759"/>
      <point x="341" y="780"/>
      <point x="450" y="780" type="curve" smooth="yes"/>
      <point x="621" y="780"/>
      <point x="716" y="703"/>
      <point x="716" y="564" type="curve" smooth="yes"/>
      <point x="716" y="424"/>
      <point x="582" y="300"/>
      <point x="338" y="279" type="curve"/>
    </contour>
  </outline>
</glyph>
<glyph name="Q" format="1">
  <advance width="675"/>
  <unicode hex="0051"/>
  <outline>
    <contour>
      <point x="226" y="689"/>
      <point x="172" y="627"/>
      <point x="148" y="542" type="curve" smooth="yes"/>
      <point x="136" y="501"/>
      <point x="130" y="454"/>
      <point x="130" y="402" type="curve" smooth="yes"/>
      <point x="130" y="338"/>
      <point x="137" y="246"/>
      <point x="170" y="181" type="curve" smooth="yes"/>
      <point x="192" y="138"/>
      <point x="222" y="108"/>
      <point x="260" y="89" type="curve" smooth="yes"/>
      <point x="281" y="78"/>
      <point x="304" y="72"/>
      <point x="329" y="72" type="curve" smooth="yes"/>
      <point x="336" y="72"/>
      <point x="342" y="72"/>
      <point x="346" y="73" type="curve"/>
      <point x="377" y="76"/>
      <point x="405" y="87"/>
      <point x="428" y="104" type="curve" smooth="yes"/>
      <point x="471" y="135"/>
      <point x="500" y="181"/>
      <point x="516" y="244" type="curve"/>
      <point x="527" y="281"/>
      <point x="532" y="324"/>
      <point x="532" y="372" type="curve" smooth="yes"/>
      <point x="532" y="383"/>
      <point x="531" y="399"/>
      <point x="530" y="422" type="curve" smooth="yes"/>
      <point x="523" y="521"/>
      <point x="493" y="615"/>
      <point x="424" y="666" type="curve" smooth="yes"/>
      <point x="395" y="689"/>
      <point x="362" y="700"/>
      <point x="324" y="700" type="curve" smooth="yes"/>
      <point x="319" y="700"/>
      <point x="311" y="699"/>
      <point x="302" y="698" type="curve" smooth="yes"/>
    </contour>
    <contour>
      <point x="318" y="782"/>
      <point x="352" y="788"/>
      <point x="387" y="788" type="curve" smooth="yes"/>
      <point x="400" y="788" type="line"/>
      <point x="479" y="784"/>
      <point x="552" y="749"/>
      <point x="600" y="670" type="curve" smooth="yes"/>
      <point x="645" y="595"/>
      <point x="656" y="523"/>
      <point x="656" y="455" type="curve" smooth="yes"/>
      <point x="656" y="422"/>
      <point x="652" y="384"/>
      <point x="644" y="343" type="curve" smooth="yes"/>
      <point x="613" y="192"/>
      <point x="534" y="66"/>
      <point x="401" y="9" type="curve"/>
      <point x="402" y="0"/>
      <point x="405" y="-11"/>
      <point x="409" y="-23" type="curve" smooth="yes"/>
      <point x="428" y="-80"/>
      <point x="477" y="-125"/>
      <point x="537" y="-125" type="curve" smooth="yes"/>
      <point x="540" y="-125" type="line" smooth="yes"/>
      <point x="573" y="-125"/>
      <point x="622" y="-106"/>
      <point x="657" y="-83" type="curve"/>
      <point x="671" y="-133" type="line"/>
      <point x="626" y="-193"/>
      <point x="568" y="-230"/>
      <point x="495" y="-238" type="curve"/>
      <point x="493" y="-238"/>
      <point x="490" y="-238"/>
      <point x="486" y="-238" type="curve"/>
      <point x="482" y="-239"/>
      <point x="479" y="-239"/>
      <point x="477" y="-239" type="curve" smooth="yes"/>
      <point x="442" y="-239"/>
      <point x="397" y="-229"/>
      <point x="364" y="-193" type="curve" smooth="yes"/>
      <point x="335" y="-161"/>
      <point x="322" y="-118"/>
      <point x="319" y="-74" type="curve"/>
      <point x="319" y="-71"/>
      <point x="319" y="-68"/>
      <point x="319" y="-64" type="curve"/>
      <point x="318" y="-60"/>
      <point x="318" y="-57"/>
      <point x="318" y="-54" type="curve" smooth="yes"/>
      <point x="318" y="-39"/>
      <point x="319" y="-26"/>
      <point x="321" y="-13" type="curve"/>
      <point x="309" y="-15"/>
      <point x="296" y="-16"/>
      <point x="283" y="-16" type="curve" smooth="yes"/>
      <point x="262" y="-16"/>
      <point x="242" y="-14"/>
      <point x="223" y="-9" type="curve" smooth="yes"/>
      <point x="118" y="16"/>
      <point x="24" y="107"/>
      <point x="8" y="276" type="curve" smooth="yes"/>
      <point x="7" y="288"/>
      <point x="6" y="306"/>
      <point x="6" y="330" type="curve" smooth="yes"/>
      <point x="6" y="493"/>
      <point x="67" y="608"/>
      <point x="148" y="685" type="curve" smooth="yes"/>
      <point x="189" y="724"/>
      <point x="235" y="752"/>
      <point x="286" y="770" type="curve" smooth="yes"/>
    </contour>
  </outline>
</glyph>
<glyph name="R" format="1">
  <advance width="765"/>
  <unicode hex="0052"/>
  <outline>
    <contour>
      <point x="262" y="66" type="line"/>
      <point x="376" y="44" type="line"/>
      <point x="364" y="0" type="line"/>
      <point x="5" y="0" type="line"/>
      <point x="16" y="46" type="line"/>
      <point x="148" y="79" type="line"/>
      <point x="226" y="658" type="line"/>
      <point x="89" y="666" type="line"/>
      <point x="98" y="714" type="line"/>
      <point x="165" y="737"/>
      <point x="332" y="778"/>
      <point x="433" y="778" type="curve" smooth="yes"/>
      <point x="448" y="778"/>
      <point x="460" y="778"/>
      <point x="467" y="777" type="curve"/>
      <point x="567" y="770"/>
      <point x="647" y="732"/>
      <point x="680" y="648" type="curve" smooth="yes"/>
      <point x="687" y="631"/>
      <point x="691" y="612"/>
      <point x="691" y="591" type="curve" smooth="yes"/>
      <point x="691" y="580"/>
      <point x="690" y="569"/>
      <point x="688" y="558" type="curve" smooth="yes"/>
      <point x="676" y="498"/>
      <point x="641" y="448"/>
      <point x="560" y="400" type="curve" smooth="yes"/>
      <point x="530" y="382"/>
      <point x="499" y="367"/>
      <point x="467" y="355" type="curve"/>
      <point x="467" y="353" type="line"/>
      <point x="557" y="201" type="line" smooth="yes"/>
      <point x="594" y="137"/>
      <point x="613" y="111"/>
      <point x="652" y="87" type="curve"/>
      <point x="665" y="78"/>
      <point x="685" y="71"/>
      <point x="712" y="66" type="curve" smooth="yes"/>
      <point x="761" y="56" type="line"/>
      <point x="756" y="19" type="line"/>
      <point x="717" y="-4"/>
      <point x="677" y="-11"/>
      <point x="650" y="-11" type="curve" smooth="yes"/>
      <point x="579" y="-11"/>
      <point x="529" y="24"/>
      <point x="497" y="67" type="curve" smooth="yes"/>
      <point x="484" y="85"/>
      <point x="470" y="108"/>
      <point x="456" y="135" type="curve" smooth="yes"/>
      <point x="379" y="280" type="line"/>
      <point x="371" y="293"/>
      <point x="365" y="303"/>
      <point x="360" y="309" type="curve"/>
      <point x="338" y="338" type="line"/>
      <point x="327" y="351" type="line"/>
      <point x="334" y="369" type="line"/>
      <point x="382" y="380" type="line" smooth="yes"/>
      <point x="458" y="395"/>
      <point x="529" y="422"/>
      <point x="558" y="514" type="curve"/>
      <point x="563" y="528"/>
      <point x="565" y="544"/>
      <point x="565" y="561" type="curve" smooth="yes"/>
      <point x="565" y="596"/>
      <point x="554" y="642"/>
      <point x="522" y="678" type="curve" smooth="yes"/>
      <point x="486" y="719"/>
      <point x="444" y="729"/>
      <point x="408" y="729" type="curve" smooth="yes"/>
      <point x="387" y="729"/>
      <point x="369" y="727"/>
      <point x="352" y="722" type="curve"/>
    </contour>
  </outline>
</glyph>
<glyph name="S" format="1">
  <advance width="531"/>
  <unicode hex="0053"/>
  <outline>
    <contour>
      <point x="488" y="514" type="line"/>
      <point x="434" y="526" type="line"/>
      <point x="429" y="680" type="line"/>
      <point x="409" y="707"/>
      <point x="385" y="723"/>
      <point x="356" y="729" type="curve"/>
      <point x="348" y="731"/>
      <point x="340" y="732"/>
      <point x="331" y="732" type="curve" smooth="yes"/>
      <point x="279" y="732"/>
      <point x="220" y="696"/>
      <point x="216" y="628" type="curve"/>
      <point x="216" y="621" type="line" smooth="yes"/>
      <point x="216" y="557"/>
      <point x="251" y="519"/>
      <point x="318" y="466" type="curve" smooth="yes"/>
      <point x="387" y="410"/>
      <point x="436" y="368"/>
      <point x="469" y="320" type="curve" smooth="yes"/>
      <point x="487" y="294"/>
      <point x="498" y="265"/>
      <point x="502" y="232" type="curve"/>
      <point x="503" y="229"/>
      <point x="503" y="223"/>
      <point x="503" y="215" type="curve" smooth="yes"/>
      <point x="503" y="171"/>
      <point x="487" y="118"/>
      <point x="444" y="74" type="curve" smooth="yes"/>
      <point x="377" y="3"/>
      <point x="295" y="-15"/>
      <point x="228" y="-15" type="curve" smooth="yes"/>
      <point x="164" y="-15"/>
      <point x="105" y="6"/>
      <point x="70" y="30" type="curve" smooth="yes"/>
      <point x="31" y="57"/>
      <point x="10" y="97"/>
      <point x="6" y="128" type="curve"/>
      <point x="5" y="131"/>
      <point x="5" y="136"/>
      <point x="5" y="143" type="curve" smooth="yes"/>
      <point x="5" y="153"/>
      <point x="7" y="164"/>
      <point x="10" y="176" type="curve"/>
      <point x="21" y="209"/>
      <point x="42" y="231"/>
      <point x="74" y="244" type="curve"/>
      <point x="89" y="251"/>
      <point x="106" y="254"/>
      <point x="124" y="254" type="curve" smooth="yes"/>
      <point x="137" y="254"/>
      <point x="151" y="252"/>
      <point x="164" y="248" type="curve"/>
      <point x="156" y="225"/>
      <point x="151" y="205"/>
      <point x="148" y="188" type="curve"/>
      <point x="147" y="175"/>
      <point x="146" y="165"/>
      <point x="146" y="158" type="curve" smooth="yes"/>
      <point x="146" y="117"/>
      <point x="161" y="89"/>
      <point x="186" y="70" type="curve"/>
      <point x="199" y="61"/>
      <point x="215" y="54"/>
      <point x="232" y="51" type="curve"/>
      <point x="241" y="50"/>
      <point x="249" y="49"/>
      <point x="254" y="49" type="curve" smooth="yes"/>
      <point x="302" y="49"/>
      <point x="355" y="79"/>
      <point x="372" y="127" type="curve" smooth="yes"/>
      <point x="376" y="139"/>
      <point x="378" y="151"/>
      <point x="378" y="164" type="curve" smooth="yes"/>
      <point x="378" y="193"/>
      <point x="370" y="228"/>
      <point x="338" y="261" type="curve"/>
      <point x="325" y="276"/>
      <point x="308" y="290"/>
      <point x="289" y="305" type="curve" smooth="yes"/>
      <point x="223" y="358"/>
      <point x="177" y="401"/>
      <point x="150" y="434" type="curve" smooth="yes"/>
      <point x="114" y="477"/>
      <point x="97" y="520"/>
      <point x="97" y="560" type="curve" smooth="yes"/>
      <point x="97" y="561"/>
      <point x="97" y="564"/>
      <point x="98" y="567" type="curve"/>
      <point x="98" y="570"/>
      <point x="98" y="573"/>
      <point x="98" y="574" type="curve"/>
      <point x="100" y="599"/>
      <point x="107" y="623"/>
      <point x="119" y="645" type="curve" smooth="yes"/>
      <point x="162" y="726"/>
      <point x="252" y="783"/>
      <point x="344" y="790" type="curve"/>
      <point x="359" y="790" type="line" smooth="yes"/>
      <point x="425" y="790"/>
      <point x="481" y="769"/>
      <point x="528" y="728" type="curve"/>
    </contour>
  </outline>
</glyph>
<glyph name="T" format="1">
  <advance width="681"/>
  <unicode hex="0054"/>
  <outline>
    <contour>
      <point x="452" y="774" type="line"/>
      <point x="677" y="770" type="line"/>
      <point x="627" y="506" type="line"/>
      <point x="568" y="514" type="line"/>
      <point x="550" y="690" type="line"/>
      <point x="497" y="699"/>
      <point x="425" y="706"/>
      <point x="393" y="707" type="curve"/>
      <point x="316" y="68" type="line"/>
      <point x="471" y="49" type="line"/>
      <point x="460" y="-1" type="line"/>
      <point x="46" y="-1" type="line"/>
      <point x="60" y="49" type="line"/>
      <point x="195" y="83" type="line"/>
      <point x="268" y="694" type="line"/>
      <point x="233" y="699"/>
      <point x="207" y="703"/>
      <point x="190" y="704" type="curve"/>
      <point x="184" y="705"/>
      <point x="175" y="705"/>
      <point x="162" y="705" type="curve" smooth="yes"/>
      <point x="145" y="705"/>
      <point x="132" y="705"/>
      <point x="123" y="704" type="curve"/>
      <point x="64" y="506" type="line"/>
      <point x="5" y="514" type="line"/>
      <point x="5" y="756" type="line"/>
      <point x="117" y="766"/>
      <point x="243" y="772"/>
      <point x="383" y="774" type="curve" smooth="yes"/>
    </contour>
  </outline>
</glyph>
<glyph name="U" format="1">
  <advance width="882"/>
  <unicode hex="0055"/>
  <outline>
    <contour>
      <point x="142" y="672" type="line"/>
      <point x="5" y="694" type="line"/>
      <point x="18" y="742" type="line"/>
      <point x="84" y="754"/>
      <point x="150" y="762"/>
      <point x="216" y="766" type="curve" smooth="yes"/>
      <point x="252" y="768"/>
      <point x="288" y="769"/>
      <point x="323" y="769" type="curve" smooth="yes"/>
      <point x="399" y="768" type="line"/>
      <point x="388" y="721" type="line"/>
      <point x="265" y="704" type="line"/>
      <point x="236" y="461" type="line" smooth="yes"/>
      <point x="235" y="452"/>
      <point x="234" y="439"/>
      <point x="232" y="423" type="curve" smooth="yes"/>
      <point x="228" y="391"/>
      <point x="225" y="366"/>
      <point x="224" y="342" type="curve"/>
      <point x="223" y="332"/>
      <point x="223" y="317"/>
      <point x="223" y="297" type="curve" smooth="yes"/>
      <point x="223" y="236"/>
      <point x="229" y="167"/>
      <point x="292" y="116" type="curve"/>
      <point x="323" y="89"/>
      <point x="362" y="76"/>
      <point x="408" y="76" type="curve" smooth="yes"/>
      <point x="491" y="76"/>
      <point x="548" y="122"/>
      <point x="576" y="179" type="curve" smooth="yes"/>
      <point x="591" y="209"/>
      <point x="604" y="259"/>
      <point x="614" y="330" type="curve" smooth="yes"/>
      <point x="660" y="686" type="line"/>
      <point x="521" y="692" type="line"/>
      <point x="532" y="740" type="line"/>
      <point x="644" y="764"/>
      <point x="760" y="768"/>
      <point x="809" y="768" type="curve" smooth="yes"/>
      <point x="824" y="768"/>
      <point x="847" y="767"/>
      <point x="878" y="766" type="curve"/>
      <point x="866" y="719" type="line"/>
      <point x="738" y="677" type="line"/>
      <point x="685" y="320" type="line" smooth="yes"/>
      <point x="656" y="125"/>
      <point x="603" y="59"/>
      <point x="507" y="12" type="curve" smooth="yes"/>
      <point x="461" y="-10"/>
      <point x="413" y="-21"/>
      <point x="364" y="-21" type="curve" smooth="yes"/>
      <point x="358" y="-21" type="line"/>
      <point x="286" y="-18"/>
      <point x="218" y="6"/>
      <point x="173" y="51" type="curve" smooth="yes"/>
      <point x="139" y="85"/>
      <point x="117" y="128"/>
      <point x="106" y="180" type="curve" smooth="yes"/>
      <point x="101" y="204"/>
      <point x="98" y="232"/>
      <point x="98" y="263" type="curve" smooth="yes"/>
      <point x="98" y="292"/>
      <point x="103" y="349"/>
      <point x="114" y="434" type="curve" smooth="yes"/>
    </contour>
  </outline>
</glyph>
<glyph name="V" format="1">
  <advance width="667"/>
  <unicode hex="0056"/>
  <outline>
    <contour>
      <point x="490" y="691"/>
      <point x="469" y="720"/>
      <point x="444" y="742" type="curve"/>
      <point x="479" y="777"/>
      <point x="512" y="781"/>
      <point x="535" y="781" type="curve" smooth="yes"/>
      <point x="572" y="781"/>
      <point x="617" y="767"/>
      <point x="646" y="711" type="curve" smooth="yes"/>
      <point x="657" y="690"/>
      <point x="662" y="664"/>
      <point x="662" y="633" type="curve" smooth="yes"/>
      <point x="662" y="625"/>
      <point x="661" y="612"/>
      <point x="660" y="595" type="curve"/>
      <point x="644" y="435"/>
      <point x="548" y="231"/>
      <point x="436" y="88" type="curve" smooth="yes"/>
      <point x="409" y="55"/>
      <point x="384" y="26"/>
      <point x="361" y="3" type="curve"/>
      <point x="271" y="-16" type="line"/>
      <point x="142" y="668" type="line"/>
      <point x="5" y="693" type="line"/>
      <point x="17" y="740" type="line"/>
      <point x="110" y="761"/>
      <point x="194" y="769"/>
      <point x="258" y="770" type="curve"/>
      <point x="374" y="116" type="line"/>
      <point x="379" y="116" type="line"/>
      <point x="400" y="138"/>
      <point x="423" y="167"/>
      <point x="446" y="202" type="curve" smooth="yes"/>
      <point x="492" y="275"/>
      <point x="521" y="355"/>
      <point x="534" y="442" type="curve" smooth="yes"/>
      <point x="537" y="461"/>
      <point x="538" y="482"/>
      <point x="538" y="505" type="curve" smooth="yes"/>
      <point x="538" y="560"/>
      <point x="528" y="609"/>
      <point x="508" y="654" type="curve" smooth="yes"/>
    </contour>
  </outline>
</glyph>
<glyph name="W" format="1">
  <advance width="955"/>
  <unicode hex="0057"/>
  <outline>
    <contour>
      <point x="516" y="-17" type="line"/>
      <point x="498" y="384" type="line"/>
      <point x="492" y="384" type="line"/>
      <point x="456" y="282"/>
      <point x="413" y="187"/>
      <point x="362" y="98" type="curve" smooth="yes"/>
      <point x="351" y="79"/>
      <point x="332" y="48"/>
      <point x="303" y="3" type="curve"/>
      <point x="196" y="-16" type="line"/>
      <point x="139" y="668" type="line"/>
      <point x="5" y="693" type="line"/>
      <point x="22" y="740" type="line"/>
      <point x="118" y="761"/>
      <point x="202" y="769"/>
      <point x="267" y="770" type="curve"/>
      <point x="308" y="146" type="line"/>
      <point x="314" y="146" type="line"/>
      <point x="375" y="234"/>
      <point x="427" y="345"/>
      <point x="464" y="465" type="curve" smooth="yes"/>
      <point x="477" y="508"/>
      <point x="491" y="559"/>
      <point x="505" y="618" type="curve"/>
      <point x="597" y="639" type="line"/>
      <point x="629" y="121" type="line"/>
      <point x="634" y="121" type="line"/>
      <point x="664" y="153"/>
      <point x="689" y="185"/>
      <point x="710" y="217" type="curve" smooth="yes"/>
      <point x="752" y="282"/>
      <point x="781" y="356"/>
      <point x="798" y="438" type="curve" smooth="yes"/>
      <point x="806" y="479"/>
      <point x="810" y="516"/>
      <point x="810" y="549" type="curve" smooth="yes"/>
      <point x="810" y="616"/>
      <point x="797" y="679"/>
      <point x="768" y="746" type="curve"/>
      <point x="795" y="765"/>
      <point x="824" y="774"/>
      <point x="855" y="774" type="curve" smooth="yes"/>
      <point x="859" y="774" type="line"/>
      <point x="907" y="771"/>
      <point x="937" y="746"/>
      <point x="946" y="698" type="curve" smooth="yes"/>
      <point x="949" y="684"/>
      <point x="950" y="668"/>
      <point x="950" y="651" type="curve" smooth="yes"/>
      <point x="950" y="621"/>
      <point x="946" y="588"/>
      <point x="938" y="551" type="curve" smooth="yes"/>
      <point x="923" y="477"/>
      <point x="892" y="400"/>
      <point x="845" y="320" type="curve" smooth="yes"/>
      <point x="803" y="245"/>
      <point x="752" y="172"/>
      <point x="691" y="100" type="curve"/>
      <point x="673" y="77"/>
      <point x="644" y="45"/>
      <point x="604" y="2" type="curve"/>
    </contour>
  </outline>
</glyph>
<glyph name="X" format="1">
  <advance width="805"/>
  <unicode hex="0058"/>
  <outline>
    <contour>
      <point x="208" y="662" type="line"/>
      <point x="58" y="693" type="line"/>
      <point x="70" y="740" type="line"/>
      <point x="175" y="764"/>
      <point x="236" y="767"/>
      <point x="301" y="770" type="curve"/>
      <point x="334" y="696" type="line"/>
      <point x="446" y="451" type="line"/>
      <point x="455" y="476"/>
      <point x="464" y="497"/>
      <point x="472" y="512" type="curve"/>
      <point x="496" y="565"/>
      <point x="564" y="694"/>
      <point x="624" y="742" type="curve" smooth="yes"/>
      <point x="643" y="757"/>
      <point x="662" y="766"/>
      <point x="683" y="771" type="curve" smooth="yes"/>
      <point x="692" y="773"/>
      <point x="700" y="774"/>
      <point x="709" y="774" type="curve" smooth="yes"/>
      <point x="736" y="774"/>
      <point x="765" y="763"/>
      <point x="782" y="738" type="curve"/>
      <point x="791" y="723"/>
      <point x="797" y="710"/>
      <point x="799" y="698" type="curve"/>
      <point x="800" y="695"/>
      <point x="800" y="689"/>
      <point x="800" y="682" type="curve" smooth="yes"/>
      <point x="800" y="663"/>
      <point x="795" y="645"/>
      <point x="786" y="630" type="curve"/>
      <point x="769" y="634"/>
      <point x="752" y="636"/>
      <point x="736" y="636" type="curve"/>
      <point x="708" y="634" type="line"/>
      <point x="639" y="625"/>
      <point x="574" y="582"/>
      <point x="518" y="493" type="curve" smooth="yes"/>
      <point x="501" y="464"/>
      <point x="486" y="432"/>
      <point x="472" y="395" type="curve"/>
      <point x="551" y="221" type="line" smooth="yes"/>
      <point x="562" y="197"/>
      <point x="590" y="139"/>
      <point x="615" y="114" type="curve" smooth="yes"/>
      <point x="626" y="103"/>
      <point x="635" y="100"/>
      <point x="646" y="100" type="curve" smooth="yes"/>
      <point x="654" y="100"/>
      <point x="667" y="103"/>
      <point x="678" y="114" type="curve"/>
      <point x="699" y="131"/>
      <point x="730" y="172"/>
      <point x="738" y="184" type="curve"/>
      <point x="768" y="163" type="line"/>
      <point x="761" y="136"/>
      <point x="752" y="113"/>
      <point x="740" y="94" type="curve" smooth="yes"/>
      <point x="711" y="47"/>
      <point x="675" y="15"/>
      <point x="632" y="-1" type="curve" smooth="yes"/>
      <point x="617" y="-6"/>
      <point x="603" y="-9"/>
      <point x="588" y="-9" type="curve" smooth="yes"/>
      <point x="561" y="-9"/>
      <point x="533" y="1"/>
      <point x="510" y="24" type="curve" smooth="yes"/>
      <point x="500" y="34"/>
      <point x="491" y="45"/>
      <point x="484" y="58" type="curve"/>
      <point x="477" y="69"/>
      <point x="465" y="95"/>
      <point x="446" y="136" type="curve" smooth="yes"/>
      <point x="360" y="327" type="line"/>
      <point x="339" y="270"/>
      <point x="315" y="217"/>
      <point x="266" y="130" type="curve" smooth="yes"/>
      <point x="235" y="77"/>
      <point x="206" y="41"/>
      <point x="180" y="22" type="curve" smooth="yes"/>
      <point x="155" y="3"/>
      <point x="123" y="-6"/>
      <point x="103" y="-6" type="curve"/>
      <point x="88" y="-5" type="line"/>
      <point x="43" y="2"/>
      <point x="13" y="40"/>
      <point x="6" y="80" type="curve"/>
      <point x="5" y="83"/>
      <point x="5" y="88"/>
      <point x="5" y="94" type="curve" smooth="yes"/>
      <point x="5" y="110"/>
      <point x="8" y="126"/>
      <point x="15" y="141" type="curve"/>
      <point x="24" y="140"/>
      <point x="37" y="139"/>
      <point x="54" y="139" type="curve"/>
      <point x="93" y="141" type="line"/>
      <point x="164" y="149"/>
      <point x="231" y="183"/>
      <point x="282" y="276" type="curve" smooth="yes"/>
      <point x="297" y="303"/>
      <point x="314" y="340"/>
      <point x="333" y="385" type="curve"/>
    </contour>
  </outline>
</glyph>
<glyph name="Z" format="1">
  <advance width="675"/>
  <unicode hex="005A"/>
  <outline>
    <contour>
      <point x="100" y="771" type="line"/>
      <point x="670" y="771" type="line"/>
      <point x="665" y="724" type="line"/>
      <point x="142" y="58" type="line"/>
      <point x="272" y="64" type="line" smooth="yes"/>
      <point x="361" y="69"/>
      <point x="437" y="76"/>
      <point x="498" y="86" type="curve"/>
      <point x="517" y="131"/>
      <point x="533" y="176"/>
      <point x="546" y="220" type="curve" smooth="yes"/>
      <point x="552" y="240"/>
      <point x="557" y="260"/>
      <point x="561" y="280" type="curve"/>
      <point x="618" y="272" type="line"/>
      <point x="618" y="267"/>
      <point x="618" y="261"/>
      <point x="619" y="253" type="curve"/>
      <point x="619" y="244"/>
      <point x="619" y="238"/>
      <point x="619" y="234" type="curve" smooth="yes"/>
      <point x="618" y="146"/>
      <point x="608" y="61"/>
      <point x="600" y="26" type="curve" smooth="yes"/>
      <point x="594" y="0" type="line"/>
      <point x="5" y="0" type="line"/>
      <point x="8" y="64" type="line"/>
      <point x="524" y="712" type="line"/>
      <point x="200" y="702" type="line"/>
      <point x="153" y="540" type="line"/>
      <point x="90" y="556" type="line"/>
    </contour>
  </outline>
</glyph>
<glyph name="bracketleft" format="1">
  <advance width="355"/>
  <unicode hex="005B"/>
  <outline>
    <contour>
      <point x="228" y="-234" type="line"/>
      <point x="5" y="-235" type="line"/>
      <point x="130" y="782" type="line"/>
      <point x="350" y="782" type="line"/>
      <point x="350" y="726" type="line"/>
      <point x="216" y="713" type="line"/>
      <point x="108" y="-162" type="line"/>
      <point x="242" y="-174" type="line"/>
    </contour>
  </outline>
</glyph>
<glyph name="backslash" format="1">
  <advance width="253"/>
  <unicode hex="005C"/>
  <outline>
    <contour>
      <point x="87" y="788" type="line"/>
      <point x="250" y="-235" type="line"/>
      <point x="170" y="-230" type="line"/>
      <point x="5" y="793" type="line"/>
    </contour>
  </outline>
</glyph>
<glyph name="bracketright" format="1">
  <advance width="356"/>
  <unicode hex="005D"/>
  <outline>
    <contour>
      <point x="5" y="-234" type="line"/>
      <point x="6" y="-174" type="line"/>
      <point x="142" y="-162" type="line"/>
      <point x="250" y="713" type="line"/>
      <point x="118" y="726" type="line"/>
      <point x="132" y="782" type="line"/>
      <point x="352" y="782" type="line"/>
      <point x="228" y="-235" type="line"/>
    </contour>
  </outline>
</glyph>
<glyph name="asciicircum" format="1">
  <advance width="455"/>
  <unicode hex="005E"/>
  <outline>
    <contour>
      <point x="351" y="757" type="line"/>
      <point x="500" y="499" type="line"/>
      <point x="462" y="477" type="line"/>
      <point x="318" y="650" type="line"/>
      <point x="312" y="650" type="line"/>
      <point x="140" y="480" type="line"/>
      <point x="112" y="500" type="line"/>
      <point x="317" y="749" type="line"/>
    </contour>
  </outline>
</glyph>
<glyph name="underscore" format="1">
  <advance width="541"/>
  <unicode hex="005F"/>
  <outline>
    <contour>
      <point x="20" y="-17" type="line"/>
      <point x="536" y="-17" type="line"/>
      <point x="521" y="-83" type="line"/>
      <point x="5" y="-83" type="line"/>
    </contour>
  </outline>
</glyph>
<glyph name="grave" format="1">
  <advance width="384"/>
  <unicode hex="0060"/>
  <outline>
    <contour>
      <point x="99" y="1005" type="line"/>
      <point x="169" y="1028" type="line"/>
      <point x="249" y="826" type="line"/>
      <point x="214" y="805" type="line"/>
    </contour>
  </outline>
</glyph>
<glyph name="b" format="1">
  <advance width="455"/>
  <unicode hex="0062"/>
  <outline>
    <contour>
      <point x="194" y="769" type="line"/>
      <point x="163" y="522" type="line"/>
      <point x="132" y="366" type="line"/>
      <point x="138" y="366" type="line"/>
      <point x="162" y="470"/>
      <point x="234" y="552"/>
      <point x="310" y="552" type="curve" smooth="yes"/>
      <point x="394" y="552"/>
      <point x="450" y="458"/>
      <point x="450" y="331" type="curve" smooth="yes"/>
      <point x="450" y="135"/>
      <point x="327" y="-15"/>
      <point x="152" y="-15" type="curve" smooth="yes"/>
      <point x="89" y="-15"/>
      <point x="41" y="0"/>
      <point x="7" y="30" type="curve"/>
      <point x="89" y="706" type="line"/>
      <point x="5" y="723" type="line"/>
      <point x="12" y="768" type="line"/>
      <point x="184" y="782" type="line"/>
    </contour>
    <contour>
      <point x="346" y="401"/>
      <point x="323" y="471"/>
      <point x="270" y="471" type="curve" smooth="yes"/>
      <point x="241" y="471"/>
      <point x="212" y="441"/>
      <point x="181" y="382" type="curve" smooth="yes"/>
      <point x="150" y="323"/>
      <point x="129" y="247"/>
      <point x="118" y="154" type="curve" smooth="yes"/>
      <point x="110" y="95" type="line"/>
      <point x="129" y="68"/>
      <point x="162" y="54"/>
      <point x="211" y="54" type="curve" smooth="yes"/>
      <point x="246" y="54"/>
      <point x="278" y="74"/>
      <point x="305" y="114" type="curve" smooth="yes"/>
      <point x="332" y="153"/>
      <point x="346" y="219"/>
      <point x="346" y="312" type="curve" smooth="yes"/>
    </contour>
  </outline>
</glyph>
<glyph name="d" format="1">
  <advance width="518"/>
  <unicode hex="0064"/>
  <outline>
    <contour>
      <point x="376" y="175" type="line" smooth="yes"/>
      <point x="372" y="149"/>
      <point x="370" y="129"/>
      <point x="370" y="115" type="curve" smooth="yes"/>
      <point x="370" y="83"/>
      <point x="379" y="76"/>
      <point x="396" y="76" type="curve" smooth="yes"/>
      <point x="417" y="76"/>
      <point x="463" y="123"/>
      <point x="488" y="167" type="curve"/>
      <point x="513" y="150" type="line"/>
      <point x="481" y="40"/>
      <point x="420" y="-15"/>
      <point x="330" y="-15" type="curve" smooth="yes"/>
      <point x="295" y="-15"/>
      <point x="278" y="10"/>
      <point x="278" y="60" type="curve" smooth="yes"/>
      <point x="278" y="89"/>
      <point x="283" y="122"/>
      <point x="294" y="160" type="curve"/>
      <point x="286" y="162" type="line"/>
      <point x="247" y="53"/>
      <point x="184" y="-16"/>
      <point x="104" y="-16" type="curve" smooth="yes"/>
      <point x="35" y="-16"/>
      <point x="5" y="48"/>
      <point x="5" y="136" type="curve" smooth="yes"/>
      <point x="5" y="232"/>
      <point x="49" y="370"/>
      <point x="133" y="470" type="curve" smooth="yes"/>
      <point x="175" y="520"/>
      <point x="220" y="545"/>
      <point x="268" y="545" type="curve" smooth="yes"/>
      <point x="300" y="545"/>
      <point x="319" y="539"/>
      <point x="326" y="526" type="curve"/>
      <point x="335" y="528" type="line"/>
      <point x="347" y="706" type="line"/>
      <point x="264" y="723" type="line"/>
      <point x="270" y="768" type="line"/>
      <point x="440" y="784" type="line"/>
      <point x="452" y="769" type="line"/>
    </contour>
    <contour>
      <point x="104" y="177" type="line" smooth="yes"/>
      <point x="104" y="138"/>
      <point x="106" y="111"/>
      <point x="110" y="94" type="curve" smooth="yes"/>
      <point x="114" y="77"/>
      <point x="123" y="68"/>
      <point x="138" y="68" type="curve" smooth="yes"/>
      <point x="215" y="68"/>
      <point x="300" y="232"/>
      <point x="320" y="419" type="curve"/>
      <point x="301" y="459"/>
      <point x="274" y="479"/>
      <point x="238" y="479" type="curve" smooth="yes"/>
      <point x="185" y="479"/>
      <point x="140" y="412"/>
      <point x="120" y="325" type="curve" smooth="yes"/>
      <point x="109" y="281"/>
      <point x="104" y="235"/>
      <point x="104" y="188" type="curve" smooth="yes"/>
    </contour>
  </outline>
</glyph>
<glyph name="e" format="1">
  <advance width="371"/>
  <unicode hex="0065"/>
  <outline>
    <contour>
      <point x="216" y="297"/>
      <point x="272" y="356"/>
      <point x="272" y="431" type="curve" smooth="yes"/>
      <point x="272" y="469"/>
      <point x="256" y="488"/>
      <point x="223" y="488" type="curve" smooth="yes"/>
      <point x="154" y="488"/>
      <point x="114" y="411"/>
      <point x="104" y="256" type="curve"/>
    </contour>
    <contour>
      <point x="326" y="554"/>
      <point x="366" y="513"/>
      <point x="366" y="444" type="curve" smooth="yes"/>
      <point x="366" y="388"/>
      <point x="329" y="334"/>
      <point x="274" y="295" type="curve" smooth="yes"/>
      <point x="219" y="256"/>
      <point x="163" y="230"/>
      <point x="104" y="211" type="curve"/>
      <point x="106" y="113"/>
      <point x="139" y="64"/>
      <point x="204" y="64" type="curve" smooth="yes"/>
      <point x="251" y="64"/>
      <point x="294" y="93"/>
      <point x="331" y="152" type="curve"/>
      <point x="354" y="132" type="line"/>
      <point x="327" y="56"/>
      <point x="253" y="-19"/>
      <point x="156" y="-19" type="curve" smooth="yes"/>
      <point x="60" y="-19"/>
      <point x="5" y="55"/>
      <point x="5" y="188" type="curve" smooth="yes"/>
      <point x="5" y="301"/>
      <point x="57" y="425"/>
      <point x="138" y="499" type="curve" smooth="yes"/>
      <point x="178" y="536"/>
      <point x="220" y="554"/>
      <point x="263" y="554" type="curve" smooth="yes"/>
    </contour>
  </outline>
</glyph>
<glyph name="f" format="1">
  <advance width="319"/>
  <unicode hex="0066"/>
  <outline>
    <contour>
      <point x="222" y="477" type="line"/>
      <point x="196" y="110" type="line" smooth="yes"/>
      <point x="185" y="-25"/>
      <point x="165" y="-99"/>
      <point x="124" y="-150" type="curve" smooth="yes"/>
      <point x="95" y="-186"/>
      <point x="53" y="-214"/>
      <point x="14" y="-226" type="curve" smooth="yes"/>
      <point x="-8" y="-233"/>
      <point x="-27" y="-236"/>
      <point x="-44" y="-236" type="curve" smooth="yes"/>
      <point x="-51" y="-236" type="line"/>
      <point x="-90" y="-233"/>
      <point x="-123" y="-215"/>
      <point x="-135" y="-183" type="curve"/>
      <point x="-138" y="-174"/>
      <point x="-140" y="-165"/>
      <point x="-140" y="-156" type="curve" smooth="yes"/>
      <point x="-140" y="-150" type="line"/>
      <point x="-139" y="-131"/>
      <point x="-125" y="-102"/>
      <point x="-104" y="-82" type="curve"/>
      <point x="-75" y="-110"/>
      <point x="-45" y="-131"/>
      <point x="-5" y="-139" type="curve"/>
      <point x="6" y="-140"/>
      <point x="14" y="-141"/>
      <point x="20" y="-141" type="curve" smooth="yes"/>
      <point x="32" y="-141"/>
      <point x="43" y="-139"/>
      <point x="50" y="-135" type="curve"/>
      <point x="59" y="-131"/>
      <point x="68" y="-123"/>
      <point x="73" y="-110" type="curve"/>
      <point x="76" y="-104"/>
      <point x="77" y="-98"/>
      <point x="78" y="-93" type="curve"/>
      <point x="87" y="-36"/>
      <point x="93" y="15"/>
      <point x="98" y="106" type="curve" smooth="yes"/>
      <point x="101" y="151"/>
      <point x="102" y="181"/>
      <point x="103" y="194" type="curve" smooth="yes"/>
      <point x="123" y="479" type="line"/>
      <point x="56" y="474" type="line"/>
      <point x="64" y="538" type="line"/>
      <point x="130" y="528" type="line"/>
      <point x="133" y="548"/>
      <point x="135" y="563"/>
      <point x="137" y="572" type="curve" smooth="yes"/>
      <point x="147" y="619"/>
      <point x="165" y="661"/>
      <point x="190" y="698" type="curve"/>
      <point x="219" y="736"/>
      <point x="254" y="764"/>
      <point x="296" y="782" type="curve" smooth="yes"/>
      <point x="319" y="791"/>
      <point x="340" y="795"/>
      <point x="358" y="795" type="curve" smooth="yes"/>
      <point x="363" y="795" type="line"/>
      <point x="415" y="792"/>
      <point x="441" y="760"/>
      <point x="449" y="729" type="curve" smooth="yes"/>
      <point x="451" y="721"/>
      <point x="452" y="714"/>
      <point x="452" y="707" type="curve" smooth="yes"/>
      <point x="452" y="698"/>
      <point x="451" y="689"/>
      <point x="448" y="682" type="curve"/>
      <point x="441" y="660"/>
      <point x="427" y="643"/>
      <point x="406" y="630" type="curve"/>
      <point x="374" y="667"/>
      <point x="349" y="693"/>
      <point x="328" y="704" type="curve" smooth="yes"/>
      <point x="318" y="709"/>
      <point x="306" y="712"/>
      <point x="293" y="712" type="curve" smooth="yes"/>
      <point x="268" y="712"/>
      <point x="250" y="692"/>
      <point x="242" y="668" type="curve"/>
      <point x="242" y="667"/>
      <point x="240" y="657"/>
      <point x="236" y="639" type="curve"/>
      <point x="235" y="632"/>
      <point x="226" y="553"/>
      <point x="226" y="525" type="curve"/>
      <point x="368" y="538" type="line"/>
      <point x="356" y="470" type="line"/>
    </contour>
  </outline>
</glyph>
<glyph name="g" format="1">
  <advance width="476"/>
  <unicode hex="0067"/>
  <outline>
    <contour>
      <point x="161" y="437"/>
      <point x="153" y="399"/>
      <point x="152" y="354" type="curve" smooth="yes"/>
      <point x="152" y="306"/>
      <point x="153" y="279"/>
      <point x="170" y="248" type="curve"/>
      <point x="183" y="227"/>
      <point x="197" y="216"/>
      <point x="214" y="216" type="curve" smooth="yes"/>
      <point x="227" y="216"/>
      <point x="238" y="219"/>
      <point x="254" y="230" type="curve"/>
      <point x="281" y="253"/>
      <point x="301" y="299"/>
      <point x="301" y="362" type="curve" smooth="yes"/>
      <point x="301" y="407"/>
      <point x="287" y="461"/>
      <point x="267" y="484" type="curve" smooth="yes"/>
      <point x="256" y="497"/>
      <point x="243" y="506"/>
      <point x="224" y="506" type="curve" smooth="yes"/>
      <point x="199" y="506"/>
      <point x="182" y="486"/>
      <point x="174" y="466" type="curve"/>
    </contour>
    <contour>
      <point x="185" y="105" type="line" smooth="yes"/>
      <point x="261" y="76"/>
      <point x="303" y="60"/>
      <point x="312" y="56" type="curve" smooth="yes"/>
      <point x="360" y="35"/>
      <point x="402" y="9"/>
      <point x="425" y="-34" type="curve"/>
      <point x="434" y="-49"/>
      <point x="438" y="-66"/>
      <point x="438" y="-85" type="curve" smooth="yes"/>
      <point x="438" y="-89"/>
      <point x="437" y="-96"/>
      <point x="436" y="-105" type="curve"/>
      <point x="428" y="-146"/>
      <point x="398" y="-176"/>
      <point x="363" y="-195" type="curve" smooth="yes"/>
      <point x="313" y="-223"/>
      <point x="261" y="-238"/>
      <point x="206" y="-240" type="curve"/>
      <point x="190" y="-240" type="line" smooth="yes"/>
      <point x="154" y="-240"/>
      <point x="117" y="-235"/>
      <point x="80" y="-226" type="curve" smooth="yes"/>
      <point x="37" y="-215"/>
      <point x="5" y="-202"/>
      <point x="-22" y="-170" type="curve" smooth="yes"/>
      <point x="-38" y="-152"/>
      <point x="-46" y="-130"/>
      <point x="-46" y="-104" type="curve" smooth="yes"/>
      <point x="-46" y="-61"/>
      <point x="-21" y="-28"/>
      <point x="50" y="5" type="curve" smooth="yes"/>
      <point x="58" y="9"/>
      <point x="78" y="17"/>
      <point x="111" y="30" type="curve"/>
      <point x="87" y="41"/>
      <point x="71" y="52"/>
      <point x="68" y="56" type="curve" smooth="yes"/>
      <point x="59" y="68"/>
      <point x="54" y="81"/>
      <point x="58" y="96" type="curve"/>
      <point x="59" y="102"/>
      <point x="63" y="109"/>
      <point x="68" y="116" type="curve" smooth="yes"/>
      <point x="77" y="129"/>
      <point x="91" y="145"/>
      <point x="111" y="162" type="curve"/>
      <point x="123" y="173"/>
      <point x="132" y="180"/>
      <point x="139" y="185" type="curve"/>
      <point x="130" y="190"/>
      <point x="121" y="197"/>
      <point x="110" y="208" type="curve"/>
      <point x="83" y="237"/>
      <point x="68" y="274"/>
      <point x="66" y="319" type="curve"/>
      <point x="66" y="325" type="line" smooth="yes"/>
      <point x="66" y="382"/>
      <point x="91" y="447"/>
      <point x="136" y="496" type="curve" smooth="yes"/>
      <point x="173" y="535"/>
      <point x="216" y="553"/>
      <point x="253" y="553" type="curve" smooth="yes"/>
      <point x="259" y="553"/>
      <point x="264" y="553"/>
      <point x="267" y="552" type="curve"/>
      <point x="296" y="549"/>
      <point x="320" y="536"/>
      <point x="340" y="514" type="curve"/>
      <point x="344" y="509" type="line"/>
      <point x="369" y="529"/>
      <point x="393" y="542"/>
      <point x="416" y="549" type="curve"/>
      <point x="423" y="552"/>
      <point x="431" y="553"/>
      <point x="440" y="553" type="curve"/>
      <point x="452" y="552" type="line"/>
      <point x="476" y="548"/>
      <point x="493" y="526"/>
      <point x="493" y="505" type="curve" smooth="yes"/>
      <point x="493" y="504"/>
      <point x="493" y="503"/>
      <point x="493" y="502" type="curve"/>
      <point x="492" y="500"/>
      <point x="492" y="499"/>
      <point x="492" y="498" type="curve"/>
      <point x="488" y="473"/>
      <point x="470" y="450"/>
      <point x="443" y="434" type="curve"/>
      <point x="420" y="454"/>
      <point x="405" y="466"/>
      <point x="400" y="469" type="curve"/>
      <point x="385" y="480"/>
      <point x="366" y="483"/>
      <point x="362" y="483" type="curve"/>
      <point x="366" y="475"/>
      <point x="369" y="469"/>
      <point x="370" y="465" type="curve"/>
      <point x="376" y="447"/>
      <point x="380" y="429"/>
      <point x="382" y="410" type="curve"/>
      <point x="383" y="405"/>
      <point x="383" y="396"/>
      <point x="383" y="385" type="curve" smooth="yes"/>
      <point x="383" y="322"/>
      <point x="363" y="277"/>
      <point x="328" y="238" type="curve" smooth="yes"/>
      <point x="300" y="207"/>
      <point x="255" y="181"/>
      <point x="216" y="173" type="curve" smooth="yes"/>
      <point x="211" y="172"/>
      <point x="203" y="171"/>
      <point x="192" y="171" type="curve" smooth="yes"/>
      <point x="185" y="171"/>
      <point x="179" y="171"/>
      <point x="176" y="172" type="curve"/>
      <point x="171" y="168"/>
      <point x="167" y="165"/>
      <point x="164" y="162" type="curve" smooth="yes"/>
      <point x="156" y="154"/>
      <point x="150" y="144"/>
      <point x="146" y="132" type="curve"/>
      <point x="146" y="131"/>
      <point x="146" y="131"/>
      <point x="146" y="130" type="curve"/>
      <point x="145" y="129"/>
      <point x="145" y="128"/>
      <point x="145" y="127" type="curve" smooth="yes"/>
      <point x="145" y="123"/>
      <point x="146" y="121"/>
      <point x="151" y="118" type="curve"/>
      <point x="152" y="118"/>
      <point x="153" y="118"/>
      <point x="154" y="117" type="curve" smooth="yes"/>
      <point x="155" y="116"/>
      <point x="155" y="116"/>
      <point x="156" y="116" type="curve"/>
    </contour>
    <contour>
      <point x="153" y="14" type="line"/>
      <point x="124" y="3"/>
      <point x="95" y="-9"/>
      <point x="70" y="-41" type="curve"/>
      <point x="58" y="-58"/>
      <point x="52" y="-77"/>
      <point x="52" y="-98" type="curve" smooth="yes"/>
      <point x="52" y="-114"/>
      <point x="62" y="-139"/>
      <point x="78" y="-155" type="curve" smooth="yes"/>
      <point x="85" y="-162"/>
      <point x="94" y="-168"/>
      <point x="103" y="-172" type="curve"/>
      <point x="135" y="-188"/>
      <point x="173" y="-196"/>
      <point x="218" y="-196" type="curve" smooth="yes"/>
      <point x="236" y="-196" type="line" smooth="yes"/>
      <point x="260" y="-196"/>
      <point x="289" y="-188"/>
      <point x="308" y="-173" type="curve" smooth="yes"/>
      <point x="327" y="-157"/>
      <point x="336" y="-131"/>
      <point x="336" y="-112" type="curve" smooth="yes"/>
      <point x="336" y="-81"/>
      <point x="319" y="-60"/>
      <point x="294" y="-45" type="curve" smooth="yes"/>
      <point x="273" y="-33"/>
      <point x="248" y="-22"/>
      <point x="215" y="-10" type="curve" smooth="yes"/>
      <point x="198" y="-4"/>
      <point x="186" y="1"/>
      <point x="178" y="4" type="curve" smooth="yes"/>
    </contour>
  </outline>
</glyph>
<glyph name="h" format="1">
  <advance width="547"/>
  <unicode hex="0068"/>
  <outline>
    <contour>
      <point x="110" y="706" type="line"/>
      <point x="26" y="723" type="line"/>
      <point x="32" y="768" type="line"/>
      <point x="210" y="782" type="line"/>
      <point x="220" y="769" type="line"/>
      <point x="181" y="510" type="line"/>
      <point x="142" y="349" type="line"/>
      <point x="150" y="347" type="line"/>
      <point x="187" y="458"/>
      <point x="266" y="550"/>
      <point x="341" y="550" type="curve" smooth="yes"/>
      <point x="398" y="550"/>
      <point x="433" y="515"/>
      <point x="433" y="454" type="curve" smooth="yes"/>
      <point x="433" y="427"/>
      <point x="431" y="401"/>
      <point x="428" y="376" type="curve" smooth="yes"/>
      <point x="400" y="158" type="line" smooth="yes"/>
      <point x="398" y="140"/>
      <point x="397" y="125"/>
      <point x="397" y="113" type="curve" smooth="yes"/>
      <point x="397" y="88"/>
      <point x="404" y="76"/>
      <point x="417" y="76" type="curve" smooth="yes"/>
      <point x="444" y="76"/>
      <point x="490" y="104"/>
      <point x="517" y="152" type="curve"/>
      <point x="542" y="134" type="line"/>
      <point x="506" y="39"/>
      <point x="451" y="-14"/>
      <point x="356" y="-14" type="curve" smooth="yes"/>
      <point x="316" y="-14"/>
      <point x="296" y="12"/>
      <point x="296" y="63" type="curve" smooth="yes"/>
      <point x="296" y="85"/>
      <point x="300" y="125"/>
      <point x="308" y="184" type="curve" smooth="yes"/>
      <point x="322" y="297" type="line" smooth="yes"/>
      <point x="328" y="344"/>
      <point x="331" y="375"/>
      <point x="331" y="392" type="curve" smooth="yes"/>
      <point x="331" y="431"/>
      <point x="321" y="442"/>
      <point x="298" y="442" type="curve" smooth="yes"/>
      <point x="266" y="442"/>
      <point x="238" y="425"/>
      <point x="213" y="391" type="curve" smooth="yes"/>
      <point x="188" y="357"/>
      <point x="165" y="298"/>
      <point x="146" y="214" type="curve"/>
      <point x="144" y="130"/>
      <point x="135" y="71"/>
      <point x="119" y="37" type="curve" smooth="yes"/>
      <point x="102" y="3"/>
      <point x="76" y="-14"/>
      <point x="41" y="-14" type="curve" smooth="yes"/>
      <point x="36" y="-14"/>
      <point x="27" y="-13"/>
      <point x="14" y="-12" type="curve"/>
      <point x="5" y="5" type="line"/>
      <point x="54" y="268" type="line"/>
    </contour>
  </outline>
</glyph>
<glyph name="j" format="1">
  <advance width="366"/>
  <unicode hex="006A"/>
  <outline>
    <contour>
      <point x="326" y="808"/>
      <point x="347" y="789"/>
      <point x="354" y="776" type="curve"/>
      <point x="359" y="764"/>
      <point x="362" y="754"/>
      <point x="362" y="746" type="curve" smooth="yes"/>
      <point x="362" y="719"/>
      <point x="349" y="690"/>
      <point x="325" y="674" type="curve" smooth="yes"/>
      <point x="313" y="666"/>
      <point x="300" y="662"/>
      <point x="286" y="662" type="curve" smooth="yes"/>
      <point x="265" y="662"/>
      <point x="246" y="673"/>
      <point x="238" y="692" type="curve" smooth="yes"/>
      <point x="233" y="704"/>
      <point x="230" y="714"/>
      <point x="230" y="722" type="curve" smooth="yes"/>
      <point x="230" y="749"/>
      <point x="246" y="781"/>
      <point x="266" y="794" type="curve" smooth="yes"/>
      <point x="280" y="803"/>
      <point x="293" y="808"/>
      <point x="305" y="808" type="curve" smooth="yes"/>
    </contour>
    <contour>
      <point x="291" y="99" type="line" smooth="yes"/>
      <point x="282" y="-22"/>
      <point x="263" y="-97"/>
      <point x="220" y="-150" type="curve" smooth="yes"/>
      <point x="207" y="-166"/>
      <point x="191" y="-181"/>
      <point x="174" y="-194" type="curve"/>
      <point x="126" y="-226"/>
      <point x="87" y="-236"/>
      <point x="52" y="-236" type="curve" smooth="yes"/>
      <point x="45" y="-236" type="line"/>
      <point x="6" y="-233"/>
      <point x="-27" y="-215"/>
      <point x="-39" y="-183" type="curve"/>
      <point x="-42" y="-174"/>
      <point x="-44" y="-165"/>
      <point x="-44" y="-156" type="curve" smooth="yes"/>
      <point x="-44" y="-150" type="line"/>
      <point x="-43" y="-131"/>
      <point x="-29" y="-102"/>
      <point x="-8" y="-82" type="curve"/>
      <point x="21" y="-110"/>
      <point x="51" y="-131"/>
      <point x="91" y="-139" type="curve"/>
      <point x="102" y="-140"/>
      <point x="110" y="-141"/>
      <point x="115" y="-141" type="curve" smooth="yes"/>
      <point x="127" y="-141"/>
      <point x="139" y="-139"/>
      <point x="146" y="-135" type="curve"/>
      <point x="155" y="-131"/>
      <point x="164" y="-123"/>
      <point x="169" y="-110" type="curve"/>
      <point x="170" y="-107"/>
      <point x="172" y="-101"/>
      <point x="173" y="-93" type="curve" smooth="yes"/>
      <point x="174" y="-84"/>
      <point x="182" y="-5"/>
      <point x="196" y="143" type="curve" smooth="yes"/>
      <point x="212" y="322" type="line"/>
      <point x="218" y="392" type="line" smooth="yes"/>
      <point x="219" y="401"/>
      <point x="219" y="415"/>
      <point x="219" y="432" type="curve" smooth="yes"/>
      <point x="219" y="438"/>
      <point x="218" y="444"/>
      <point x="216" y="450" type="curve"/>
      <point x="213" y="458"/>
      <point x="208" y="464"/>
      <point x="205" y="464" type="curve"/>
      <point x="204" y="465"/>
      <point x="201" y="465"/>
      <point x="194" y="465" type="curve" smooth="yes"/>
      <point x="190" y="465"/>
      <point x="187" y="464"/>
      <point x="184" y="462" type="curve" smooth="yes"/>
      <point x="177" y="457"/>
      <point x="172" y="452"/>
      <point x="167" y="447" type="curve"/>
      <point x="140" y="412" type="line"/>
      <point x="127" y="393"/>
      <point x="117" y="379"/>
      <point x="112" y="368" type="curve"/>
      <point x="81" y="390" type="line"/>
      <point x="88" y="409"/>
      <point x="97" y="426"/>
      <point x="107" y="442" type="curve" smooth="yes"/>
      <point x="134" y="486"/>
      <point x="166" y="519"/>
      <point x="203" y="542" type="curve" smooth="yes"/>
      <point x="222" y="553"/>
      <point x="236" y="559"/>
      <point x="246" y="561" type="curve"/>
      <point x="249" y="562"/>
      <point x="254" y="562"/>
      <point x="260" y="562" type="curve" smooth="yes"/>
      <point x="284" y="562"/>
      <point x="307" y="550"/>
      <point x="316" y="522" type="curve" smooth="yes"/>
      <point x="320" y="509"/>
      <point x="322" y="495"/>
      <point x="322" y="482" type="curve" smooth="yes"/>
      <point x="322" y="473" type="line" smooth="yes"/>
      <point x="322" y="460"/>
      <point x="320" y="431"/>
      <point x="315" y="384" type="curve" smooth="yes"/>
    </contour>
  </outline>
</glyph>
<glyph name="k" format="1">
  <advance width="493"/>
  <unicode hex="006B"/>
  <outline>
    <contour>
      <point x="184" y="254" type="line"/>
      <point x="283" y="271"/>
      <point x="333" y="318"/>
      <point x="333" y="396" type="curve" smooth="yes"/>
      <point x="333" y="429"/>
      <point x="320" y="446"/>
      <point x="295" y="446" type="curve" smooth="yes"/>
      <point x="264" y="446"/>
      <point x="237" y="429"/>
      <point x="213" y="394" type="curve" smooth="yes"/>
      <point x="189" y="359"/>
      <point x="167" y="299"/>
      <point x="148" y="214" type="curve"/>
      <point x="146" y="132"/>
      <point x="138" y="73"/>
      <point x="124" y="38" type="curve" smooth="yes"/>
      <point x="109" y="2"/>
      <point x="85" y="-16"/>
      <point x="52" y="-16" type="curve" smooth="yes"/>
      <point x="41" y="-16"/>
      <point x="26" y="-13"/>
      <point x="9" y="-8" type="curve"/>
      <point x="5" y="0" type="line"/>
      <point x="56" y="272" type="line"/>
      <point x="112" y="706" type="line"/>
      <point x="28" y="723" type="line"/>
      <point x="34" y="768" type="line"/>
      <point x="212" y="782" type="line"/>
      <point x="222" y="769" type="line"/>
      <point x="184" y="514" type="line"/>
      <point x="144" y="353" type="line"/>
      <point x="152" y="350" type="line"/>
      <point x="189" y="462"/>
      <point x="268" y="554"/>
      <point x="343" y="554" type="curve" smooth="yes"/>
      <point x="400" y="554"/>
      <point x="435" y="519"/>
      <point x="435" y="458" type="curve" smooth="yes"/>
      <point x="435" y="351"/>
      <point x="355" y="275"/>
      <point x="278" y="244" type="curve"/>
      <point x="305" y="174" type="line" smooth="yes"/>
      <point x="330" y="109"/>
      <point x="351" y="76"/>
      <point x="370" y="76" type="curve" smooth="yes"/>
      <point x="402" y="76"/>
      <point x="433" y="101"/>
      <point x="463" y="152" type="curve"/>
      <point x="488" y="133" type="line"/>
      <point x="461" y="48"/>
      <point x="402" y="-8"/>
      <point x="329" y="-8" type="curve" smooth="yes"/>
      <point x="278" y="-8"/>
      <point x="248" y="44"/>
      <point x="217" y="131" type="curve" smooth="yes"/>
      <point x="177" y="244" type="line"/>
    </contour>
  </outline>
</glyph>
<glyph name="m" format="1">
  <advance width="870"/>
  <unicode hex="006D"/>
  <outline>
    <contour>
      <point x="496" y="431"/>
      <point x="493" y="402"/>
      <point x="486" y="382" type="curve"/>
      <point x="492" y="379" type="line"/>
      <point x="537" y="493"/>
      <point x="594" y="550"/>
      <point x="662" y="550" type="curve" smooth="yes"/>
      <point x="718" y="550"/>
      <point x="754" y="513"/>
      <point x="754" y="452" type="curve" smooth="yes"/>
      <point x="754" y="419"/>
      <point x="753" y="393"/>
      <point x="750" y="374" type="curve" smooth="yes"/>
      <point x="723" y="156" type="line" smooth="yes"/>
      <point x="721" y="138"/>
      <point x="720" y="123"/>
      <point x="720" y="111" type="curve" smooth="yes"/>
      <point x="720" y="86"/>
      <point x="727" y="74"/>
      <point x="740" y="74" type="curve" smooth="yes"/>
      <point x="767" y="74"/>
      <point x="813" y="102"/>
      <point x="840" y="150" type="curve"/>
      <point x="866" y="132" type="line"/>
      <point x="829" y="33"/>
      <point x="767" y="-16"/>
      <point x="678" y="-16" type="curve" smooth="yes"/>
      <point x="638" y="-16"/>
      <point x="618" y="10"/>
      <point x="618" y="61" type="curve" smooth="yes"/>
      <point x="618" y="78"/>
      <point x="622" y="118"/>
      <point x="631" y="181" type="curve" smooth="yes"/>
      <point x="645" y="295" type="line" smooth="yes"/>
      <point x="651" y="342"/>
      <point x="654" y="373"/>
      <point x="654" y="390" type="curve" smooth="yes"/>
      <point x="654" y="425"/>
      <point x="643" y="442"/>
      <point x="620" y="442" type="curve" smooth="yes"/>
      <point x="589" y="442"/>
      <point x="561" y="425"/>
      <point x="537" y="391" type="curve" smooth="yes"/>
      <point x="513" y="356"/>
      <point x="491" y="297"/>
      <point x="472" y="212" type="curve"/>
      <point x="470" y="127"/>
      <point x="461" y="67"/>
      <point x="446" y="32" type="curve" smooth="yes"/>
      <point x="431" y="-3"/>
      <point x="405" y="-20"/>
      <point x="370" y="-20" type="curve" smooth="yes"/>
      <point x="365" y="-20"/>
      <point x="356" y="-19"/>
      <point x="344" y="-18" type="curve"/>
      <point x="335" y="-1" type="line"/>
      <point x="383" y="234" type="line"/>
      <point x="393" y="301"/>
      <point x="398" y="354"/>
      <point x="398" y="391" type="curve" smooth="yes"/>
      <point x="398" y="430"/>
      <point x="385" y="440"/>
      <point x="362" y="440" type="curve" smooth="yes"/>
      <point x="332" y="440"/>
      <point x="305" y="423"/>
      <point x="281" y="389" type="curve" smooth="yes"/>
      <point x="257" y="355"/>
      <point x="235" y="296"/>
      <point x="216" y="213" type="curve"/>
      <point x="214" y="129"/>
      <point x="205" y="70"/>
      <point x="189" y="37" type="curve" smooth="yes"/>
      <point x="173" y="3"/>
      <point x="147" y="-14"/>
      <point x="112" y="-14" type="curve" smooth="yes"/>
      <point x="107" y="-14"/>
      <point x="98" y="-13"/>
      <point x="85" y="-12" type="curve"/>
      <point x="76" y="5" type="line"/>
      <point x="127" y="234" type="line"/>
      <point x="140" y="378" type="line" smooth="yes"/>
      <point x="141" y="391"/>
      <point x="142" y="406"/>
      <point x="142" y="424" type="curve" smooth="yes"/>
      <point x="142" y="455"/>
      <point x="134" y="470"/>
      <point x="119" y="470" type="curve" smooth="yes"/>
      <point x="103" y="470"/>
      <point x="59" y="418"/>
      <point x="34" y="374" type="curve"/>
      <point x="5" y="396" type="line"/>
      <point x="37" y="481"/>
      <point x="113" y="564"/>
      <point x="190" y="564" type="curve" smooth="yes"/>
      <point x="222" y="564"/>
      <point x="238" y="543"/>
      <point x="238" y="501" type="curve" smooth="yes"/>
      <point x="238" y="482"/>
      <point x="234" y="453"/>
      <point x="226" y="414" type="curve" smooth="yes"/>
      <point x="218" y="374"/>
      <point x="214" y="352"/>
      <point x="213" y="348" type="curve"/>
      <point x="220" y="346" type="line"/>
      <point x="256" y="457"/>
      <point x="337" y="549"/>
      <point x="412" y="549" type="curve" smooth="yes"/>
      <point x="469" y="549"/>
      <point x="496" y="526"/>
      <point x="496" y="470" type="curve" smooth="yes"/>
    </contour>
  </outline>
</glyph>
<glyph name="o" format="1">
  <advance width="417"/>
  <unicode hex="006F"/>
  <outline>
    <contour>
      <point x="155" y="484"/>
      <point x="117" y="433"/>
      <point x="103" y="376" type="curve" smooth="yes"/>
      <point x="96" y="347"/>
      <point x="92" y="317"/>
      <point x="92" y="284" type="curve" smooth="yes"/>
      <point x="92" y="172"/>
      <point x="139" y="56"/>
      <point x="211" y="56" type="curve" smooth="yes"/>
      <point x="283" y="56"/>
      <point x="324" y="157"/>
      <point x="324" y="262" type="curve" smooth="yes"/>
      <point x="324" y="373"/>
      <point x="279" y="484"/>
      <point x="207" y="484" type="curve" smooth="yes"/>
    </contour>
    <contour>
      <point x="67" y="-16"/>
      <point x="5" y="83"/>
      <point x="5" y="218" type="curve" smooth="yes"/>
      <point x="5" y="397"/>
      <point x="114" y="553"/>
      <point x="247" y="553" type="curve" smooth="yes"/>
      <point x="342" y="553"/>
      <point x="412" y="460"/>
      <point x="412" y="333" type="curve" smooth="yes"/>
      <point x="412" y="222"/>
      <point x="376" y="111"/>
      <point x="300" y="39" type="curve" smooth="yes"/>
      <point x="262" y="2"/>
      <point x="219" y="-16"/>
      <point x="170" y="-16" type="curve" smooth="yes"/>
    </contour>
  </outline>
</glyph>
<glyph name="p" format="1">
  <advance width="555"/>
  <unicode hex="0070"/>
  <outline>
    <contour>
      <point x="139" y="127" type="line"/>
      <point x="168" y="372" type="line" smooth="yes"/>
      <point x="171" y="399"/>
      <point x="172" y="415"/>
      <point x="172" y="421" type="curve" smooth="yes"/>
      <point x="172" y="451"/>
      <point x="164" y="466"/>
      <point x="148" y="466" type="curve" smooth="yes"/>
      <point x="133" y="466"/>
      <point x="89" y="413"/>
      <point x="64" y="368" type="curve"/>
      <point x="35" y="391" type="line"/>
      <point x="67" y="479"/>
      <point x="141" y="565"/>
      <point x="218" y="565" type="curve" smooth="yes"/>
      <point x="251" y="565"/>
      <point x="268" y="543"/>
      <point x="268" y="500" type="curve" smooth="yes"/>
      <point x="268" y="481"/>
      <point x="264" y="451"/>
      <point x="256" y="410" type="curve" smooth="yes"/>
      <point x="247" y="369"/>
      <point x="243" y="347"/>
      <point x="242" y="343" type="curve"/>
      <point x="249" y="342" type="line"/>
      <point x="292" y="454"/>
      <point x="361" y="542"/>
      <point x="424" y="542" type="curve" smooth="yes"/>
      <point x="500" y="542"/>
      <point x="550" y="458"/>
      <point x="550" y="334" type="curve" smooth="yes"/>
      <point x="550" y="206"/>
      <point x="510" y="110"/>
      <point x="448" y="61" type="curve" smooth="yes"/>
      <point x="386" y="12"/>
      <point x="319" y="-10"/>
      <point x="246" y="-10" type="curve" smooth="yes"/>
      <point x="244" y="-10" type="line"/>
      <point x="240" y="36" type="line"/>
      <point x="288" y="41"/>
      <point x="312" y="46"/>
      <point x="352" y="71" type="curve" smooth="yes"/>
      <point x="392" y="95"/>
      <point x="413" y="128"/>
      <point x="430" y="199" type="curve" smooth="yes"/>
      <point x="438" y="234"/>
      <point x="442" y="276"/>
      <point x="442" y="324" type="curve" smooth="yes"/>
      <point x="442" y="367"/>
      <point x="438" y="398"/>
      <point x="430" y="417" type="curve" smooth="yes"/>
      <point x="422" y="435"/>
      <point x="409" y="444"/>
      <point x="390" y="444" type="curve" smooth="yes"/>
      <point x="358" y="444"/>
      <point x="326" y="413"/>
      <point x="294" y="352" type="curve" smooth="yes"/>
      <point x="261" y="291"/>
      <point x="239" y="209"/>
      <point x="226" y="108" type="curve" smooth="yes"/>
      <point x="186" y="-170" type="line"/>
      <point x="300" y="-183" type="line"/>
      <point x="289" y="-227" type="line"/>
      <point x="5" y="-227" type="line"/>
      <point x="18" y="-183" type="line"/>
      <point x="98" y="-158" type="line"/>
    </contour>
  </outline>
</glyph>
<glyph name="q" format="1">
  <advance width="438"/>
  <unicode hex="0071"/>
  <outline>
    <contour>
      <point x="252" y="49" type="line"/>
      <point x="228" y="20"/>
      <point x="168" y="-16"/>
      <point x="108" y="-16" type="curve" smooth="yes"/>
      <point x="40" y="-16"/>
      <point x="5" y="55"/>
      <point x="5" y="135" type="curve" smooth="yes"/>
      <point x="5" y="259"/>
      <point x="54" y="400"/>
      <point x="134" y="488" type="curve" smooth="yes"/>
      <point x="174" y="532"/>
      <point x="216" y="554"/>
      <point x="260" y="554" type="curve" smooth="yes"/>
      <point x="290" y="554"/>
      <point x="313" y="540"/>
      <point x="328" y="513" type="curve"/>
      <point x="334" y="513" type="line"/>
      <point x="340" y="570" type="line"/>
      <point x="356" y="570" type="line"/>
      <point x="426" y="550" type="line"/>
      <point x="383" y="194" type="line"/>
      <point x="338" y="-170" type="line"/>
      <point x="434" y="-179" type="line"/>
      <point x="424" y="-223" type="line"/>
      <point x="122" y="-223" type="line"/>
      <point x="133" y="-177" type="line"/>
      <point x="244" y="-152" type="line"/>
      <point x="295" y="196" type="line"/>
      <point x="317" y="417" type="line"/>
      <point x="302" y="444"/>
      <point x="261" y="480"/>
      <point x="230" y="480" type="curve" smooth="yes"/>
      <point x="183" y="480"/>
      <point x="148" y="439"/>
      <point x="130" y="379" type="curve" smooth="yes"/>
      <point x="112" y="318"/>
      <point x="104" y="255"/>
      <point x="104" y="188" type="curve" smooth="yes"/>
      <point x="104" y="124"/>
      <point x="122" y="61"/>
      <point x="165" y="61" type="curve" smooth="yes"/>
      <point x="188" y="61"/>
      <point x="214" y="66"/>
      <point x="243" y="77" type="curve"/>
    </contour>
  </outline>
</glyph>
<glyph name="r" format="1">
  <advance width="459"/>
  <unicode hex="0072"/>
  <outline>
    <contour>
      <point x="218" y="239"/>
      <point x="212" y="206"/>
      <point x="209" y="140" type="curve" smooth="yes"/>
      <point x="207" y="107"/>
      <point x="204" y="82"/>
      <point x="201" y="66" type="curve"/>
      <point x="194" y="38"/>
      <point x="182" y="9"/>
      <point x="162" y="-4" type="curve"/>
      <point x="150" y="-13"/>
      <point x="138" y="-18"/>
      <point x="125" y="-20" type="curve"/>
      <point x="122" y="-21"/>
      <point x="119" y="-21"/>
      <point x="114" y="-21" type="curve" smooth="yes"/>
      <point x="103" y="-21"/>
      <point x="94" y="-19"/>
      <point x="85" y="-15" type="curve"/>
      <point x="76" y="2" type="line"/>
      <point x="127" y="240" type="line"/>
      <point x="140" y="368" type="line" smooth="yes"/>
      <point x="141" y="381"/>
      <point x="142" y="400"/>
      <point x="142" y="426" type="curve" smooth="yes"/>
      <point x="142" y="435"/>
      <point x="141" y="442"/>
      <point x="140" y="446" type="curve" smooth="yes"/>
      <point x="139" y="450"/>
      <point x="130" y="459"/>
      <point x="126" y="460" type="curve" smooth="yes"/>
      <point x="115" y="463"/>
      <point x="114" y="462"/>
      <point x="103" y="455" type="curve"/>
      <point x="91" y="446"/>
      <point x="81" y="433"/>
      <point x="62" y="408" type="curve"/>
      <point x="49" y="389"/>
      <point x="39" y="375"/>
      <point x="34" y="364" type="curve"/>
      <point x="5" y="386" type="line"/>
      <point x="25" y="442"/>
      <point x="65" y="493"/>
      <point x="110" y="528" type="curve"/>
      <point x="128" y="540"/>
      <point x="141" y="547"/>
      <point x="148" y="550" type="curve"/>
      <point x="177" y="555" type="line"/>
      <point x="183" y="555"/>
      <point x="187" y="555"/>
      <point x="190" y="554" type="curve"/>
      <point x="213" y="550"/>
      <point x="228" y="536"/>
      <point x="236" y="515" type="curve"/>
      <point x="239" y="506"/>
      <point x="240" y="496"/>
      <point x="240" y="485" type="curve" smooth="yes"/>
      <point x="240" y="475" type="line"/>
      <point x="239" y="460"/>
      <point x="237" y="444"/>
      <point x="234" y="428" type="curve" smooth="yes"/>
      <point x="215" y="338" type="line"/>
      <point x="223" y="336" type="line"/>
      <point x="242" y="403"/>
      <point x="285" y="480"/>
      <point x="324" y="512" type="curve"/>
      <point x="347" y="529"/>
      <point x="365" y="535"/>
      <point x="381" y="535" type="curve" smooth="yes"/>
      <point x="387" y="535" type="line"/>
      <point x="426" y="532"/>
      <point x="451" y="501"/>
      <point x="454" y="460" type="curve"/>
      <point x="454" y="453" type="line" smooth="yes"/>
      <point x="454" y="424"/>
      <point x="444" y="399"/>
      <point x="425" y="378" type="curve" smooth="yes"/>
      <point x="417" y="369"/>
      <point x="405" y="360"/>
      <point x="388" y="353" type="curve"/>
      <point x="376" y="375" type="line"/>
      <point x="371" y="386"/>
      <point x="362" y="401"/>
      <point x="350" y="410" type="curve" smooth="yes"/>
      <point x="335" y="422"/>
      <point x="322" y="422"/>
      <point x="310" y="414" type="curve" smooth="yes"/>
      <point x="303" y="409"/>
      <point x="298" y="405"/>
      <point x="295" y="401" type="curve" smooth="yes"/>
      <point x="287" y="391"/>
      <point x="280" y="380"/>
      <point x="274" y="368" type="curve" smooth="yes"/>
      <point x="264" y="349"/>
      <point x="254" y="326"/>
      <point x="243" y="298" type="curve" smooth="yes"/>
    </contour>
  </outline>
</glyph>
<glyph name="s" format="1">
  <advance width="367"/>
  <unicode hex="0073"/>
  <outline>
    <contour>
      <point x="260" y="139"/>
      <point x="230" y="177"/>
      <point x="191" y="210" type="curve" smooth="yes"/>
      <point x="152" y="242"/>
      <point x="111" y="275"/>
      <point x="84" y="318" type="curve" smooth="yes"/>
      <point x="71" y="339"/>
      <point x="64" y="361"/>
      <point x="64" y="383" type="curve" smooth="yes"/>
      <point x="64" y="480"/>
      <point x="151" y="554"/>
      <point x="246" y="554" type="curve" smooth="yes"/>
      <point x="314" y="554"/>
      <point x="362" y="523"/>
      <point x="362" y="479" type="curve" smooth="yes"/>
      <point x="362" y="443"/>
      <point x="342" y="417"/>
      <point x="302" y="400" type="curve"/>
      <point x="290" y="424"/>
      <point x="277" y="449"/>
      <point x="246" y="477" type="curve" smooth="yes"/>
      <point x="231" y="491"/>
      <point x="216" y="498"/>
      <point x="203" y="498" type="curve" smooth="yes"/>
      <point x="174" y="498"/>
      <point x="142" y="473"/>
      <point x="142" y="436" type="curve" smooth="yes"/>
      <point x="142" y="405"/>
      <point x="175" y="367"/>
      <point x="216" y="332" type="curve" smooth="yes"/>
      <point x="256" y="297"/>
      <point x="301" y="261"/>
      <point x="330" y="214" type="curve" smooth="yes"/>
      <point x="344" y="190"/>
      <point x="351" y="166"/>
      <point x="351" y="142" type="curve" smooth="yes"/>
      <point x="351" y="54"/>
      <point x="249" y="-22"/>
      <point x="137" y="-22" type="curve" smooth="yes"/>
      <point x="61" y="-22"/>
      <point x="5" y="17"/>
      <point x="5" y="66" type="curve" smooth="yes"/>
      <point x="5" y="102"/>
      <point x="33" y="139"/>
      <point x="76" y="144" type="curve"/>
      <point x="92" y="92"/>
      <point x="135" y="35"/>
      <point x="176" y="35" type="curve" smooth="yes"/>
      <point x="228" y="35"/>
      <point x="260" y="61"/>
      <point x="260" y="106" type="curve" smooth="yes"/>
    </contour>
  </outline>
</glyph>
<glyph name="t" format="1">
  <advance width="320"/>
  <unicode hex="0074"/>
  <outline>
    <contour>
      <point x="163" y="94"/>
      <point x="181" y="104"/>
      <point x="198" y="124" type="curve" smooth="yes"/>
      <point x="215" y="144"/>
      <point x="239" y="184"/>
      <point x="272" y="243" type="curve"/>
      <point x="302" y="220" type="line"/>
      <point x="265" y="75"/>
      <point x="188" y="-14"/>
      <point x="96" y="-14" type="curve" smooth="yes"/>
      <point x="44" y="-14"/>
      <point x="24" y="6"/>
      <point x="24" y="74" type="curve" smooth="yes"/>
      <point x="24" y="96"/>
      <point x="29" y="144"/>
      <point x="38" y="219" type="curve" smooth="yes"/>
      <point x="74" y="474" type="line"/>
      <point x="5" y="469" type="line"/>
      <point x="20" y="534" type="line"/>
      <point x="81" y="528" type="line"/>
      <point x="93" y="656" type="line"/>
      <point x="186" y="668" type="line"/>
      <point x="194" y="660" type="line"/>
      <point x="173" y="528" type="line"/>
      <point x="316" y="538" type="line"/>
      <point x="300" y="466" type="line"/>
      <point x="166" y="474" type="line"/>
      <point x="139" y="242" type="line" smooth="yes"/>
      <point x="132" y="176"/>
      <point x="128" y="136"/>
      <point x="128" y="122" type="curve" smooth="yes"/>
      <point x="128" y="99"/>
      <point x="132" y="94"/>
      <point x="144" y="94" type="curve" smooth="yes"/>
    </contour>
  </outline>
</glyph>
<glyph name="v" format="1">
  <advance width="496"/>
  <unicode hex="0076"/>
  <outline>
    <contour>
      <point x="219" y="247" type="line"/>
      <point x="217" y="227"/>
      <point x="216" y="208"/>
      <point x="216" y="190" type="curve" smooth="yes"/>
      <point x="216" y="107"/>
      <point x="241" y="56"/>
      <point x="284" y="56" type="curve" smooth="yes"/>
      <point x="339" y="56"/>
      <point x="382" y="126"/>
      <point x="402" y="210" type="curve" smooth="yes"/>
      <point x="411" y="251"/>
      <point x="416" y="294"/>
      <point x="416" y="337" type="curve" smooth="yes"/>
      <point x="416" y="414"/>
      <point x="390" y="475"/>
      <point x="339" y="522" type="curve"/>
      <point x="358" y="543"/>
      <point x="381" y="553"/>
      <point x="408" y="553" type="curve" smooth="yes"/>
      <point x="464" y="553"/>
      <point x="492" y="494"/>
      <point x="492" y="425" type="curve" smooth="yes"/>
      <point x="492" y="292"/>
      <point x="452" y="150"/>
      <point x="371" y="57" type="curve" smooth="yes"/>
      <point x="330" y="10"/>
      <point x="285" y="-13"/>
      <point x="234" y="-13" type="curve" smooth="yes"/>
      <point x="156" y="-13"/>
      <point x="117" y="43"/>
      <point x="117" y="156" type="curve" smooth="yes"/>
      <point x="117" y="168"/>
      <point x="118" y="188"/>
      <point x="121" y="216" type="curve" smooth="yes"/>
      <point x="140" y="366" type="line" smooth="yes"/>
      <point x="142" y="385"/>
      <point x="143" y="400"/>
      <point x="143" y="413" type="curve" smooth="yes"/>
      <point x="143" y="440"/>
      <point x="137" y="454"/>
      <point x="124" y="454" type="curve" smooth="yes"/>
      <point x="111" y="454"/>
      <point x="84" y="426"/>
      <point x="43" y="370" type="curve"/>
      <point x="39" y="365"/>
      <point x="36" y="361"/>
      <point x="34" y="358" type="curve"/>
      <point x="5" y="378" type="line"/>
      <point x="42" y="470"/>
      <point x="123" y="548"/>
      <point x="192" y="548" type="curve" smooth="yes"/>
      <point x="225" y="548"/>
      <point x="242" y="519"/>
      <point x="242" y="460" type="curve" smooth="yes"/>
      <point x="242" y="447"/>
      <point x="237" y="393"/>
      <point x="226" y="297" type="curve" smooth="yes"/>
    </contour>
  </outline>
</glyph>
<glyph name="x" format="1">
  <advance width="538"/>
  <unicode hex="0078"/>
  <outline>
    <contour>
      <point x="320" y="-14"/>
      <point x="293" y="18"/>
      <point x="274" y="81" type="curve"/>
      <point x="247" y="186" type="line"/>
      <point x="184" y="48"/>
      <point x="124" y="-21"/>
      <point x="68" y="-21" type="curve" smooth="yes"/>
      <point x="25" y="-21"/>
      <point x="5" y="10"/>
      <point x="5" y="43" type="curve" smooth="yes"/>
      <point x="5" y="79"/>
      <point x="15" y="105"/>
      <point x="34" y="122" type="curve"/>
      <point x="52" y="106"/>
      <point x="73" y="98"/>
      <point x="98" y="98" type="curve" smooth="yes"/>
      <point x="143" y="98"/>
      <point x="186" y="148"/>
      <point x="226" y="248" type="curve"/>
      <point x="222" y="261"/>
      <point x="216" y="280"/>
      <point x="209" y="307" type="curve" smooth="yes"/>
      <point x="194" y="360"/>
      <point x="190" y="376"/>
      <point x="178" y="408" type="curve" smooth="yes"/>
      <point x="172" y="424"/>
      <point x="167" y="435"/>
      <point x="162" y="442" type="curve" smooth="yes"/>
      <point x="157" y="449"/>
      <point x="151" y="452"/>
      <point x="146" y="452" type="curve" smooth="yes"/>
      <point x="135" y="452"/>
      <point x="126" y="445"/>
      <point x="112" y="424" type="curve" smooth="yes"/>
      <point x="98" y="403"/>
      <point x="94" y="398"/>
      <point x="77" y="366" type="curve"/>
      <point x="48" y="389" type="line"/>
      <point x="86" y="493"/>
      <point x="138" y="545"/>
      <point x="203" y="545" type="curve" smooth="yes"/>
      <point x="255" y="545"/>
      <point x="269" y="479"/>
      <point x="304" y="348" type="curve"/>
      <point x="356" y="456"/>
      <point x="421" y="538"/>
      <point x="472" y="538" type="curve" smooth="yes"/>
      <point x="509" y="538"/>
      <point x="534" y="515"/>
      <point x="534" y="486" type="curve" smooth="yes"/>
      <point x="534" y="454"/>
      <point x="525" y="427"/>
      <point x="506" y="406" type="curve"/>
      <point x="494" y="417"/>
      <point x="473" y="422"/>
      <point x="444" y="422" type="curve" smooth="yes"/>
      <point x="399" y="422"/>
      <point x="359" y="379"/>
      <point x="322" y="293" type="curve"/>
      <point x="377" y="116" type="line" smooth="yes"/>
      <point x="387" y="85"/>
      <point x="397" y="70"/>
      <point x="408" y="70" type="curve" smooth="yes"/>
      <point x="431" y="70"/>
      <point x="462" y="99"/>
      <point x="490" y="146" type="curve"/>
      <point x="516" y="128" type="line"/>
      <point x="481" y="33"/>
      <point x="428" y="-14"/>
      <point x="355" y="-14" type="curve" smooth="yes"/>
    </contour>
  </outline>
</glyph>
<glyph name="y" format="1">
  <advance width="518"/>
  <unicode hex="0079"/>
  <outline>
    <contour>
      <point x="100" y="463"/>
      <point x="62" y="415"/>
      <point x="35" y="366" type="curve"/>
      <point x="5" y="389" type="line"/>
      <point x="34" y="473"/>
      <point x="105" y="557"/>
      <point x="172" y="557" type="curve" smooth="yes"/>
      <point x="228" y="557"/>
      <point x="256" y="517"/>
      <point x="268" y="428" type="curve" smooth="yes"/>
      <point x="306" y="127" type="line"/>
      <point x="309" y="100" type="line"/>
      <point x="314" y="100" type="line"/>
      <point x="409" y="243"/>
      <point x="418" y="276"/>
      <point x="418" y="359" type="curve" smooth="yes"/>
      <point x="418" y="414"/>
      <point x="375" y="488"/>
      <point x="335" y="524" type="curve"/>
      <point x="350" y="543"/>
      <point x="384" y="560"/>
      <point x="412" y="560" type="curve" smooth="yes"/>
      <point x="468" y="560"/>
      <point x="514" y="501"/>
      <point x="514" y="437" type="curve" smooth="yes"/>
      <point x="514" y="321"/>
      <point x="457" y="220"/>
      <point x="308" y="28" type="curve"/>
      <point x="292" y="-119"/>
      <point x="201" y="-236"/>
      <point x="93" y="-236" type="curve" smooth="yes"/>
      <point x="48" y="-236"/>
      <point x="6" y="-208"/>
      <point x="6" y="-167" type="curve" smooth="yes"/>
      <point x="6" y="-164" type="line"/>
      <point x="9" y="-129"/>
      <point x="17" y="-111"/>
      <point x="46" y="-87" type="curve"/>
      <point x="77" y="-116"/>
      <point x="107" y="-131"/>
      <point x="136" y="-131" type="curve" smooth="yes"/>
      <point x="200" y="-131"/>
      <point x="228" y="-103"/>
      <point x="228" y="-15" type="curve" smooth="yes"/>
      <point x="228" y="8"/>
      <point x="226" y="35"/>
      <point x="222" y="68" type="curve" smooth="yes"/>
      <point x="182" y="377" type="line" smooth="yes"/>
      <point x="175" y="430"/>
      <point x="151" y="463"/>
      <point x="124" y="463" type="curve" smooth="yes"/>
    </contour>
  </outline>
</glyph>
<glyph name="z" format="1">
  <advance width="447"/>
  <unicode hex="007A"/>
  <outline>
    <contour>
      <point x="260" y="256" type="line"/>
      <point x="137" y="70" type="line"/>
      <point x="142" y="71"/>
      <point x="150" y="71"/>
      <point x="161" y="71" type="curve"/>
      <point x="178" y="70"/>
      <point x="201" y="64"/>
      <point x="228" y="53" type="curve"/>
      <point x="232" y="52"/>
      <point x="238" y="50"/>
      <point x="245" y="47" type="curve" smooth="yes"/>
      <point x="260" y="41"/>
      <point x="278" y="34"/>
      <point x="290" y="34" type="curve" smooth="yes"/>
      <point x="295" y="34" type="line" smooth="yes"/>
      <point x="302" y="34"/>
      <point x="318" y="39"/>
      <point x="325" y="50" type="curve"/>
      <point x="332" y="59"/>
      <point x="334" y="76"/>
      <point x="334" y="84" type="curve" smooth="yes"/>
      <point x="334" y="91"/>
      <point x="333" y="103"/>
      <point x="330" y="119" type="curve" smooth="yes"/>
      <point x="325" y="146"/>
      <point x="320" y="169"/>
      <point x="313" y="187" type="curve"/>
      <point x="327" y="194"/>
      <point x="339" y="199"/>
      <point x="350" y="200" type="curve" smooth="yes"/>
      <point x="358" y="201"/>
      <point x="364" y="202"/>
      <point x="367" y="202" type="curve" smooth="yes"/>
      <point x="370" y="202"/>
      <point x="376" y="201"/>
      <point x="384" y="200" type="curve"/>
      <point x="407" y="196"/>
      <point x="421" y="179"/>
      <point x="426" y="163" type="curve"/>
      <point x="428" y="158"/>
      <point x="429" y="150"/>
      <point x="429" y="140" type="curve" smooth="yes"/>
      <point x="429" y="91"/>
      <point x="405" y="53"/>
      <point x="373" y="26" type="curve" smooth="yes"/>
      <point x="348" y="5"/>
      <point x="317" y="-6"/>
      <point x="281" y="-8" type="curve"/>
      <point x="279" y="-8"/>
      <point x="277" y="-8"/>
      <point x="274" y="-8" type="curve"/>
      <point x="271" y="-9"/>
      <point x="269" y="-9"/>
      <point x="267" y="-9" type="curve" smooth="yes"/>
      <point x="256" y="-9"/>
      <point x="235" y="-7"/>
      <point x="202" y="-2" type="curve" smooth="yes"/>
      <point x="169" y="3"/>
      <point x="146" y="7"/>
      <point x="131" y="8" type="curve" smooth="yes"/>
      <point x="112" y="9"/>
      <point x="99" y="10"/>
      <point x="90" y="10" type="curve" smooth="yes"/>
      <point x="57" y="10"/>
      <point x="27" y="6"/>
      <point x="0" y="-1" type="curve"/>
      <point x="-12" y="16" type="line"/>
      <point x="155" y="244" type="line"/>
      <point x="314" y="473" type="line"/>
      <point x="297" y="469"/>
      <point x="276" y="471"/>
      <point x="240" y="484" type="curve"/>
      <point x="235" y="485"/>
      <point x="228" y="488"/>
      <point x="219" y="492" type="curve"/>
      <point x="199" y="500"/>
      <point x="185" y="504"/>
      <point x="174" y="504" type="curve" smooth="yes"/>
      <point x="158" y="504"/>
      <point x="149" y="498"/>
      <point x="141" y="483" type="curve"/>
      <point x="136" y="472"/>
      <point x="132" y="455"/>
      <point x="131" y="432" type="curve"/>
      <point x="131" y="420" type="line" smooth="yes"/>
      <point x="131" y="400"/>
      <point x="133" y="380"/>
      <point x="137" y="360" type="curve"/>
      <point x="128" y="357"/>
      <point x="116" y="355"/>
      <point x="103" y="355" type="curve" smooth="yes"/>
      <point x="72" y="355"/>
      <point x="46" y="368"/>
      <point x="33" y="396" type="curve" smooth="yes"/>
      <point x="29" y="405"/>
      <point x="27" y="415"/>
      <point x="27" y="424" type="curve" smooth="yes"/>
      <point x="27" y="429"/>
      <point x="27" y="432"/>
      <point x="28" y="434" type="curve"/>
      <point x="32" y="457"/>
      <point x="46" y="481"/>
      <point x="87" y="508" type="curve" smooth="yes"/>
      <point x="120" y="529"/>
      <point x="153" y="539"/>
      <point x="188" y="542" type="curve"/>
      <point x="198" y="542" type="line" smooth="yes"/>
      <point x="217" y="542"/>
      <point x="247" y="538"/>
      <point x="271" y="535" type="curve"/>
      <point x="283" y="533"/>
      <point x="292" y="532"/>
      <point x="298" y="531" type="curve"/>
      <point x="337" y="530" type="line" smooth="yes"/>
      <point x="354" y="530"/>
      <point x="367" y="530"/>
      <point x="376" y="531" type="curve" smooth="yes"/>
      <point x="399" y="533"/>
      <point x="423" y="538"/>
      <point x="446" y="546" type="curve"/>
      <point x="457" y="528" type="line"/>
    </contour>
  </outline>
</glyph>
<glyph name="braceleft" format="1">
  <advance width="401"/>
  <unicode hex="007B"/>
  <outline>
    <contour>
      <point x="277" y="-173" type="line"/>
      <point x="274" y="-236" type="line"/>
      <point x="210" y="-236" type="line" smooth="yes"/>
      <point x="118" y="-236"/>
      <point x="88" y="-181"/>
      <point x="88" y="-86" type="curve" smooth="yes"/>
      <point x="88" y="-63"/>
      <point x="91" y="-28"/>
      <point x="96" y="20" type="curve" smooth="yes"/>
      <point x="101" y="68"/>
      <point x="103" y="102"/>
      <point x="103" y="123" type="curve" smooth="yes"/>
      <point x="103" y="192"/>
      <point x="81" y="231"/>
      <point x="37" y="238" type="curve" smooth="yes"/>
      <point x="5" y="243" type="line"/>
      <point x="13" y="304" type="line"/>
      <point x="44" y="309" type="line" smooth="yes"/>
      <point x="101" y="318"/>
      <point x="136" y="377"/>
      <point x="146" y="446" type="curve" smooth="yes"/>
      <point x="156" y="515"/>
      <point x="170" y="601"/>
      <point x="187" y="667" type="curve" smooth="yes"/>
      <point x="204" y="733"/>
      <point x="254" y="782"/>
      <point x="334" y="782" type="curve" smooth="yes"/>
      <point x="396" y="782" type="line"/>
      <point x="383" y="720" type="line"/>
      <point x="333" y="716" type="line" smooth="yes"/>
      <point x="294" y="713"/>
      <point x="278" y="651"/>
      <point x="270" y="572" type="curve" smooth="yes"/>
      <point x="261" y="493"/>
      <point x="255" y="409"/>
      <point x="213" y="342" type="curve" smooth="yes"/>
      <point x="192" y="309"/>
      <point x="163" y="287"/>
      <point x="128" y="277" type="curve"/>
      <point x="127" y="273" type="line"/>
      <point x="182" y="256"/>
      <point x="209" y="205"/>
      <point x="209" y="118" type="curve" smooth="yes"/>
      <point x="209" y="93"/>
      <point x="206" y="55"/>
      <point x="201" y="5" type="curve" smooth="yes"/>
      <point x="195" y="-46"/>
      <point x="192" y="-80"/>
      <point x="192" y="-98" type="curve" smooth="yes"/>
      <point x="192" y="-144"/>
      <point x="205" y="-168"/>
      <point x="231" y="-170" type="curve" smooth="yes"/>
    </contour>
  </outline>
</glyph>
<glyph name="bar" format="1">
  <advance width="345"/>
  <unicode hex="007C"/>
  <outline>
    <contour>
      <point x="176" y="-220" type="line"/>
      <point x="107" y="-212" type="line"/>
      <point x="226" y="760" type="line"/>
      <point x="295" y="753" type="line"/>
    </contour>
  </outline>
</glyph>
<glyph name="braceright" format="1">
  <advance width="404"/>
  <unicode hex="007D"/>
  <outline>
    <contour>
      <point x="65" y="-170" type="line" smooth="yes"/>
      <point x="106" y="-167"/>
      <point x="126" y="-105"/>
      <point x="135" y="-25" type="curve" smooth="yes"/>
      <point x="144" y="54"/>
      <point x="152" y="140"/>
      <point x="194" y="208" type="curve" smooth="yes"/>
      <point x="215" y="241"/>
      <point x="243" y="263"/>
      <point x="278" y="273" type="curve"/>
      <point x="278" y="277" type="line"/>
      <point x="223" y="292"/>
      <point x="196" y="341"/>
      <point x="196" y="424" type="curve" smooth="yes"/>
      <point x="196" y="430" type="line"/>
      <point x="196" y="436" type="line" smooth="yes"/>
      <point x="196" y="463"/>
      <point x="199" y="501"/>
      <point x="206" y="551" type="curve" smooth="yes"/>
      <point x="212" y="600"/>
      <point x="215" y="634"/>
      <point x="215" y="651" type="curve" smooth="yes"/>
      <point x="215" y="692"/>
      <point x="204" y="714"/>
      <point x="181" y="716" type="curve" smooth="yes"/>
      <point x="130" y="720" type="line"/>
      <point x="133" y="782" type="line"/>
      <point x="196" y="782" type="line" smooth="yes"/>
      <point x="287" y="782"/>
      <point x="317" y="726"/>
      <point x="317" y="634" type="curve" smooth="yes"/>
      <point x="317" y="612"/>
      <point x="315" y="577"/>
      <point x="310" y="530" type="curve" smooth="yes"/>
      <point x="305" y="483"/>
      <point x="302" y="449"/>
      <point x="302" y="428" type="curve" smooth="yes"/>
      <point x="302" y="357"/>
      <point x="325" y="317"/>
      <point x="370" y="309" type="curve" smooth="yes"/>
      <point x="399" y="304" type="line"/>
      <point x="392" y="243" type="line"/>
      <point x="359" y="238" type="line" smooth="yes"/>
      <point x="303" y="229"/>
      <point x="271" y="171"/>
      <point x="261" y="102" type="curve" smooth="yes"/>
      <point x="251" y="33"/>
      <point x="237" y="-53"/>
      <point x="219" y="-120" type="curve" smooth="yes"/>
      <point x="201" y="-187"/>
      <point x="150" y="-236"/>
      <point x="69" y="-236" type="curve" smooth="yes"/>
      <point x="5" y="-236" type="line"/>
      <point x="18" y="-173" type="line"/>
    </contour>
  </outline>
</glyph>
<glyph name="asciitilde" format="1">
  <advance width="515"/>
  <unicode hex="007E"/>
  <outline>
    <contour>
      <point x="5" y="257" type="line"/>
      <point x="6" y="260"/>
      <point x="8" y="265"/>
      <point x="11" y="271" type="curve"/>
      <point x="15" y="282"/>
      <point x="34" y="317"/>
      <point x="51" y="338" type="curve" smooth="yes"/>
      <point x="68" y="359"/>
      <point x="99" y="381"/>
      <point x="130" y="381" type="curve" smooth="yes"/>
      <point x="131" y="381"/>
      <point x="132" y="381"/>
      <point x="134" y="381" type="curve"/>
      <point x="136" y="380"/>
      <point x="138" y="380"/>
      <point x="139" y="380" type="curve"/>
      <point x="412" y="353" type="line"/>
      <point x="415" y="353" type="line" smooth="yes"/>
      <point x="428" y="353"/>
      <point x="450" y="369"/>
      <point x="462" y="381" type="curve" smooth="yes"/>
      <point x="471" y="390" type="line"/>
      <point x="511" y="390" type="line"/>
      <point x="510" y="387"/>
      <point x="508" y="382"/>
      <point x="506" y="377" type="curve" smooth="yes"/>
      <point x="501" y="365"/>
      <point x="482" y="330"/>
      <point x="463" y="308" type="curve" smooth="yes"/>
      <point x="444" y="286"/>
      <point x="413" y="264"/>
      <point x="382" y="264" type="curve" smooth="yes"/>
      <point x="372" y="264" type="line"/>
      <point x="98" y="292" type="line"/>
      <point x="95" y="292" type="line" smooth="yes"/>
      <point x="79" y="292"/>
      <point x="57" y="273"/>
      <point x="46" y="260" type="curve"/>
      <point x="38" y="249" type="line"/>
    </contour>
  </outline>
</glyph>
<glyph name="exclamdown" format="1">
  <advance width="307"/>
  <unicode hex="00A1"/>
  <outline>
    <contour>
      <point x="147" y="462"/>
      <point x="137" y="468"/>
      <point x="124" y="484" type="curve"/>
      <point x="118" y="492"/>
      <point x="114" y="502"/>
      <point x="112" y="513" type="curve"/>
      <point x="111" y="515"/>
      <point x="111" y="518"/>
      <point x="111" y="523" type="curve" smooth="yes"/>
      <point x="111" y="524"/>
      <point x="112" y="531"/>
      <point x="114" y="545" type="curve"/>
      <point x="122" y="582"/>
      <point x="153" y="616"/>
      <point x="192" y="616" type="curve"/>
      <point x="228" y="613"/>
      <point x="244" y="586"/>
      <point x="248" y="566" type="curve"/>
      <point x="249" y="559"/>
      <point x="250" y="554"/>
      <point x="250" y="550" type="curve" smooth="yes"/>
      <point x="250" y="546"/>
      <point x="249" y="541"/>
      <point x="248" y="534" type="curve"/>
      <point x="240" y="499"/>
      <point x="210" y="465"/>
      <point x="174" y="462" type="curve"/>
    </contour>
    <contour>
      <point x="205" y="-196"/>
      <point x="182" y="-203"/>
      <point x="155" y="-203" type="curve" smooth="yes"/>
      <point x="108" y="-203"/>
      <point x="73" y="-174"/>
      <point x="64" y="-118" type="curve"/>
      <point x="61" y="-105"/>
      <point x="60" y="-92"/>
      <point x="60" y="-77" type="curve" smooth="yes"/>
      <point x="60" y="-60"/>
      <point x="62" y="-36"/>
      <point x="66" y="-4" type="curve" smooth="yes"/>
      <point x="73" y="53"/>
      <point x="83" y="108"/>
      <point x="94" y="162" type="curve" smooth="yes"/>
      <point x="140" y="385" type="line"/>
      <point x="184" y="393" type="line"/>
      <point x="177" y="288" type="line" smooth="yes"/>
      <point x="174" y="240"/>
      <point x="172" y="177"/>
      <point x="172" y="93" type="curve" smooth="yes"/>
      <point x="172" y="54" type="line"/>
      <point x="175" y="-18"/>
      <point x="185" y="-99"/>
      <point x="224" y="-183" type="curve"/>
    </contour>
  </outline>
</glyph>
<glyph name="cent" format="1">
  <advance width="373"/>
  <unicode hex="00A2"/>
  <outline>
    <contour>
      <point x="308" y="543" type="line"/>
      <point x="347" y="527"/>
      <point x="368" y="492"/>
      <point x="368" y="456" type="curve" smooth="yes"/>
      <point x="368" y="393"/>
      <point x="339" y="373"/>
      <point x="282" y="366" type="curve"/>
      <point x="282" y="370"/>
      <point x="276" y="407"/>
      <point x="272" y="428" type="curve"/>
      <point x="269" y="439"/>
      <point x="266" y="448"/>
      <point x="262" y="457" type="curve"/>
      <point x="153" y="80" type="line"/>
      <point x="168" y="67"/>
      <point x="190" y="61"/>
      <point x="218" y="61" type="curve" smooth="yes"/>
      <point x="220" y="61" type="line" smooth="yes"/>
      <point x="260" y="61"/>
      <point x="301" y="93"/>
      <point x="328" y="140" type="curve"/>
      <point x="350" y="120" type="line"/>
      <point x="334" y="49"/>
      <point x="248" y="-19"/>
      <point x="164" y="-19" type="curve" smooth="yes"/>
      <point x="155" y="-19"/>
      <point x="148" y="-19"/>
      <point x="144" y="-18" type="curve"/>
      <point x="124" y="-90" type="line"/>
      <point x="43" y="-96" type="line"/>
      <point x="74" y="11" type="line"/>
      <point x="28" y="48"/>
      <point x="5" y="113"/>
      <point x="5" y="206" type="curve" smooth="yes"/>
      <point x="5" y="378"/>
      <point x="113" y="528"/>
      <point x="230" y="549" type="curve"/>
      <point x="260" y="653" type="line"/>
      <point x="342" y="658" type="line"/>
    </contour>
    <contour>
      <point x="233" y="489" type="line"/>
      <point x="229" y="491"/>
      <point x="224" y="492"/>
      <point x="219" y="492" type="curve" smooth="yes"/>
      <point x="143" y="492"/>
      <point x="105" y="390"/>
      <point x="105" y="242" type="curve" smooth="yes"/>
      <point x="105" y="187"/>
      <point x="112" y="146"/>
      <point x="125" y="117" type="curve"/>
    </contour>
  </outline>
</glyph>
